<?xml version="1.0" encoding="UTF-8" standalone="no"?>
<!DOCTYPE svg PUBLIC "-//W3C//DTD SVG 1.1//EN" "http://www.w3.org/Graphics/SVG/1.1/DTD/svg11.dtd">
<svg version="1.1" xmlns="http://www.w3.org/2000/svg" xmlns:xlink="http://www.w3.org/1999/xlink" preserveAspectRatio="xMidYMid meet" viewBox="0 0 640 640" width="640" height="640"><defs><path d="M419.51 92.2L420.57 92.25L421.59 92.32L422.58 92.4L423.53 92.52L424.44 92.65L425.32 92.8L426.16 92.98L426.97 93.18L427.75 93.4L428.49 93.65L429.2 93.93L429.87 94.22L430.52 94.55L431.13 94.9L431.72 95.28L432.27 95.68L432.79 96.11L433.29 96.57L433.75 97.06L434.19 97.58L434.6 98.13L434.98 98.71L435.34 99.32L435.66 99.96L435.97 100.63L436.24 101.33L436.5 102.07L436.72 102.84L436.93 103.64L437.11 104.48L437.26 105.36L437.4 106.26L437.51 107.21L437.6 108.19L437.67 109.2L437.72 110.26L437.75 111.35L437.76 112.48L437.76 307.2L437.75 308.25L437.72 309.27L437.67 310.26L437.6 311.22L437.51 312.15L437.4 313.05L437.26 313.93L437.1 314.77L436.92 315.59L436.71 316.38L436.48 317.14L436.23 317.87L435.94 318.58L435.64 319.26L435.3 319.91L434.94 320.53L434.55 321.13L434.14 321.7L433.69 322.24L433.22 322.75L432.71 323.24L432.18 323.71L431.62 324.14L431.02 324.55L430.39 324.94L429.73 325.29L429.04 325.63L428.31 325.93L427.55 326.22L426.76 326.47L425.93 326.7L425.06 326.91L424.16 327.09L423.22 327.25L422.25 327.38L421.24 327.49L420.18 327.57L419.1 327.63L417.97 327.67L416.8 327.68L292.16 327.68L299.52 353.28L301.11 353.29L302.81 353.32L304.61 353.37L306.5 353.45L308.48 353.55L310.53 353.68L312.66 353.83L314.84 354.02L317.08 354.23L319.36 354.48L321.68 354.76L324.03 355.08L326.41 355.43L328.8 355.82L331.2 356.25L333.6 356.72L335.99 357.23L338.37 357.79L340.72 358.39L343.04 359.04L345.32 359.74L347.56 360.48L349.74 361.28L351.87 362.13L353.92 363.03L355.9 363.99L357.79 365L359.59 366.07L361.29 367.21L362.88 368.4L364.36 369.66L365.71 370.97L366.94 372.36L368.02 373.81L368.96 375.33L369.75 376.92L370.37 378.58L370.83 380.31L371.11 382.12L371.2 384L371.1 385.89L370.82 387.73L370.36 389.5L369.71 391.22L368.89 392.89L367.9 394.5L366.74 396.06L365.42 397.56L363.95 399.01L362.32 400.4L360.54 401.74L358.62 403.03L356.56 404.27L354.36 405.45L352.03 406.59L349.57 407.67L346.99 408.71L344.3 409.7L341.48 410.63L338.56 411.52L335.53 412.36L332.4 413.15L329.18 413.9L325.86 414.6L322.45 415.25L318.96 415.86L315.39 416.42L311.74 416.94L308.02 417.41L304.24 417.84L300.39 418.23L296.49 418.57L292.53 418.87L288.52 419.13L284.47 419.35L280.38 419.53L276.25 419.67L272.08 419.76L267.89 419.82L263.68 419.84L259.47 419.82L255.28 419.76L251.11 419.67L246.98 419.53L242.89 419.35L238.84 419.13L234.83 418.87L230.87 418.57L226.97 418.23L223.12 417.84L219.34 417.41L215.62 416.94L211.97 416.42L208.4 415.86L204.91 415.25L201.5 414.6L198.18 413.9L194.96 413.15L191.83 412.36L188.8 411.52L185.88 410.63L183.06 409.7L180.37 408.71L177.79 407.67L175.33 406.59L173 405.45L170.8 404.27L168.74 403.03L166.82 401.74L165.04 400.4L163.41 399.01L161.94 397.56L160.62 396.06L159.46 394.5L158.47 392.89L157.65 391.22L157 389.5L156.54 387.73L156.26 385.89L156.16 384L156.25 382.12L156.53 380.31L156.99 378.58L157.61 376.92L158.4 375.33L159.34 373.81L160.42 372.36L161.65 370.97L163 369.66L164.48 368.4L166.07 367.21L167.77 366.07L169.57 365L171.46 363.99L173.44 363.03L175.49 362.13L177.62 361.28L179.8 360.48L182.04 359.74L184.32 359.04L186.64 358.39L188.99 357.79L191.37 357.23L193.76 356.72L196.16 356.25L198.56 355.82L200.95 355.43L203.33 355.08L205.68 354.76L208 354.48L210.28 354.23L212.52 354.02L214.7 353.83L216.83 353.68L218.88 353.55L220.86 353.45L222.75 353.37L224.55 353.32L226.25 353.29L227.84 353.28L229.22 348.48L235.2 327.68L109.92 327.68L108.8 327.67L107.72 327.64L106.67 327.59L105.67 327.52L104.7 327.43L103.76 327.32L102.86 327.18L102 327.03L101.17 326.85L100.38 326.64L99.62 326.41L98.89 326.16L98.2 325.88L97.53 325.58L96.9 325.24L96.3 324.89L95.73 324.5L95.18 324.09L94.67 323.65L94.18 323.18L93.73 322.68L93.3 322.15L92.9 321.59L92.52 320.99L92.17 320.37L91.84 319.72L91.54 319.03L91.26 318.31L91.01 317.55L90.78 316.76L90.57 315.94L90.38 315.08L90.22 314.19L90.07 313.26L89.95 312.29L89.84 311.28L89.75 310.24L89.68 309.16L89.63 308.04L89.6 306.88L89.6 112.64L89.61 111.51L89.64 110.41L89.69 109.35L89.76 108.33L89.85 107.35L89.96 106.4L90.1 105.49L90.25 104.61L90.43 103.77L90.63 102.96L90.86 102.18L91.11 101.44L91.39 100.73L91.69 100.06L92.01 99.41L92.36 98.8L92.74 98.21L93.15 97.66L93.58 97.13L94.04 96.64L94.53 96.17L95.04 95.74L95.59 95.33L96.17 94.95L96.77 94.59L97.41 94.26L98.07 93.96L98.77 93.68L99.5 93.43L100.26 93.2L101.06 93L101.89 92.82L102.75 92.66L103.65 92.52L104.58 92.41L105.54 92.32L106.54 92.25L107.58 92.2L108.65 92.17L109.76 92.16L417.28 92.16L418.41 92.17L419.51 92.2ZM198.44 117.76L191.25 117.76L184.05 117.76L176.86 117.76L169.67 117.76L162.48 117.76L155.3 117.76L148.11 117.76L140.92 117.76L133.73 117.76L126.55 117.76L119.36 117.76L119.18 117.8L119.01 117.84L118.84 117.89L118.67 117.95L118.51 118.01L118.34 118.08L118.18 118.15L118.02 118.24L117.87 118.32L117.71 118.41L117.56 118.51L117.42 118.61L117.27 118.72L117.13 118.83L117 118.95L116.87 119.07L116.74 119.19L116.62 119.32L116.5 119.46L116.38 119.59L116.27 119.73L116.16 119.88L116.06 120.02L115.97 120.17L115.87 120.33L115.79 120.48L115.71 120.64L115.63 120.81L115.56 120.97L115.5 121.14L115.44 121.3L115.39 121.47L115.34 121.64L115.3 121.82L115.27 121.99L115.24 122.17L115.22 122.34L115.21 122.52L115.2 122.7L115.2 122.88L115.2 296.96L115.2 297.16L115.22 297.36L115.24 297.56L115.27 297.75L115.31 297.95L115.36 298.14L115.41 298.33L115.48 298.52L115.55 298.71L115.62 298.89L115.71 299.07L115.8 299.25L115.9 299.42L116 299.59L116.11 299.76L116.23 299.92L116.35 300.08L116.48 300.23L116.62 300.38L116.75 300.53L116.9 300.66L117.05 300.8L117.2 300.93L117.36 301.05L117.52 301.17L117.69 301.28L117.86 301.38L118.03 301.48L118.21 301.57L118.39 301.66L118.57 301.73L118.76 301.8L118.95 301.87L119.14 301.92L119.33 301.97L119.53 302.01L119.72 302.04L119.92 302.06L120.12 302.08L120.32 302.08L407.04 302.08L407.24 302.08L407.44 302.06L407.64 302.04L407.83 302.01L408.03 301.97L408.22 301.92L408.41 301.87L408.6 301.8L408.79 301.73L408.97 301.66L409.15 301.57L409.33 301.48L409.5 301.38L409.67 301.28L409.84 301.17L410 301.05L410.16 300.93L410.31 300.8L410.46 300.66L410.61 300.53L410.74 300.38L410.88 300.23L411.01 300.08L411.13 299.92L411.25 299.76L411.36 299.59L411.46 299.42L411.56 299.25L411.65 299.07L411.74 298.89L411.81 298.71L411.88 298.52L411.95 298.33L412 298.14L412.05 297.95L412.09 297.75L412.12 297.56L412.14 297.36L412.16 297.16L412.16 296.96L412.16 122.88L412.16 122.68L412.14 122.48L412.12 122.28L412.09 122.09L412.05 121.89L412 121.7L411.95 121.51L411.88 121.32L411.81 121.13L411.74 120.95L411.65 120.77L411.56 120.59L411.46 120.42L411.36 120.25L411.25 120.08L411.13 119.92L411.01 119.76L410.88 119.61L410.74 119.46L410.61 119.31L410.46 119.18L410.31 119.04L410.16 118.91L410 118.79L409.84 118.67L409.67 118.56L409.5 118.46L409.33 118.36L409.15 118.27L408.97 118.18L408.79 118.11L408.6 118.04L408.41 117.97L408.22 117.92L408.03 117.87L407.83 117.83L407.64 117.8L407.44 117.78L407.24 117.76L407.04 117.76L399.85 117.76L392.66 117.76L385.47 117.76L378.27 117.76L371.08 117.76L363.89 117.76L356.7 117.76L349.5 117.76L342.31 117.76L335.12 117.76L327.92 117.76L320.73 117.76L306.34 117.76L299.14 117.76L291.95 117.76L284.76 117.76L277.56 117.76L270.37 117.76L263.17 117.76L255.98 117.76L248.79 117.76L241.59 117.76L234.4 117.76L227.21 117.76L220.01 117.76L212.82 117.76L205.63 117.76L198.44 117.76Z" id="a4wZvwePM"></path></defs><g><g><g><use xlink:href="#a4wZvwePM" opacity="1" fill="#000000" fill-opacity="1"></use><g><use xlink:href="#a4wZvwePM" opacity="1" fill-opacity="0" stroke="#000000" stroke-width="1" stroke-opacity="0"></use></g></g></g></g></svg>