<?xml version="1.0" encoding="UTF-8" standalone="no"?>
<!DOCTYPE svg PUBLIC "-//W3C//DTD SVG 1.1//EN" "http://www.w3.org/Graphics/SVG/1.1/DTD/svg11.dtd">
<svg version="1.1" xmlns="http://www.w3.org/2000/svg" xmlns:xlink="http://www.w3.org/1999/xlink" preserveAspectRatio="xMidYMid meet" viewBox="0 0 640 640" width="640" height="640"><defs><path d="M475.83 161.57L476.89 161.62L477.91 161.69L478.9 161.77L479.85 161.89L480.76 162.02L481.64 162.17L482.48 162.35L483.29 162.55L484.07 162.77L484.81 163.02L485.52 163.3L486.19 163.59L486.84 163.92L487.45 164.27L488.04 164.65L488.59 165.05L489.11 165.48L489.61 165.94L490.07 166.43L490.51 166.95L490.92 167.5L491.3 168.08L491.66 168.69L491.98 169.33L492.29 170L492.56 170.7L492.82 171.44L493.04 172.21L493.25 173.01L493.43 173.85L493.58 174.73L493.72 175.63L493.83 176.58L493.92 177.56L493.99 178.57L494.04 179.63L494.07 180.72L494.08 181.85L494.08 376.57L494.07 377.62L494.04 378.64L493.99 379.63L493.92 380.59L493.83 381.52L493.72 382.42L493.58 383.3L493.42 384.14L493.24 384.96L493.03 385.75L492.8 386.51L492.55 387.24L492.26 387.95L491.96 388.63L491.62 389.28L491.26 389.9L490.87 390.5L490.46 391.07L490.01 391.61L489.54 392.12L489.03 392.61L488.5 393.08L487.94 393.51L487.34 393.92L486.71 394.31L486.05 394.66L485.36 395L484.63 395.3L483.87 395.59L483.08 395.84L482.25 396.07L481.38 396.28L480.48 396.46L479.54 396.62L478.57 396.75L477.56 396.86L476.5 396.94L475.42 397L474.29 397.04L473.12 397.05L348.48 397.05L355.84 422.65L357.43 422.66L359.13 422.69L360.93 422.74L362.82 422.82L364.8 422.92L366.85 423.05L368.98 423.2L371.16 423.39L373.4 423.6L375.68 423.85L378 424.13L380.35 424.45L382.73 424.8L385.12 425.19L387.52 425.62L389.92 426.09L392.31 426.6L394.69 427.16L397.04 427.76L399.36 428.41L401.64 429.11L403.88 429.85L406.06 430.65L408.19 431.5L410.24 432.4L412.22 433.36L414.11 434.37L415.91 435.44L417.61 436.58L419.2 437.77L420.68 439.03L422.03 440.34L423.26 441.73L424.34 443.18L425.28 444.7L426.07 446.29L426.69 447.95L427.15 449.68L427.43 451.49L427.52 453.37L427.42 455.26L427.14 457.1L426.68 458.87L426.03 460.59L425.21 462.26L424.22 463.87L423.06 465.43L421.74 466.93L420.27 468.38L418.64 469.77L416.86 471.11L414.94 472.4L412.88 473.64L410.68 474.82L408.35 475.96L405.89 477.04L403.31 478.08L400.62 479.07L397.8 480L394.88 480.89L391.85 481.73L388.72 482.52L385.5 483.27L382.18 483.97L378.77 484.62L375.28 485.23L371.71 485.79L368.06 486.31L364.34 486.78L360.56 487.21L356.71 487.6L352.81 487.94L348.85 488.24L344.84 488.5L340.79 488.72L336.7 488.9L332.57 489.04L328.4 489.13L324.21 489.19L320 489.21L315.79 489.19L311.6 489.13L307.43 489.04L303.3 488.9L299.21 488.72L295.16 488.5L291.15 488.24L287.19 487.94L283.29 487.6L279.44 487.21L275.66 486.78L271.94 486.31L268.29 485.79L264.72 485.23L261.23 484.62L257.82 483.97L254.5 483.27L251.28 482.52L248.15 481.73L245.12 480.89L242.2 480L239.38 479.07L236.69 478.08L234.11 477.04L231.65 475.96L229.32 474.82L227.12 473.64L225.06 472.4L223.14 471.11L221.36 469.77L219.73 468.38L218.26 466.93L216.94 465.43L215.78 463.87L214.79 462.26L213.97 460.59L213.32 458.87L212.86 457.1L212.58 455.26L212.48 453.37L212.57 451.49L212.85 449.68L213.31 447.95L213.93 446.29L214.72 444.7L215.66 443.18L216.74 441.73L217.97 440.34L219.32 439.03L220.8 437.77L222.39 436.58L224.09 435.44L225.89 434.37L227.78 433.36L229.76 432.4L231.81 431.5L233.94 430.65L236.12 429.85L238.36 429.11L240.64 428.41L242.96 427.76L245.31 427.16L247.69 426.6L250.08 426.09L252.48 425.62L254.88 425.19L257.27 424.8L259.65 424.45L262 424.13L264.32 423.85L266.6 423.6L268.84 423.39L271.02 423.2L273.15 423.05L275.2 422.92L277.18 422.82L279.07 422.74L280.87 422.69L282.57 422.66L284.16 422.65L285.54 417.85L291.52 397.05L166.24 397.05L165.12 397.04L164.04 397.01L162.99 396.96L161.99 396.89L161.02 396.8L160.08 396.69L159.18 396.55L158.32 396.4L157.49 396.22L156.7 396.01L155.94 395.78L155.21 395.53L154.52 395.25L153.85 394.95L153.22 394.61L152.62 394.26L152.05 393.87L151.5 393.46L150.99 393.02L150.5 392.55L150.05 392.05L149.62 391.52L149.22 390.96L148.84 390.36L148.49 389.74L148.16 389.09L147.86 388.4L147.58 387.68L147.33 386.92L147.1 386.13L146.89 385.31L146.7 384.45L146.54 383.56L146.39 382.63L146.27 381.66L146.16 380.65L146.07 379.61L146 378.53L145.95 377.41L145.92 376.25L145.92 182.01L145.93 180.88L145.96 179.78L146.01 178.72L146.08 177.7L146.17 176.72L146.28 175.77L146.42 174.86L146.57 173.98L146.75 173.14L146.95 172.33L147.18 171.55L147.43 170.81L147.71 170.1L148.01 169.43L148.33 168.78L148.68 168.17L149.06 167.58L149.47 167.03L149.9 166.5L150.36 166.01L150.85 165.54L151.36 165.11L151.91 164.7L152.49 164.32L153.09 163.96L153.73 163.63L154.39 163.33L155.09 163.05L155.82 162.8L156.58 162.57L157.38 162.37L158.21 162.19L159.07 162.03L159.97 161.89L160.9 161.78L161.86 161.69L162.86 161.62L163.9 161.57L164.97 161.54L166.08 161.53L473.6 161.53L474.73 161.54L475.83 161.57ZM175.5 187.17L175.33 187.21L175.16 187.26L174.99 187.32L174.83 187.38L174.66 187.45L174.5 187.52L174.34 187.61L174.19 187.69L174.03 187.78L173.88 187.88L173.74 187.98L173.59 188.09L173.45 188.2L173.06 188.56L172.94 188.69L172.82 188.83L172.7 188.96L172.59 189.1L172.48 189.25L172.38 189.39L172.29 189.54L172.19 189.7L172.11 189.85L172.03 190.01L171.95 190.18L171.88 190.34L171.82 190.51L171.76 190.67L171.71 190.84L171.66 191.01L171.62 191.19L171.59 191.36L171.56 191.54L171.54 191.71L171.53 191.89L171.52 192.07L171.52 366.53L171.56 366.93L171.59 367.12L171.63 367.32L171.68 367.51L171.73 367.7L171.87 368.08L171.94 368.26L172.03 368.44L172.12 368.62L172.22 368.79L172.32 368.96L172.43 369.13L172.55 369.29L172.67 369.45L172.8 369.6L172.94 369.75L173.07 369.9L173.22 370.03L173.37 370.17L173.52 370.3L173.68 370.42L173.84 370.54L174.01 370.65L174.35 370.85L174.53 370.94L174.71 371.03L174.89 371.1L175.08 371.17L175.27 371.24L175.65 371.34L175.85 371.38L176.04 371.41L176.24 371.43L176.44 371.45L463.56 371.45L463.76 371.43L463.96 371.41L464.15 371.38L464.35 371.34L464.73 371.24L465.11 371.1L465.29 371.03L465.47 370.94L465.65 370.85L465.99 370.65L466.16 370.54L466.48 370.3L466.63 370.17L466.78 370.03L466.93 369.9L467.06 369.75L467.2 369.6L467.33 369.45L467.45 369.29L467.57 369.13L467.68 368.96L467.78 368.79L467.88 368.62L467.97 368.44L468.06 368.26L468.13 368.08L468.27 367.7L468.32 367.51L468.37 367.32L468.41 367.12L468.44 366.93L468.48 366.53L468.48 192.05L468.44 191.65L468.41 191.46L468.37 191.26L468.27 190.88L468.13 190.5L468.06 190.32L467.97 190.14L467.88 189.96L467.68 189.62L467.57 189.45L467.45 189.29L467.33 189.13L467.2 188.98L467.06 188.83L466.93 188.68L466.78 188.55L466.63 188.41L466.48 188.28L466.16 188.04L465.99 187.93L465.82 187.83L465.65 187.73L465.29 187.55L465.11 187.48L464.73 187.34L464.54 187.29L464.35 187.24L464.15 187.2L463.96 187.17L463.56 187.13L175.68 187.13L175.5 187.17Z" id="a3ZmREzxEe"></path><path d="M475.83 161.57L476.89 161.62L477.91 161.69L478.9 161.77L479.85 161.89L480.76 162.02L481.64 162.17L482.48 162.35L483.29 162.55L484.07 162.77L484.81 163.02L485.52 163.3L486.19 163.59L486.84 163.92L487.45 164.27L488.04 164.65L488.59 165.05L489.11 165.48L489.61 165.94L490.07 166.43L490.51 166.95L490.92 167.5L491.3 168.08L491.66 168.69L491.98 169.33L492.29 170L492.56 170.7L492.82 171.44L493.04 172.21L493.25 173.01L493.43 173.85L493.58 174.73L493.72 175.63L493.83 176.58L493.92 177.56L493.99 178.57L494.04 179.63L494.07 180.72L494.08 181.85L494.08 376.57L494.07 377.62L494.04 378.64L493.99 379.63L493.92 380.59L493.83 381.52L493.72 382.42L493.58 383.3L493.42 384.14L493.24 384.96L493.03 385.75L492.8 386.51L492.55 387.24L492.26 387.95L491.96 388.63L491.62 389.28L491.26 389.9L490.87 390.5L490.46 391.07L490.01 391.61L489.54 392.12L489.03 392.61L488.5 393.08L487.94 393.51L487.34 393.92L486.71 394.31L486.05 394.66L485.36 395L484.63 395.3L483.87 395.59L483.08 395.84L482.25 396.07L481.38 396.28L480.48 396.46L479.54 396.62L478.57 396.75L477.56 396.86L476.5 396.94L475.42 397L474.29 397.04L473.12 397.05L348.48 397.05L355.84 422.65L357.43 422.66L359.13 422.69L360.93 422.74L362.82 422.82L364.8 422.92L366.85 423.05L368.98 423.2L371.16 423.39L373.4 423.6L375.68 423.85L378 424.13L380.35 424.45L382.73 424.8L385.12 425.19L387.52 425.62L389.92 426.09L392.31 426.6L394.69 427.16L397.04 427.76L399.36 428.41L401.64 429.11L403.88 429.85L406.06 430.65L408.19 431.5L410.24 432.4L412.22 433.36L414.11 434.37L415.91 435.44L417.61 436.58L419.2 437.77L420.68 439.03L422.03 440.34L423.26 441.73L424.34 443.18L425.28 444.7L426.07 446.29L426.69 447.95L427.15 449.68L427.43 451.49L427.52 453.37L427.42 455.26L427.14 457.1L426.68 458.87L426.03 460.59L425.21 462.26L424.22 463.87L423.06 465.43L421.74 466.93L420.27 468.38L418.64 469.77L416.86 471.11L414.94 472.4L412.88 473.64L410.68 474.82L408.35 475.96L405.89 477.04L403.31 478.08L400.62 479.07L397.8 480L394.88 480.89L391.85 481.73L388.72 482.52L385.5 483.27L382.18 483.97L378.77 484.62L375.28 485.23L371.71 485.79L368.06 486.31L364.34 486.78L360.56 487.21L356.71 487.6L352.81 487.94L348.85 488.24L344.84 488.5L340.79 488.72L336.7 488.9L332.57 489.04L328.4 489.13L324.21 489.19L320 489.21L315.79 489.19L311.6 489.13L307.43 489.04L303.3 488.9L299.21 488.72L295.16 488.5L291.15 488.24L287.19 487.94L283.29 487.6L279.44 487.21L275.66 486.78L271.94 486.31L268.29 485.79L264.72 485.23L261.23 484.62L257.82 483.97L254.5 483.27L251.28 482.52L248.15 481.73L245.12 480.89L242.2 480L239.38 479.07L236.69 478.08L234.11 477.04L231.65 475.96L229.32 474.82L227.12 473.64L225.06 472.4L223.14 471.11L221.36 469.77L219.73 468.38L218.26 466.93L216.94 465.43L215.78 463.87L214.79 462.26L213.97 460.59L213.32 458.87L212.86 457.1L212.58 455.26L212.48 453.37L212.57 451.49L212.85 449.68L213.31 447.95L213.93 446.29L214.72 444.7L215.66 443.18L216.74 441.73L217.97 440.34L219.32 439.03L220.8 437.77L222.39 436.58L224.09 435.44L225.89 434.37L227.78 433.36L229.76 432.4L231.81 431.5L233.94 430.65L236.12 429.85L238.36 429.11L240.64 428.41L242.96 427.76L245.31 427.16L247.69 426.6L250.08 426.09L252.48 425.62L254.88 425.19L257.27 424.8L259.65 424.45L262 424.13L264.32 423.85L266.6 423.6L268.84 423.39L271.02 423.2L273.15 423.05L275.2 422.92L277.18 422.82L279.07 422.74L280.87 422.69L282.57 422.66L284.16 422.65L285.54 417.85L291.52 397.05L166.24 397.05L165.12 397.04L164.04 397.01L162.99 396.96L161.99 396.89L161.02 396.8L160.08 396.69L159.18 396.55L158.32 396.4L157.49 396.22L156.7 396.01L155.94 395.78L155.21 395.53L154.52 395.25L153.85 394.95L153.22 394.61L152.62 394.26L152.05 393.87L151.5 393.46L150.99 393.02L150.5 392.55L150.05 392.05L149.62 391.52L149.22 390.96L148.84 390.36L148.49 389.74L148.16 389.09L147.86 388.4L147.58 387.68L147.33 386.92L147.1 386.13L146.89 385.31L146.7 384.45L146.54 383.56L146.39 382.63L146.27 381.66L146.16 380.65L146.07 379.61L146 378.53L145.95 377.41L145.92 376.25L145.92 182.01L145.93 180.88L145.96 179.78L146.01 178.72L146.08 177.7L146.17 176.72L146.28 175.77L146.42 174.86L146.57 173.98L146.75 173.14L146.95 172.33L147.18 171.55L147.43 170.81L147.71 170.1L148.01 169.43L148.33 168.78L148.68 168.17L149.06 167.58L149.47 167.03L149.9 166.5L150.36 166.01L150.85 165.54L151.36 165.11L151.91 164.7L152.49 164.32L153.09 163.96L153.73 163.63L154.39 163.33L155.09 163.05L155.82 162.8L156.58 162.57L157.38 162.37L158.21 162.19L159.07 162.03L159.97 161.89L160.9 161.78L161.86 161.69L162.86 161.62L163.9 161.57L164.97 161.54L166.08 161.53L473.6 161.53L474.73 161.54L475.83 161.57ZM175.5 187.17L175.33 187.21L175.16 187.26L174.99 187.32L174.83 187.38L174.66 187.45L174.5 187.52L174.34 187.61L174.19 187.69L174.03 187.78L173.88 187.88L173.74 187.98L173.59 188.09L173.45 188.2L173.06 188.56L172.94 188.69L172.82 188.83L172.7 188.96L172.59 189.1L172.48 189.25L172.38 189.39L172.29 189.54L172.19 189.7L172.11 189.85L172.03 190.01L171.95 190.18L171.88 190.34L171.82 190.51L171.76 190.67L171.71 190.84L171.66 191.01L171.62 191.19L171.59 191.36L171.56 191.54L171.54 191.71L171.53 191.89L171.52 192.07L171.52 366.53L171.56 366.93L171.59 367.12L171.63 367.32L171.68 367.51L171.73 367.7L171.87 368.08L171.94 368.26L172.03 368.44L172.12 368.62L172.22 368.79L172.32 368.96L172.43 369.13L172.55 369.29L172.67 369.45L172.8 369.6L172.94 369.75L173.07 369.9L173.22 370.03L173.37 370.17L173.52 370.3L173.68 370.42L173.84 370.54L174.01 370.65L174.35 370.85L174.53 370.94L174.71 371.03L174.89 371.1L175.08 371.17L175.27 371.24L175.65 371.34L175.85 371.38L176.04 371.41L176.24 371.43L176.44 371.45L463.56 371.45L463.76 371.43L463.96 371.41L464.15 371.38L464.35 371.34L464.73 371.24L465.11 371.1L465.29 371.03L465.47 370.94L465.65 370.85L465.99 370.65L466.16 370.54L466.48 370.3L466.63 370.17L466.78 370.03L466.93 369.9L467.06 369.75L467.2 369.6L467.33 369.45L467.45 369.29L467.57 369.13L467.68 368.96L467.78 368.79L467.88 368.62L467.97 368.44L468.06 368.26L468.13 368.08L468.27 367.7L468.32 367.51L468.37 367.32L468.41 367.12L468.44 366.93L468.48 366.53L468.48 192.05L468.44 191.65L468.41 191.46L468.37 191.26L468.27 190.88L468.13 190.5L468.06 190.32L467.97 190.14L467.88 189.96L467.68 189.62L467.57 189.45L467.45 189.29L467.33 189.13L467.2 188.98L467.06 188.83L466.93 188.68L466.78 188.55L466.63 188.41L466.48 188.28L466.16 188.04L465.99 187.93L465.82 187.83L465.65 187.73L465.29 187.55L465.11 187.48L464.73 187.34L464.54 187.29L464.35 187.24L464.15 187.2L463.96 187.17L463.56 187.13L175.68 187.13L175.5 187.17Z" id="d1rvruUwR2"></path></defs><g><g><g><use xlink:href="#a3ZmREzxEe" opacity="1" fill="#000000" fill-opacity="1"></use><g><use xlink:href="#a3ZmREzxEe" opacity="1" fill-opacity="0" stroke="#000000" stroke-width="1" stroke-opacity="0"></use></g></g><g><use xlink:href="#d1rvruUwR2" opacity="1" fill="#000000" fill-opacity="0"></use><g><use xlink:href="#d1rvruUwR2" opacity="1" fill-opacity="0" stroke="#000000" stroke-width="1" stroke-opacity="0"></use></g></g></g></g></svg>