<?xml version="1.0" encoding="UTF-8" standalone="no"?>
<!DOCTYPE svg PUBLIC "-//W3C//DTD SVG 1.1//EN" "http://www.w3.org/Graphics/SVG/1.1/DTD/svg11.dtd">
<svg version="1.1" xmlns="http://www.w3.org/2000/svg" xmlns:xlink="http://www.w3.org/1999/xlink" preserveAspectRatio="xMidYMid meet" viewBox="0 0 640 640" width="640" height="640"><defs><path d="M284.02 359.91C284.02 366.05 284.02 369.47 284.02 370.15C284.02 370.15 284.02 370.15 284.02 370.15C210.29 370.15 169.33 370.15 161.14 370.15C161.14 370.15 161.14 370.15 161.14 370.15C161.14 364.01 161.14 360.59 161.14 359.91C161.14 359.91 161.14 359.91 161.14 359.91C234.87 359.91 275.83 359.91 284.02 359.91C284.02 359.91 284.02 359.91 284.02 359.91Z" id="eRAevZjNo"></path><path d="M284.02 359.91C284.02 366.05 284.02 369.47 284.02 370.15C284.02 370.15 284.02 370.15 284.02 370.15C210.29 370.15 169.33 370.15 161.14 370.15C161.14 370.15 161.14 370.15 161.14 370.15C161.14 364.01 161.14 360.59 161.14 359.91C161.14 359.91 161.14 359.91 161.14 359.91C234.87 359.91 275.83 359.91 284.02 359.91C284.02 359.91 284.02 359.91 284.02 359.91Z" id="d4ZvlE33ep"></path><path d="M335.22 380.39C335.22 386.53 335.22 389.95 335.22 390.63C335.22 390.63 335.22 390.63 335.22 390.63C230.77 390.63 172.75 390.63 161.14 390.63C161.14 390.63 161.14 390.63 161.14 390.63C161.14 384.49 161.14 381.07 161.14 380.39C161.14 380.39 161.14 380.39 161.14 380.39C265.59 380.39 323.61 380.39 335.22 380.39C335.22 380.39 335.22 380.39 335.22 380.39Z" id="aDHty9I0R"></path><path d="M161.14 242.97L161.14 333.49L238.08 288.23L161.14 242.97Z" id="a177O5UI7C"></path><path d="M171.24 237.03L248.18 282.29L325.12 237.03L171.24 237.03Z" id="a48DxKjBvl"></path><path d="M335.22 333.49L335.22 242.97L258.28 288.23L335.22 333.49Z" id="a1r5nw3EHk"></path><path d="M502.86 237.03L362.35 237.03L432.61 335.83L502.86 237.03Z" id="a3yH90GZFZ"></path><path d="M314.74 400.87C314.74 407.01 314.74 410.43 314.74 411.11C314.74 411.11 314.74 411.11 314.74 411.11C222.58 411.11 171.38 411.11 161.14 411.11C161.14 411.11 161.14 411.11 161.14 411.11C161.14 404.97 161.14 401.55 161.14 400.87C161.14 400.87 161.14 400.87 161.14 400.87C253.3 400.87 304.5 400.87 314.74 400.87C314.74 400.87 314.74 400.87 314.74 400.87Z" id="cevtPwUW6"></path><path d="M324.98 421.35C324.98 427.49 324.98 430.91 324.98 431.59C324.98 431.59 324.98 431.59 324.98 431.59C226.68 431.59 172.06 431.59 161.14 431.59C161.14 431.59 161.14 431.59 161.14 431.59C161.14 425.45 161.14 422.03 161.14 421.35C161.14 421.35 161.14 421.35 161.14 421.35C259.44 421.35 314.06 421.35 324.98 421.35C324.98 421.35 324.98 421.35 324.98 421.35Z" id="b1gDWOvyja"></path><path d="M243.06 441.83C243.06 447.97 243.06 451.39 243.06 452.07C243.06 452.07 243.06 452.07 243.06 452.07C193.91 452.07 166.6 452.07 161.14 452.07C161.14 452.07 161.14 452.07 161.14 452.07C161.14 445.93 161.14 442.51 161.14 441.83C161.14 441.83 161.14 441.83 161.14 441.83C210.29 441.83 237.6 441.83 243.06 441.83C243.06 441.83 243.06 441.83 243.06 441.83Z" id="a2hzK6Ynep"></path><path d="M130.42 482.79L130.42 175.59L540.02 175.59L540.02 482.79L130.42 482.79ZM140.66 472.55L529.78 472.55L529.78 216.55L140.66 216.55L140.66 472.55ZM166.26 206.31L166.26 185.83L150.9 196.07L166.26 206.31ZM196.98 196.07L181.62 185.83L181.62 206.31L196.98 196.07Z" id="a1zFUhRpHb"></path><path d="M335.22 333.49L335.22 242.97L258.28 288.23L335.22 333.49Z" id="c4WzCsrZJR"></path><path d="M171.24 237.03L248.18 282.29L325.12 237.03L171.24 237.03Z" id="c2LLxBGnMM"></path><path d="M325.12 339.43L248.18 294.17L171.24 339.43L325.12 339.43Z" id="hKoRvE5g9"></path><path d="M161.14 242.97L161.14 333.49L238.08 288.23L161.14 242.97Z" id="h16NXMNhFi"></path><path d="M355.7 443.97L426.33 344.66L355.7 245.35L355.7 443.97Z" id="c36v4Q7OvL"></path><path d="M324.98 421.35C324.98 427.49 324.98 430.91 324.98 431.59C324.98 431.59 324.98 431.59 324.98 431.59C226.68 431.59 172.06 431.59 161.14 431.59C161.14 431.59 161.14 431.59 161.14 431.59C161.14 425.45 161.14 422.03 161.14 421.35C161.14 421.35 161.14 421.35 161.14 421.35C259.44 421.35 314.06 421.35 324.98 421.35C324.98 421.35 324.98 421.35 324.98 421.35Z" id="a1BfNSpdTU"></path><path d="M314.74 400.87C314.74 407.01 314.74 410.43 314.74 411.11C314.74 411.11 314.74 411.11 314.74 411.11C222.58 411.11 171.38 411.11 161.14 411.11C161.14 411.11 161.14 411.11 161.14 411.11C161.14 404.97 161.14 401.55 161.14 400.87C161.14 400.87 161.14 400.87 161.14 400.87C253.3 400.87 304.5 400.87 314.74 400.87C314.74 400.87 314.74 400.87 314.74 400.87Z" id="aNtEFhdBT"></path><path d="M325.12 339.43L248.18 294.17L171.24 339.43L325.12 339.43Z" id="c1DHCO7J7b"></path><path d="M355.7 443.97L426.33 344.66L355.7 245.35L355.7 443.97Z" id="a1qvg0oeon"></path><path d="M502.86 237.03L362.35 237.03L432.61 335.83L502.86 237.03Z" id="c3FZMy5OUl"></path><path d="M335.22 380.39C335.22 386.53 335.22 389.95 335.22 390.63C335.22 390.63 335.22 390.63 335.22 390.63C230.77 390.63 172.75 390.63 161.14 390.63C161.14 390.63 161.14 390.63 161.14 390.63C161.14 384.49 161.14 381.07 161.14 380.39C161.14 380.39 161.14 380.39 161.14 380.39C265.59 380.39 323.61 380.39 335.22 380.39C335.22 380.39 335.22 380.39 335.22 380.39Z" id="a1kBhytcfL"></path><path d="M509.3 245.65L438.89 344.66L509.3 443.67L509.3 245.65Z" id="cJEAmfCBO"></path><path d="M509.3 245.65L438.89 344.66L509.3 443.67L509.3 245.65Z" id="a1F2tRx3L2"></path><path d="M502.71 452.07L432.61 353.49L362.5 452.07L502.71 452.07Z" id="e8rloReF1"></path><path d="M502.71 452.07L432.61 353.49L362.5 452.07L502.71 452.07Z" id="d9al9wD1C"></path><path d="M243.06 441.83C243.06 447.97 243.06 451.39 243.06 452.07C243.06 452.07 243.06 452.07 243.06 452.07C193.91 452.07 166.6 452.07 161.14 452.07C161.14 452.07 161.14 452.07 161.14 452.07C161.14 445.93 161.14 442.51 161.14 441.83C161.14 441.83 161.14 441.83 161.14 441.83C210.29 441.83 237.6 441.83 243.06 441.83C243.06 441.83 243.06 441.83 243.06 441.83Z" id="a1hihRs9W9"></path></defs><g><g><g><use xlink:href="#eRAevZjNo" opacity="1" fill="#000000" fill-opacity="1"></use><g><use xlink:href="#eRAevZjNo" opacity="1" fill-opacity="0" stroke="#000000" stroke-width="1" stroke-opacity="0"></use></g></g><g><use xlink:href="#d4ZvlE33ep" opacity="1" fill="#000000" fill-opacity="0"></use><g><use xlink:href="#d4ZvlE33ep" opacity="1" fill-opacity="0" stroke="#000000" stroke-width="1" stroke-opacity="0"></use></g></g><g><use xlink:href="#aDHty9I0R" opacity="1" fill="#000000" fill-opacity="1"></use><g><use xlink:href="#aDHty9I0R" opacity="1" fill-opacity="0" stroke="#000000" stroke-width="1" stroke-opacity="0"></use></g></g><g><use xlink:href="#a177O5UI7C" opacity="1" fill="#000000" fill-opacity="0"></use><g><use xlink:href="#a177O5UI7C" opacity="1" fill-opacity="0" stroke="#000000" stroke-width="1" stroke-opacity="0"></use></g></g><g><use xlink:href="#a48DxKjBvl" opacity="1" fill="#000000" fill-opacity="0"></use><g><use xlink:href="#a48DxKjBvl" opacity="1" fill-opacity="0" stroke="#000000" stroke-width="1" stroke-opacity="0"></use></g></g><g><use xlink:href="#a1r5nw3EHk" opacity="1" fill="#000000" fill-opacity="0"></use><g><use xlink:href="#a1r5nw3EHk" opacity="1" fill-opacity="0" stroke="#000000" stroke-width="1" stroke-opacity="0"></use></g></g><g><use xlink:href="#a3yH90GZFZ" opacity="1" fill="#000000" fill-opacity="0"></use><g><use xlink:href="#a3yH90GZFZ" opacity="1" fill-opacity="0" stroke="#000000" stroke-width="1" stroke-opacity="0"></use></g></g><g><use xlink:href="#cevtPwUW6" opacity="1" fill="#000000" fill-opacity="1"></use><g><use xlink:href="#cevtPwUW6" opacity="1" fill-opacity="0" stroke="#000000" stroke-width="1" stroke-opacity="0"></use></g></g><g><use xlink:href="#b1gDWOvyja" opacity="1" fill="#000000" fill-opacity="1"></use><g><use xlink:href="#b1gDWOvyja" opacity="1" fill-opacity="0" stroke="#000000" stroke-width="1" stroke-opacity="0"></use></g></g><g><use xlink:href="#a2hzK6Ynep" opacity="1" fill="#000000" fill-opacity="1"></use><g><use xlink:href="#a2hzK6Ynep" opacity="1" fill-opacity="0" stroke="#000000" stroke-width="1" stroke-opacity="0"></use></g></g><g><use xlink:href="#a1zFUhRpHb" opacity="1" fill="#000000" fill-opacity="1"></use><g><use xlink:href="#a1zFUhRpHb" opacity="1" fill-opacity="0" stroke="#000000" stroke-width="1" stroke-opacity="0"></use></g></g><g><use xlink:href="#c4WzCsrZJR" opacity="1" fill="#000000" fill-opacity="1"></use><g><use xlink:href="#c4WzCsrZJR" opacity="1" fill-opacity="0" stroke="#000000" stroke-width="1" stroke-opacity="0"></use></g></g><g><use xlink:href="#c2LLxBGnMM" opacity="1" fill="#000000" fill-opacity="1"></use><g><use xlink:href="#c2LLxBGnMM" opacity="1" fill-opacity="0" stroke="#000000" stroke-width="1" stroke-opacity="0"></use></g></g><g><use xlink:href="#hKoRvE5g9" opacity="1" fill="#000000" fill-opacity="1"></use><g><use xlink:href="#hKoRvE5g9" opacity="1" fill-opacity="0" stroke="#000000" stroke-width="1" stroke-opacity="0"></use></g></g><g><use xlink:href="#h16NXMNhFi" opacity="1" fill="#000000" fill-opacity="1"></use><g><use xlink:href="#h16NXMNhFi" opacity="1" fill-opacity="0" stroke="#000000" stroke-width="1" stroke-opacity="0"></use></g></g><g><use xlink:href="#c36v4Q7OvL" opacity="1" fill="#000000" fill-opacity="1"></use><g><use xlink:href="#c36v4Q7OvL" opacity="1" fill-opacity="0" stroke="#000000" stroke-width="1" stroke-opacity="0"></use></g></g><g><use xlink:href="#a1BfNSpdTU" opacity="1" fill="#000000" fill-opacity="0"></use><g><use xlink:href="#a1BfNSpdTU" opacity="1" fill-opacity="0" stroke="#000000" stroke-width="1" stroke-opacity="0"></use></g></g><g><use xlink:href="#aNtEFhdBT" opacity="1" fill="#000000" fill-opacity="0"></use><g><use xlink:href="#aNtEFhdBT" opacity="1" fill-opacity="0" stroke="#000000" stroke-width="1" stroke-opacity="0"></use></g></g><g><use xlink:href="#c1DHCO7J7b" opacity="1" fill="#000000" fill-opacity="0"></use><g><use xlink:href="#c1DHCO7J7b" opacity="1" fill-opacity="0" stroke="#000000" stroke-width="1" stroke-opacity="0"></use></g></g><g><use xlink:href="#a1qvg0oeon" opacity="1" fill="#000000" fill-opacity="0"></use><g><use xlink:href="#a1qvg0oeon" opacity="1" fill-opacity="0" stroke="#000000" stroke-width="1" stroke-opacity="0"></use></g></g><g><use xlink:href="#c3FZMy5OUl" opacity="1" fill="#000000" fill-opacity="1"></use><g><use xlink:href="#c3FZMy5OUl" opacity="1" fill-opacity="0" stroke="#000000" stroke-width="1" stroke-opacity="0"></use></g></g><g><use xlink:href="#a1kBhytcfL" opacity="1" fill="#000000" fill-opacity="0"></use><g><use xlink:href="#a1kBhytcfL" opacity="1" fill-opacity="0" stroke="#000000" stroke-width="1" stroke-opacity="0"></use></g></g><g><use xlink:href="#cJEAmfCBO" opacity="1" fill="#000000" fill-opacity="1"></use><g><use xlink:href="#cJEAmfCBO" opacity="1" fill-opacity="0" stroke="#000000" stroke-width="1" stroke-opacity="0"></use></g></g><g><use xlink:href="#a1F2tRx3L2" opacity="1" fill="#000000" fill-opacity="0"></use><g><use xlink:href="#a1F2tRx3L2" opacity="1" fill-opacity="0" stroke="#000000" stroke-width="1" stroke-opacity="0"></use></g></g><g><use xlink:href="#e8rloReF1" opacity="1" fill="#000000" fill-opacity="1"></use><g><use xlink:href="#e8rloReF1" opacity="1" fill-opacity="0" stroke="#000000" stroke-width="1" stroke-opacity="0"></use></g></g><g><use xlink:href="#d9al9wD1C" opacity="1" fill="#000000" fill-opacity="0"></use><g><use xlink:href="#d9al9wD1C" opacity="1" fill-opacity="0" stroke="#000000" stroke-width="1" stroke-opacity="0"></use></g></g><g><use xlink:href="#a1hihRs9W9" opacity="1" fill="#000000" fill-opacity="0"></use><g><use xlink:href="#a1hihRs9W9" opacity="1" fill-opacity="0" stroke="#000000" stroke-width="1" stroke-opacity="0"></use></g></g></g></g></svg>