<?xml version="1.0" encoding="UTF-8" standalone="no"?>
<!DOCTYPE svg PUBLIC "-//W3C//DTD SVG 1.1//EN" "http://www.w3.org/Graphics/SVG/1.1/DTD/svg11.dtd">
<svg version="1.1" xmlns="http://www.w3.org/2000/svg" xmlns:xlink="http://www.w3.org/1999/xlink" preserveAspectRatio="xMidYMid meet" viewBox="0 0 640 640" width="640" height="640"><defs><path d="M268.8 286.72C268.8 286.72 268.8 286.72 268.8 286.72C268.8 292.86 268.8 296.28 268.8 296.96C268.8 296.96 268.8 296.96 268.8 296.96C195.07 296.96 154.11 296.96 145.92 296.96C145.92 296.96 145.92 296.96 145.92 296.96C145.92 290.82 145.92 287.4 145.92 286.72C145.92 286.72 145.92 286.72 145.92 286.72C219.65 286.72 260.61 286.72 268.8 286.72Z" id="m4rIbFoIF7"></path><path d="M320 307.2C320 307.2 320 307.2 320 307.2C320 313.34 320 316.76 320 317.44C320 317.44 320 317.44 320 317.44C215.55 317.44 157.53 317.44 145.92 317.44C145.92 317.44 145.92 317.44 145.92 317.44C145.92 311.3 145.92 307.88 145.92 307.2C145.92 307.2 145.92 307.2 145.92 307.2C250.37 307.2 308.39 307.2 320 307.2Z" id="e52v20NJTp"></path><path d="M299.52 327.68C299.52 327.68 299.52 327.68 299.52 327.68C299.52 333.82 299.52 337.24 299.52 337.92C299.52 337.92 299.52 337.92 299.52 337.92C207.36 337.92 156.16 337.92 145.92 337.92C145.92 337.92 145.92 337.92 145.92 337.92C145.92 331.78 145.92 328.36 145.92 327.68C145.92 327.68 145.92 327.68 145.92 327.68C238.08 327.68 289.28 327.68 299.52 327.68Z" id="d15j9MiS56"></path><path d="M309.76 348.16C309.76 348.16 309.76 348.16 309.76 348.16C309.76 354.3 309.76 357.72 309.76 358.4C309.76 358.4 309.76 358.4 309.76 358.4C211.46 358.4 156.84 358.4 145.92 358.4C145.92 358.4 145.92 358.4 145.92 358.4C145.92 352.26 145.92 348.84 145.92 348.16C145.92 348.16 145.92 348.16 145.92 348.16C244.22 348.16 298.84 348.16 309.76 348.16Z" id="c2VmdSMks2"></path><path d="M227.84 368.64C227.84 368.64 227.84 368.64 227.84 368.64C227.84 374.78 227.84 378.2 227.84 378.88C227.84 378.88 227.84 378.88 227.84 378.88C178.69 378.88 151.38 378.88 145.92 378.88C145.92 378.88 145.92 378.88 145.92 378.88C145.92 372.74 145.92 369.32 145.92 368.64C145.92 368.64 145.92 368.64 145.92 368.64C195.07 368.64 222.38 368.64 227.84 368.64Z" id="b4FjFOqHGu"></path><path d="M115.2 409.6L115.2 102.4L524.8 102.4L524.8 409.6L115.2 409.6ZM125.44 399.36L514.56 399.36L514.56 143.36L125.44 143.36L125.44 399.36ZM181.76 122.88L166.4 112.64L166.4 133.12L181.76 122.88ZM151.04 133.12L151.04 112.64L135.68 122.88L151.04 133.12Z" id="b9N1e7v0r4"></path><path d="M243.06 215.04L320 260.3L320 169.78L243.06 215.04Z" id="c4gRjekne2"></path><path d="M309.9 163.84L156.02 163.84L232.96 209.1L309.9 163.84Z" id="fjYMlcMjE"></path><path d="M156.02 266.24L309.9 266.24L232.96 220.98L156.02 266.24Z" id="bFaslY1SL"></path><path d="M222.86 215.04L145.92 169.78L145.92 260.3L222.86 215.04Z" id="cce5tWwpB"></path><path d="M340.48 172.16L340.48 370.78L411.11 271.47L340.48 172.16Z" id="i3siOAL7K"></path><path d="M417.39 262.64L487.64 163.84L347.13 163.84L417.39 262.64Z" id="apyDt664J"></path><path d="M494.08 370.48L494.08 172.46L423.67 271.47L494.08 370.48Z" id="b9xSFbWrc"></path><path d="M347.28 378.88L487.49 378.88L417.39 280.3L347.28 378.88Z" id="ayJVCubsR"></path></defs><g><g><g><use xlink:href="#m4rIbFoIF7" opacity="1" fill="#000000" fill-opacity="1"></use><g><use xlink:href="#m4rIbFoIF7" opacity="1" fill-opacity="0" stroke="#000000" stroke-width="1" stroke-opacity="0"></use></g></g><g><use xlink:href="#e52v20NJTp" opacity="1" fill="#000000" fill-opacity="1"></use><g><use xlink:href="#e52v20NJTp" opacity="1" fill-opacity="0" stroke="#000000" stroke-width="1" stroke-opacity="0"></use></g></g><g><use xlink:href="#d15j9MiS56" opacity="1" fill="#000000" fill-opacity="1"></use><g><use xlink:href="#d15j9MiS56" opacity="1" fill-opacity="0" stroke="#000000" stroke-width="1" stroke-opacity="0"></use></g></g><g><use xlink:href="#c2VmdSMks2" opacity="1" fill="#000000" fill-opacity="1"></use><g><use xlink:href="#c2VmdSMks2" opacity="1" fill-opacity="0" stroke="#000000" stroke-width="1" stroke-opacity="0"></use></g></g><g><use xlink:href="#b4FjFOqHGu" opacity="1" fill="#000000" fill-opacity="1"></use><g><use xlink:href="#b4FjFOqHGu" opacity="1" fill-opacity="0" stroke="#000000" stroke-width="1" stroke-opacity="0"></use></g></g><g><use xlink:href="#b9N1e7v0r4" opacity="1" fill="#000000" fill-opacity="1"></use><g><use xlink:href="#b9N1e7v0r4" opacity="1" fill-opacity="0" stroke="#000000" stroke-width="1" stroke-opacity="0"></use></g></g><g><use xlink:href="#c4gRjekne2" opacity="1" fill="#000000" fill-opacity="1"></use><g><use xlink:href="#c4gRjekne2" opacity="1" fill-opacity="0" stroke="#000000" stroke-width="1" stroke-opacity="0"></use></g></g><g><use xlink:href="#fjYMlcMjE" opacity="1" fill="#000000" fill-opacity="1"></use><g><use xlink:href="#fjYMlcMjE" opacity="1" fill-opacity="0" stroke="#000000" stroke-width="1" stroke-opacity="0"></use></g></g><g><use xlink:href="#bFaslY1SL" opacity="1" fill="#000000" fill-opacity="1"></use><g><use xlink:href="#bFaslY1SL" opacity="1" fill-opacity="0" stroke="#000000" stroke-width="1" stroke-opacity="0"></use></g></g><g><use xlink:href="#cce5tWwpB" opacity="1" fill="#000000" fill-opacity="1"></use><g><use xlink:href="#cce5tWwpB" opacity="1" fill-opacity="0" stroke="#000000" stroke-width="1" stroke-opacity="0"></use></g></g><g><use xlink:href="#i3siOAL7K" opacity="1" fill="#000000" fill-opacity="1"></use><g><use xlink:href="#i3siOAL7K" opacity="1" fill-opacity="0" stroke="#000000" stroke-width="1" stroke-opacity="0"></use></g></g><g><use xlink:href="#apyDt664J" opacity="1" fill="#000000" fill-opacity="1"></use><g><use xlink:href="#apyDt664J" opacity="1" fill-opacity="0" stroke="#000000" stroke-width="1" stroke-opacity="0"></use></g></g><g><use xlink:href="#b9xSFbWrc" opacity="1" fill="#000000" fill-opacity="1"></use><g><use xlink:href="#b9xSFbWrc" opacity="1" fill-opacity="0" stroke="#000000" stroke-width="1" stroke-opacity="0"></use></g></g><g><use xlink:href="#ayJVCubsR" opacity="1" fill="#000000" fill-opacity="1"></use><g><use xlink:href="#ayJVCubsR" opacity="1" fill-opacity="0" stroke="#000000" stroke-width="1" stroke-opacity="0"></use></g></g></g></g></svg>