<?xml version="1.0" encoding="UTF-8" standalone="no"?>
<!DOCTYPE svg PUBLIC "-//W3C//DTD SVG 1.1//EN" "http://www.w3.org/Graphics/SVG/1.1/DTD/svg11.dtd">
<svg version="1.1" xmlns="http://www.w3.org/2000/svg" xmlns:xlink="http://www.w3.org/1999/xlink" preserveAspectRatio="xMidYMid meet" viewBox="0 0 640 640" width="640" height="640"><defs><path d="M320 253.91C278.32 253.91 244.52 287.7 244.52 329.39C244.52 362.74 266.14 391.04 296.14 401.02C299.91 401.72 301.29 399.38 301.29 397.39C301.29 395.59 301.22 389.64 301.19 383.33C280.19 387.9 275.76 374.43 275.76 374.43C272.33 365.7 267.38 363.38 267.38 363.38C260.53 358.7 267.9 358.79 267.9 358.79C275.48 359.33 279.47 366.57 279.47 366.57C286.2 378.11 297.13 374.78 301.43 372.85C302.11 367.97 304.07 364.64 306.23 362.75C289.46 360.84 271.83 354.37 271.83 325.45C271.83 317.21 274.78 310.47 279.61 305.19C278.83 303.28 276.24 295.61 280.34 285.21C280.34 285.21 286.68 283.18 301.11 292.95C307.13 291.28 313.59 290.44 320 290.41C326.42 290.44 332.88 291.28 338.91 292.95C353.32 283.18 359.65 285.21 359.65 285.21C363.76 295.61 361.17 303.28 360.39 305.19C365.23 310.47 368.16 317.21 368.16 325.45C368.16 354.44 350.5 360.82 333.69 362.69C336.4 365.04 338.81 369.63 338.81 376.67C338.81 386.77 338.72 394.9 338.72 397.39C338.72 399.4 340.08 401.75 343.91 401.01C373.88 391.02 395.49 362.73 395.49 329.39C395.49 287.7 361.69 253.91 320 253.91" id="a5s9oj6Iyn"></path></defs><g><g><g><use xlink:href="#a5s9oj6Iyn" opacity="1" fill="#d9d9d9" fill-opacity="1"></use><g><use xlink:href="#a5s9oj6Iyn" opacity="1" fill-opacity="0" stroke="#000000" stroke-width="1" stroke-opacity="0"></use></g></g><path></path><path></path><path></path><path></path><path></path><path></path><path></path><path></path><path></path><path></path><path></path><path></path><path></path><path></path><path></path><path></path><path></path><path></path><path></path><path></path><path></path><path></path><path></path><path></path></g></g></svg>