<?xml version="1.0" encoding="UTF-8" standalone="no"?>
<!DOCTYPE svg PUBLIC "-//W3C//DTD SVG 1.1//EN" "http://www.w3.org/Graphics/SVG/1.1/DTD/svg11.dtd">
<svg version="1.1" xmlns="http://www.w3.org/2000/svg" xmlns:xlink="http://www.w3.org/1999/xlink" preserveAspectRatio="xMidYMid meet" viewBox="0 0 640 640" width="640" height="640"><defs><path d="M240.82 342.13C105 458.56 29.54 523.25 14.45 536.18C22.67 543.82 33.78 548.57 46.03 548.57C100.83 548.57 539.17 548.57 593.97 548.57C606.17 548.57 617.23 543.82 625.42 536.18C610.33 523.25 534.92 458.56 399.18 342.13L320 411.43L240.82 342.13Z" id="d2Yk4GgT1t"></path><path d="M593.97 91.43C539.17 91.43 100.83 91.43 46.03 91.43C33.83 91.43 22.77 96.18 14.54 103.91C34.9 121.36 136.72 208.63 320 365.71L625.55 103.82C612.69 95.56 602.16 91.43 593.97 91.43Z" id="j14WX7TZiW"></path><path d="M0 511.36L220.94 323.61L0 131.57L0 511.36Z" id="d4T6VH6JR"></path><path d="M640 511.36L640 131.43L419.06 323.61L640 511.36Z" id="a6WAKkcznT"></path></defs><g><g><g><use xlink:href="#d2Yk4GgT1t" opacity="1" fill="#4999bc" fill-opacity="1"></use><g><use xlink:href="#d2Yk4GgT1t" opacity="1" fill-opacity="0" stroke="#000000" stroke-width="1" stroke-opacity="0"></use></g></g><g><use xlink:href="#j14WX7TZiW" opacity="1" fill="#4999bc" fill-opacity="1"></use><g><use xlink:href="#j14WX7TZiW" opacity="1" fill-opacity="0" stroke="#000000" stroke-width="1" stroke-opacity="0"></use></g></g><g><use xlink:href="#d4T6VH6JR" opacity="1" fill="#4999bc" fill-opacity="1"></use><g><use xlink:href="#d4T6VH6JR" opacity="1" fill-opacity="0" stroke="#000000" stroke-width="1" stroke-opacity="0"></use></g></g><g><use xlink:href="#a6WAKkcznT" opacity="1" fill="#4999bc" fill-opacity="1"></use><g><use xlink:href="#a6WAKkcznT" opacity="1" fill-opacity="0" stroke="#000000" stroke-width="1" stroke-opacity="0"></use></g></g></g></g></svg>