<?xml version="1.0" encoding="UTF-8" standalone="no"?>
<!DOCTYPE svg PUBLIC "-//W3C//DTD SVG 1.1//EN" "http://www.w3.org/Graphics/SVG/1.1/DTD/svg11.dtd">
<svg version="1.1" xmlns="http://www.w3.org/2000/svg" xmlns:xlink="http://www.w3.org/1999/xlink" preserveAspectRatio="xMidYMid meet" viewBox="0 0 640 640" width="640" height="640"><defs><path d="M456.66 312.41C456.66 317.13 460.48 320.94 465.19 320.94C469.9 320.94 473.72 317.13 473.72 312.41C473.72 310.7 473.72 297.05 473.72 295.34C473.72 276.52 458.41 261.21 439.59 261.21C432.19 261.21 395.22 261.21 328.66 261.21C328.66 250.97 328.66 245.28 328.66 244.14C328.66 239.42 324.83 235.61 320.12 235.61C315.41 235.61 311.59 239.42 311.59 244.14C311.59 245.28 311.59 250.97 311.59 261.21C245.03 261.21 208.05 261.21 200.66 261.21C181.83 261.21 166.52 276.52 166.52 295.34C166.52 297.05 166.52 310.7 166.52 312.41C166.52 317.13 170.35 320.94 175.06 320.94C179.77 320.94 183.59 317.13 183.59 312.41C183.59 310.7 183.59 297.05 183.59 295.34C183.59 285.93 191.24 278.27 200.66 278.27C224.55 278.27 415.7 278.27 439.59 278.27C449 278.27 456.66 285.93 456.66 295.34C456.66 298.75 456.66 310.7 456.66 312.41Z" id="b26l39ew9R"></path><path d="M262.48 338.09L263.51 338.2L264.53 338.34L265.54 338.53L266.53 338.75L267.51 339.02L268.47 339.32L269.41 339.65L270.34 340.02L271.25 340.43L272.14 340.87L273.01 341.35L273.86 341.85L274.69 342.39L275.5 342.96L276.28 343.56L277.04 344.18L277.77 344.84L278.48 345.52L279.16 346.23L279.82 346.96L280.45 347.72L281.04 348.51L281.61 349.31L282.15 350.14L282.65 350.99L283.13 351.86L283.57 352.75L283.98 353.66L284.35 354.59L284.68 355.54L284.98 356.5L285.24 357.48L285.47 358.47L285.65 359.48L285.8 360.49L285.91 361.53L285.97 362.57L285.99 363.62L285.99 474.54L294.52 474.54L294.88 474.55L295.22 474.57L295.57 474.6L295.91 474.65L296.24 474.71L296.57 474.79L296.9 474.88L297.22 474.97L297.54 475.09L297.84 475.21L298.15 475.35L298.44 475.49L298.73 475.65L299.02 475.82L299.29 476L299.56 476.19L299.82 476.38L300.08 476.59L300.32 476.81L300.56 477.04L300.79 477.27L301 477.52L301.21 477.77L301.41 478.03L301.6 478.3L301.78 478.58L301.95 478.86L302.11 479.15L302.25 479.45L302.39 479.75L302.51 480.06L302.63 480.37L302.73 480.7L302.81 481.02L302.89 481.35L302.95 481.69L303 482.03L303.04 482.37L303.06 482.72L303.07 483.07L303.07 517.21L303.06 517.56L303.04 517.91L303 518.25L302.95 518.59L302.89 518.93L302.82 519.26L302.73 519.59L302.63 519.91L302.52 520.22L302.39 520.53L302.26 520.83L302.11 521.13L301.95 521.42L301.79 521.7L301.61 521.98L301.42 522.25L301.22 522.51L301.01 522.76L300.79 523.01L300.57 523.24L300.33 523.47L300.08 523.69L299.83 523.9L299.57 524.1L299.3 524.28L299.03 524.46L298.74 524.63L298.45 524.79L298.16 524.94L297.85 525.07L297.54 525.19L297.23 525.31L296.91 525.41L296.58 525.49L296.25 525.57L295.92 525.63L295.58 525.68L295.23 525.71L294.88 525.73L294.53 525.74L72.67 525.74L72.31 525.73L71.97 525.71L71.62 525.68L71.28 525.63L70.95 525.57L70.62 525.49L70.29 525.41L69.97 525.31L69.65 525.19L69.35 525.07L69.04 524.94L68.75 524.79L68.45 524.63L68.17 524.46L67.9 524.28L67.63 524.1L67.37 523.9L67.11 523.69L66.87 523.47L66.63 523.24L66.41 523.01L66.19 522.76L65.98 522.51L65.78 522.25L65.59 521.98L65.41 521.7L65.24 521.42L65.09 521.13L64.94 520.83L64.8 520.53L64.68 520.22L64.57 519.91L64.47 519.59L64.38 519.26L64.31 518.93L64.24 518.59L64.2 518.25L64.16 517.91L64.14 517.56L64.13 517.21L64.13 483.07L64.14 482.72L64.16 482.37L64.2 482.03L64.24 481.69L64.31 481.35L64.38 481.02L64.47 480.7L64.57 480.37L64.68 480.06L64.8 479.75L64.94 479.45L65.09 479.15L65.24 478.86L65.41 478.58L65.59 478.3L65.78 478.03L65.98 477.77L66.19 477.52L66.41 477.27L66.63 477.04L66.87 476.81L67.11 476.59L67.37 476.38L67.63 476.19L67.9 476L68.17 475.82L68.45 475.65L68.75 475.49L69.04 475.35L69.35 475.21L69.65 475.09L69.97 474.97L70.29 474.88L70.62 474.79L70.95 474.71L71.28 474.65L71.62 474.6L71.97 474.57L72.31 474.55L72.67 474.54L81.2 474.54L81.2 363.62L81.22 362.57L81.28 361.53L81.39 360.49L81.53 359.48L81.72 358.47L81.94 357.48L82.21 356.5L82.51 355.54L82.84 354.59L83.21 353.66L83.62 352.75L84.06 351.86L84.53 350.99L85.04 350.14L85.58 349.31L86.15 348.51L86.74 347.72L87.37 346.96L88.03 346.23L88.71 345.52L89.42 344.84L90.15 344.18L90.91 343.56L91.69 342.96L92.5 342.39L93.33 341.85L94.18 341.35L95.05 340.87L95.94 340.43L96.85 340.02L97.78 339.65L98.72 339.32L99.68 339.02L100.66 338.75L101.65 338.53L102.66 338.34L103.68 338.2L104.71 338.09L105.75 338.03L106.81 338.01L260.38 338.01L261.44 338.03L262.48 338.09ZM81.19 508.67L285.99 508.67L285.99 491.61L81.19 491.61L81.19 508.67ZM123.62 372.15L123.39 372.16L123.16 372.19L122.92 372.23L122.69 372.27L122.46 372.33L122.24 372.4L122.01 372.48L121.78 372.57L121.56 372.67L121.33 372.79L121.11 372.91L120.89 373.04L120.67 373.19L120.45 373.34L120.23 373.51L120.01 373.68L119.8 373.87L119.58 374.07L119.37 374.27L119.16 374.49L118.94 374.72L118.73 374.96L118.52 375.21L118.32 375.47L118.11 375.75L117.9 376.03L117.7 376.32L117.49 376.63L117.29 376.94L117.09 377.27L116.89 377.6L116.69 377.95L116.49 378.31L116.29 378.67L116.1 379.05L115.9 379.44L115.71 379.84L115.52 380.25L115.32 380.67L115.32 448.94L115.33 449.29L115.35 449.64L115.39 449.99L115.44 450.33L115.5 450.66L115.57 450.99L115.66 451.32L115.76 451.64L115.87 451.96L115.99 452.26L116.13 452.57L116.28 452.86L116.43 453.15L116.6 453.44L116.78 453.71L116.97 453.98L117.17 454.24L117.38 454.5L117.6 454.74L117.82 454.98L118.06 455.2L118.3 455.42L118.56 455.63L118.82 455.83L119.09 456.02L119.36 456.2L119.65 456.36L119.94 456.52L120.23 456.67L120.54 456.8L120.85 456.93L121.16 457.04L121.48 457.14L121.81 457.23L122.14 457.3L122.47 457.36L122.81 457.41L123.16 457.45L123.51 457.47L123.86 457.47L243.32 457.47L243.68 457.47L244.02 457.45L244.37 457.41L244.71 457.36L245.04 457.3L245.37 457.23L245.7 457.14L246.02 457.04L246.34 456.93L246.64 456.8L246.95 456.67L247.24 456.52L247.53 456.36L247.82 456.2L248.09 456.02L248.36 455.83L248.62 455.63L248.88 455.42L249.12 455.2L249.36 454.98L249.58 454.74L249.8 454.5L250.01 454.24L250.21 453.98L250.4 453.71L250.58 453.44L250.75 453.15L250.9 452.86L251.05 452.57L251.19 452.26L251.31 451.96L251.42 451.64L251.52 451.32L251.61 450.99L251.68 450.66L251.75 450.33L251.79 449.99L251.83 449.64L251.85 449.29L251.86 448.94L251.86 380.67L251.85 380.32L251.83 379.97L251.79 379.63L251.75 379.29L251.68 378.95L251.61 378.62L251.52 378.3L251.42 377.97L251.31 377.66L251.19 377.35L251.05 377.05L250.9 376.75L250.75 376.46L250.58 376.18L250.4 375.9L250.21 375.63L250.01 375.37L249.8 375.12L249.58 374.87L249.36 374.64L249.12 374.41L248.88 374.19L248.62 373.98L248.36 373.79L248.09 373.6L247.82 373.42L247.53 373.25L247.24 373.09L246.95 372.95L246.64 372.81L246.34 372.69L246.02 372.57L245.7 372.48L245.37 372.39L245.04 372.31L244.71 372.25L244.37 372.2L244.02 372.17L243.68 372.15L243.32 372.14L123.86 372.14L123.62 372.15Z" id="e1j8HdMEx2"></path><path d="M234.79 389.21C234.79 389.21 234.79 389.21 234.79 389.21C234.79 419.93 234.79 436.99 234.79 440.41C234.79 440.41 234.79 440.41 234.79 440.41C173.35 440.41 139.22 440.41 132.39 440.41C132.39 440.41 132.39 440.41 132.39 440.41C132.39 409.69 132.39 392.62 132.39 389.21C132.39 389.21 132.39 389.21 132.39 389.21C193.83 389.21 227.96 389.21 234.79 389.21Z" id="a161Hukjlj"></path><path d="M535.55 338.09L536.58 338.2L537.6 338.34L538.6 338.53L539.6 338.75L540.57 339.02L541.53 339.32L542.48 339.65L543.41 340.02L544.32 340.43L545.21 340.87L546.08 341.35L546.93 341.85L547.76 342.39L548.56 342.96L549.35 343.56L550.11 344.18L550.84 344.84L551.55 345.52L552.23 346.23L552.89 346.96L553.51 347.72L554.11 348.51L554.68 349.31L555.22 350.14L555.72 350.99L556.19 351.86L556.64 352.75L557.04 353.66L557.41 354.59L557.75 355.54L558.05 356.5L558.31 357.48L558.54 358.47L558.72 359.48L558.87 360.49L558.97 361.53L559.04 362.57L559.06 363.62L559.06 474.54L567.59 474.54L567.94 474.55L568.29 474.57L568.63 474.6L568.97 474.65L569.31 474.71L569.64 474.79L569.97 474.88L570.29 474.97L570.6 475.09L570.91 475.21L571.21 475.35L571.51 475.49L571.8 475.65L572.08 475.82L572.36 476L572.63 476.19L572.89 476.38L573.14 476.59L573.39 476.81L573.62 477.04L573.85 477.27L574.07 477.52L574.28 477.77L574.48 478.03L574.67 478.3L574.85 478.58L575.02 478.86L575.17 479.15L575.32 479.45L575.46 479.75L575.58 480.06L575.69 480.37L575.79 480.7L575.88 481.02L575.96 481.35L576.02 481.69L576.07 482.03L576.1 482.37L576.12 482.72L576.13 483.07L576.13 517.21L576.13 517.56L576.1 517.91L576.07 518.25L576.02 518.59L575.96 518.93L575.88 519.26L575.8 519.59L575.7 519.91L575.59 520.22L575.46 520.53L575.33 520.83L575.18 521.13L575.02 521.42L574.85 521.7L574.67 521.98L574.49 522.25L574.29 522.51L574.08 522.76L573.86 523.01L573.63 523.24L573.4 523.47L573.15 523.69L572.9 523.9L572.64 524.1L572.37 524.28L572.09 524.46L571.81 524.63L571.52 524.79L571.22 524.94L570.92 525.07L570.61 525.19L570.3 525.31L569.97 525.41L569.65 525.49L569.32 525.57L568.98 525.63L568.64 525.68L568.3 525.71L567.95 525.73L567.6 525.74L345.73 525.74L345.38 525.73L345.03 525.71L344.69 525.68L344.35 525.63L344.01 525.57L343.68 525.49L343.36 525.41L343.04 525.31L342.72 525.19L342.41 525.07L342.11 524.94L341.81 524.79L341.52 524.63L341.24 524.46L340.96 524.28L340.69 524.1L340.43 523.9L340.18 523.69L339.94 523.47L339.7 523.24L339.47 523.01L339.25 522.76L339.05 522.51L338.85 522.25L338.66 521.98L338.48 521.7L338.31 521.42L338.15 521.13L338.01 520.83L337.87 520.53L337.75 520.22L337.63 519.91L337.53 519.59L337.45 519.26L337.37 518.93L337.31 518.59L337.26 518.25L337.23 517.91L337.21 517.56L337.2 517.21L337.2 483.07L337.21 482.72L337.23 482.37L337.26 482.03L337.31 481.69L337.37 481.35L337.45 481.02L337.53 480.7L337.63 480.37L337.75 480.06L337.87 479.75L338.01 479.45L338.15 479.15L338.31 478.86L338.48 478.58L338.66 478.3L338.85 478.03L339.05 477.77L339.25 477.52L339.47 477.27L339.7 477.04L339.94 476.81L340.18 476.59L340.43 476.38L340.69 476.19L340.96 476L341.24 475.82L341.52 475.65L341.81 475.49L342.11 475.35L342.41 475.21L342.72 475.09L343.04 474.97L343.36 474.88L343.68 474.79L344.01 474.71L344.35 474.65L344.69 474.6L345.03 474.57L345.38 474.55L345.73 474.54L354.27 474.54L354.27 363.62L354.29 362.57L354.35 361.53L354.46 360.49L354.6 359.48L354.79 358.47L355.01 357.48L355.27 356.5L355.57 355.54L355.91 354.59L356.28 353.66L356.69 352.75L357.13 351.86L357.6 350.99L358.11 350.14L358.64 349.31L359.21 348.51L359.81 347.72L360.44 346.96L361.09 346.23L361.77 345.52L362.48 344.84L363.22 344.18L363.98 343.56L364.76 342.96L365.57 342.39L366.39 341.85L367.24 341.35L368.11 340.87L369.01 340.43L369.91 340.02L370.84 339.65L371.79 339.32L372.75 339.02L373.73 338.75L374.72 338.53L375.73 338.34L376.74 338.2L377.78 338.09L378.82 338.03L379.87 338.01L533.45 338.01L534.5 338.03L535.55 338.09ZM354.26 508.67L559.06 508.67L559.06 491.61L354.26 491.61L354.26 508.67ZM396.69 372.15L396.45 372.16L396.22 372.19L395.99 372.23L395.76 372.27L395.53 372.33L395.3 372.4L395.08 372.48L394.85 372.57L394.62 372.67L394.4 372.79L394.18 372.91L393.96 373.04L393.74 373.19L393.52 373.34L393.3 373.51L393.08 373.68L392.86 373.87L392.65 374.07L392.44 374.27L392.22 374.49L392.01 374.72L391.8 374.96L391.59 375.21L391.38 375.47L391.18 375.75L390.97 376.03L390.76 376.32L390.56 376.63L390.36 376.94L390.16 377.27L389.96 377.6L389.76 377.95L389.56 378.31L389.36 378.67L389.16 379.05L388.97 379.44L388.77 379.84L388.58 380.25L388.39 380.67L388.39 448.94L388.4 449.29L388.42 449.64L388.45 449.99L388.5 450.33L388.56 450.66L388.64 450.99L388.73 451.32L388.83 451.64L388.94 451.96L389.06 452.26L389.2 452.57L389.34 452.86L389.5 453.15L389.67 453.44L389.85 453.71L390.04 453.98L390.24 454.24L390.45 454.5L390.66 454.74L390.89 454.98L391.13 455.2L391.37 455.42L391.62 455.63L391.89 455.83L392.15 456.02L392.43 456.2L392.71 456.36L393 456.52L393.3 456.67L393.6 456.8L393.91 456.93L394.23 457.04L394.55 457.14L394.87 457.23L395.2 457.3L395.54 457.36L395.88 457.41L396.22 457.45L396.57 457.47L396.92 457.47L516.39 457.47L516.74 457.47L517.09 457.45L517.43 457.41L517.77 457.36L518.11 457.3L518.44 457.23L518.77 457.14L519.09 457.04L519.4 456.93L519.71 456.8L520.01 456.67L520.31 456.52L520.6 456.36L520.88 456.2L521.16 456.02L521.43 455.83L521.69 455.63L521.94 455.42L522.19 455.2L522.42 454.98L522.65 454.74L522.87 454.5L523.08 454.24L523.28 453.98L523.47 453.71L523.64 453.44L523.81 453.15L523.97 452.86L524.12 452.57L524.25 452.26L524.38 451.96L524.49 451.64L524.59 451.32L524.68 450.99L524.75 450.66L524.81 450.33L524.86 449.99L524.9 449.64L524.92 449.29L524.92 448.94L524.92 380.67L524.92 380.32L524.9 379.97L524.86 379.63L524.81 379.29L524.75 378.95L524.68 378.62L524.59 378.3L524.49 377.97L524.38 377.66L524.25 377.35L524.12 377.05L523.97 376.75L523.81 376.46L523.64 376.18L523.47 375.9L523.28 375.63L523.08 375.37L522.87 375.12L522.65 374.87L522.42 374.64L522.19 374.41L521.94 374.19L521.69 373.98L521.43 373.79L521.16 373.6L520.88 373.42L520.6 373.25L520.31 373.09L520.01 372.95L519.71 372.81L519.4 372.69L519.09 372.57L518.77 372.48L518.44 372.39L518.11 372.31L517.77 372.25L517.43 372.2L517.09 372.17L516.74 372.15L516.39 372.14L396.92 372.14L396.69 372.15Z" id="av7PCvVKE"></path><path d="M507.86 389.21C507.86 389.21 507.86 389.21 507.86 389.21C507.86 419.93 507.86 436.99 507.86 440.41C507.86 440.41 507.86 440.41 507.86 440.41C446.42 440.41 412.28 440.41 405.46 440.41C405.46 440.41 405.46 440.41 405.46 440.41C405.46 409.69 405.46 392.62 405.46 389.21C405.46 389.21 405.46 389.21 405.46 389.21C466.9 389.21 501.03 389.21 507.86 389.21Z" id="asNPbkk1g"></path><path d="M423.21 13.77L423.56 13.8L423.9 13.85L424.23 13.91L424.57 13.99L424.89 14.08L425.21 14.17L425.53 14.29L425.84 14.41L426.14 14.55L426.44 14.69L426.73 14.85L427.01 15.02L427.29 15.2L427.55 15.39L427.81 15.58L428.07 15.79L428.31 16.01L428.55 16.24L428.78 16.47L428.99 16.72L429.2 16.97L429.4 17.23L429.59 17.5L429.77 17.78L429.94 18.06L430.1 18.35L430.24 18.65L430.38 18.95L430.5 19.26L430.61 19.57L430.71 19.9L430.8 20.22L430.88 20.55L430.94 20.89L430.99 21.23L431.02 21.57L431.04 21.92L431.05 22.27L431.05 56.41L435.35 56.41L436.23 56.42L437.09 56.48L437.95 56.57L438.8 56.69L439.64 56.84L440.46 57.03L441.27 57.25L442.07 57.5L442.86 57.77L443.63 58.08L444.39 58.42L445.13 58.79L445.85 59.18L446.56 59.6L447.25 60.05L447.92 60.52L448.57 61.02L449.2 61.54L449.81 62.09L450.4 62.65L450.97 63.24L451.51 63.85L452.04 64.49L452.53 65.14L453.01 65.81L453.45 66.5L453.87 67.2L454.27 67.93L454.63 68.67L454.97 69.42L455.28 70.2L455.56 70.98L455.81 71.78L456.03 72.59L456.21 73.42L456.37 74.26L456.49 75.1L456.58 75.96L456.63 76.83L456.65 77.71L456.65 137.51L456.63 138.38L456.58 139.25L456.49 140.11L456.37 140.96L456.21 141.79L456.03 142.62L455.81 143.43L455.56 144.23L455.28 145.02L454.97 145.79L454.63 146.55L454.27 147.29L453.87 148.01L453.45 148.72L453.01 149.41L452.53 150.08L452.04 150.73L451.51 151.36L450.97 151.97L450.4 152.56L449.81 153.13L449.2 153.67L448.57 154.19L447.92 154.69L447.25 155.16L446.56 155.61L445.85 156.03L445.13 156.43L444.39 156.79L443.63 157.13L442.86 157.44L442.07 157.72L441.27 157.97L440.46 158.19L439.64 158.37L438.8 158.53L437.95 158.65L437.09 158.74L436.23 158.79L435.35 158.81L413.98 158.81L413.98 210.01L413.97 210.36L413.95 210.71L413.92 211.05L413.87 211.39L413.81 211.73L413.73 212.06L413.65 212.39L413.55 212.71L413.43 213.02L413.31 213.33L413.18 213.63L413.03 213.93L412.87 214.22L412.7 214.5L412.52 214.78L412.33 215.05L412.14 215.31L411.93 215.56L411.71 215.81L411.48 216.04L411.25 216.27L411 216.49L410.75 216.7L410.49 216.9L410.22 217.08L409.94 217.26L409.66 217.43L409.37 217.59L409.07 217.74L408.77 217.87L408.46 217.99L408.14 218.11L407.82 218.21L407.5 218.29L407.17 218.37L406.83 218.43L406.49 218.48L406.15 218.51L405.8 218.53L405.45 218.54L234.78 218.54L234.43 218.53L234.08 218.51L233.74 218.48L233.4 218.43L233.06 218.37L232.73 218.29L232.41 218.21L232.09 218.11L231.77 217.99L231.46 217.87L231.16 217.74L230.86 217.59L230.57 217.43L230.29 217.26L230.01 217.08L229.74 216.9L229.48 216.7L229.23 216.49L228.98 216.27L228.75 216.04L228.52 215.81L228.3 215.56L228.09 215.31L227.9 215.05L227.71 214.78L227.53 214.5L227.36 214.22L227.2 213.93L227.05 213.63L226.92 213.33L226.8 213.02L226.68 212.71L226.58 212.39L226.5 212.06L226.42 211.73L226.36 211.39L226.31 211.05L226.28 210.71L226.26 210.36L226.25 210.01L226.25 158.81L204.88 158.81L204 158.79L203.14 158.74L202.28 158.65L201.43 158.53L200.6 158.37L199.77 158.19L198.96 157.97L198.16 157.72L197.37 157.44L196.6 157.13L195.84 156.79L195.1 156.43L194.38 156.03L193.67 155.61L192.98 155.16L192.31 154.69L191.66 154.19L191.03 153.67L190.42 153.13L189.83 152.56L189.26 151.97L188.72 151.36L188.2 150.73L187.7 150.08L187.23 149.41L186.78 148.72L186.36 148.01L185.97 147.29L185.6 146.55L185.26 145.79L184.95 145.02L184.67 144.23L184.42 143.43L184.2 142.62L184.02 141.79L183.86 140.96L183.74 140.11L183.65 139.25L183.6 138.38L183.58 137.51L183.58 77.71L183.6 76.83L183.65 75.96L183.74 75.1L183.86 74.26L184.02 73.42L184.2 72.59L184.42 71.78L184.67 70.98L184.95 70.2L185.26 69.42L185.6 68.67L185.96 67.93L186.36 67.2L186.78 66.5L187.23 65.81L187.7 65.14L188.19 64.49L188.72 63.85L189.26 63.24L189.83 62.65L190.42 62.09L191.03 61.54L191.66 61.02L192.31 60.52L192.98 60.05L193.67 59.6L194.38 59.18L195.1 58.79L195.84 58.42L196.6 58.08L197.37 57.77L198.16 57.5L198.96 57.25L199.77 57.03L200.59 56.84L201.43 56.69L202.28 56.57L203.14 56.48L204 56.42L204.88 56.41L209.18 56.41L209.18 22.27L209.19 21.92L209.21 21.57L209.25 21.23L209.29 20.89L209.36 20.55L209.43 20.22L209.52 19.9L209.62 19.57L209.73 19.26L209.85 18.95L209.99 18.65L210.13 18.35L210.29 18.06L210.46 17.78L210.64 17.5L210.83 17.23L211.03 16.97L211.24 16.72L211.45 16.47L211.68 16.24L211.92 16.01L212.16 15.79L212.42 15.58L212.68 15.39L212.95 15.2L213.22 15.02L213.5 14.85L213.79 14.69L214.09 14.55L214.39 14.41L214.7 14.29L215.02 14.17L215.34 14.08L215.67 13.99L216 13.91L216.33 13.85L216.67 13.8L217.02 13.77L217.36 13.75L217.72 13.74L422.52 13.74L422.87 13.75L423.21 13.77ZM243.32 201.47L396.92 201.47L396.92 150.27L379.86 150.27L379.86 175.87L379.85 176.23L379.83 176.57L379.79 176.92L379.75 177.26L379.68 177.6L379.61 177.93L379.52 178.25L379.42 178.57L379.31 178.89L379.19 179.2L379.05 179.5L378.9 179.8L378.75 180.09L378.58 180.37L378.4 180.65L378.21 180.92L378.01 181.18L377.8 181.43L377.58 181.67L377.36 181.91L377.12 182.14L376.88 182.36L376.62 182.56L376.36 182.76L376.09 182.95L375.82 183.13L375.53 183.3L375.24 183.46L374.95 183.6L374.64 183.74L374.34 183.86L374.02 183.97L373.7 184.07L373.37 184.16L373.04 184.23L372.71 184.3L372.37 184.34L372.02 184.38L371.68 184.4L371.32 184.41L268.92 184.41L268.57 184.4L268.22 184.38L267.88 184.34L267.54 184.3L267.2 184.23L266.87 184.16L266.55 184.07L266.23 183.97L265.91 183.86L265.6 183.74L265.3 183.6L265 183.46L264.71 183.3L264.43 183.13L264.15 182.95L263.89 182.76L263.62 182.56L263.37 182.36L263.13 182.14L262.89 181.91L262.66 181.67L262.45 181.43L262.24 181.18L262.04 180.92L261.85 180.65L261.67 180.37L261.5 180.09L261.34 179.8L261.2 179.5L261.06 179.2L260.94 178.89L260.83 178.57L260.73 178.25L260.64 177.93L260.56 177.6L260.5 177.26L260.45 176.92L260.42 176.57L260.4 176.23L260.39 175.87L260.39 150.27L243.32 150.27L243.32 201.47ZM243.32 133.21L396.92 133.21L396.92 116.14L243.32 116.14L243.32 133.21ZM226.26 56.41L413.99 56.41L413.99 30.81L226.26 30.81L226.26 56.41Z" id="bmwytN9CV"></path></defs><g><g><g><use xlink:href="#b26l39ew9R" opacity="1" fill="#000000" fill-opacity="1"></use><g><use xlink:href="#b26l39ew9R" opacity="1" fill-opacity="0" stroke="#000000" stroke-width="1" stroke-opacity="0"></use></g></g><g><use xlink:href="#e1j8HdMEx2" opacity="1" fill="#000000" fill-opacity="1"></use><g><use xlink:href="#e1j8HdMEx2" opacity="1" fill-opacity="0" stroke="#000000" stroke-width="1" stroke-opacity="0"></use></g></g><g><use xlink:href="#a161Hukjlj" opacity="1" fill="#000000" fill-opacity="1"></use><g><use xlink:href="#a161Hukjlj" opacity="1" fill-opacity="0" stroke="#000000" stroke-width="1" stroke-opacity="0"></use></g></g><g><use xlink:href="#av7PCvVKE" opacity="1" fill="#000000" fill-opacity="1"></use><g><use xlink:href="#av7PCvVKE" opacity="1" fill-opacity="0" stroke="#000000" stroke-width="1" stroke-opacity="0"></use></g></g><g><use xlink:href="#asNPbkk1g" opacity="1" fill="#000000" fill-opacity="1"></use><g><use xlink:href="#asNPbkk1g" opacity="1" fill-opacity="0" stroke="#000000" stroke-width="1" stroke-opacity="0"></use></g></g><g><use xlink:href="#bmwytN9CV" opacity="1" fill="#000000" fill-opacity="1"></use><g><use xlink:href="#bmwytN9CV" opacity="1" fill-opacity="0" stroke="#000000" stroke-width="1" stroke-opacity="0"></use></g></g></g></g></svg>