<?xml version="1.0" encoding="UTF-8" standalone="no"?>
<!DOCTYPE svg PUBLIC "-//W3C//DTD SVG 1.1//EN" "http://www.w3.org/Graphics/SVG/1.1/DTD/svg11.dtd">
<svg version="1.1" xmlns="http://www.w3.org/2000/svg" xmlns:xlink="http://www.w3.org/1999/xlink" preserveAspectRatio="xMidYMid meet" viewBox="0 0 640 640" width="640" height="640"><defs><path d="M441.78 336.53L443.19 336.6L444.59 336.69L445.99 336.82L447.38 336.97L448.77 337.14L450.15 337.35L451.52 337.58L452.89 337.84L454.24 338.12L455.59 338.43L456.94 338.76L458.27 339.13L459.6 339.51L460.91 339.93L462.22 340.37L463.52 340.83L464.81 341.32L466.09 341.83L467.35 342.37L468.61 342.94L469.86 343.53L471.09 344.14L472.31 344.78L473.53 345.45L474.72 346.13L475.91 346.85L477.08 347.58L478.24 348.34L479.39 349.13L480.52 349.93L481.64 350.76L482.75 351.62L483.84 352.5L484.91 353.4L485.97 354.32L487.02 355.27L488.05 356.24L489.06 357.23L490.59 358.81L492.06 360.43L493.48 362.09L494.84 363.78L496.14 365.51L497.38 367.27L498.57 369.06L499.69 370.88L500.76 372.73L501.77 374.61L502.71 376.51L503.6 378.44L504.43 380.38L505.2 382.35L505.91 384.34L506.56 386.35L507.15 388.37L507.68 390.4L508.15 392.45L508.56 394.51L508.9 396.59L509.19 398.67L509.42 400.75L509.58 402.85L509.68 404.94L509.73 407.04L509.71 409.15L509.62 411.25L509.48 413.35L509.28 415.44L509.01 417.53L508.68 419.62L508.29 421.7L507.83 423.76L507.31 425.82L506.73 427.87L506.09 429.9L505.38 431.91L504.61 433.91L503.77 435.89L536.44 468.56L536.8 468.93L537.16 469.31L537.51 469.7L537.85 470.09L538.18 470.48L538.5 470.88L538.82 471.29L539.12 471.7L539.42 472.12L539.71 472.54L539.99 472.97L540.26 473.4L540.52 473.84L540.77 474.28L541.02 474.73L541.25 475.18L541.48 475.63L541.7 476.09L541.9 476.55L542.1 477.02L542.29 477.49L542.47 477.97L542.81 478.93L542.96 479.41L543.1 479.9L543.23 480.39L543.36 480.89L543.58 481.89L543.67 482.39L543.75 482.9L543.83 483.4L543.89 483.92L543.95 484.43L544 484.94L544.03 485.46L544.06 485.98L544.08 487.02L544.07 487.54L544.06 488.05L544.03 488.56L543.95 489.58L543.89 490.09L543.82 490.6L543.75 491.11L543.66 491.61L543.56 492.11L543.46 492.61L543.34 493.11L543.22 493.6L543.08 494.1L542.94 494.59L542.78 495.07L542.62 495.56L542.44 496.04L542.26 496.51L542.07 496.99L541.87 497.46L541.66 497.92L541.44 498.38L541.21 498.84L540.98 499.3L540.73 499.74L540.48 500.19L540.22 500.63L539.94 501.06L539.66 501.49L539.38 501.92L539.08 502.33L538.77 502.75L538.46 503.15L538.14 503.55L537.81 503.95L537.47 504.34L537.13 504.72L536.77 505.1L536.03 505.84L535.64 506.21L534.84 506.91L534.43 507.25L534.02 507.58L533.61 507.9L533.18 508.21L532.76 508.51L532.33 508.8L531.89 509.08L531.45 509.35L531.01 509.61L530.56 509.87L530.11 510.11L529.19 510.57L528.73 510.78L528.26 510.99L527.79 511.18L527.32 511.37L526.84 511.54L526.37 511.71L525.88 511.87L525.4 512.02L524.92 512.15L524.43 512.28L523.94 512.4L523.45 512.51L522.96 512.61L522.46 512.7L521.97 512.78L521.47 512.86L520.97 512.92L520.47 512.97L519.47 513.05L518.97 513.07L517.97 513.09L516.97 513.07L516.47 513.05L515.47 512.97L514.97 512.92L514.48 512.86L513.98 512.78L513.48 512.7L512.99 512.61L512.5 512.51L512.01 512.4L511.52 512.28L511.03 512.16L510.55 512.02L510.06 511.87L509.58 511.71L509.1 511.55L508.63 511.37L508.16 511.18L507.69 510.99L507.22 510.78L506.76 510.57L506.3 510.35L505.84 510.11L505.39 509.87L504.94 509.62L504.5 509.35L504.06 509.08L503.62 508.8L503.19 508.51L502.76 508.21L502.34 507.9L501.92 507.58L501.51 507.25L501.11 506.91L500.7 506.57L500.31 506.21L499.92 505.84L499.53 505.46L466.56 472.49L465.9 472.77L465.24 473.04L464.57 473.3L463.9 473.55L463.24 473.8L462.56 474.04L461.89 474.28L461.22 474.51L459.86 474.95L459.18 475.15L457.82 475.55L457.14 475.74L456.45 475.92L455.77 476.09L455.08 476.26L454.39 476.42L453.7 476.57L453.01 476.72L452.32 476.86L451.63 476.99L450.93 477.11L450.24 477.23L449.54 477.34L448.85 477.45L448.15 477.54L447.45 477.63L446.76 477.72L446.06 477.79L445.36 477.86L444.66 477.92L443.96 477.98L442.56 478.06L441.86 478.1L440.46 478.14L439.75 478.15L439.05 478.15L437.68 478.14L436.3 478.1L434.93 478.03L433.55 477.94L432.18 477.82L430.82 477.68L429.45 477.51L428.09 477.31L426.73 477.09L425.38 476.84L424.03 476.56L422.68 476.26L421.34 475.94L420.01 475.58L418.68 475.2L417.36 474.8L416.05 474.37L414.75 473.91L413.45 473.43L412.16 472.93L410.88 472.39L409.61 471.83L408.35 471.25L407.1 470.64L405.86 470.01L404.63 469.35L403.41 468.66L402.21 467.95L401.01 467.22L399.83 466.46L398.66 465.67L397.51 464.86L396.37 464.02L395.24 463.16L394.13 462.28L393.04 461.37L391.96 460.43L390.89 459.47L389.85 458.48L388.81 457.48L387.82 456.46L386.85 455.43L385.9 454.39L384.98 453.33L384.08 452.25L383.2 451.16L382.34 450.06L381.51 448.94L380.7 447.8L379.92 446.66L379.16 445.5L378.42 444.32L377.71 443.13L377.02 441.93L376.36 440.72L375.72 439.5L375.11 438.26L374.52 437.02L373.95 435.76L373.41 434.49L372.9 433.21L372.41 431.92L371.94 430.62L371.51 429.32L371.09 428L370.71 426.67L370.34 425.34L370.01 424L369.7 422.64L369.42 421.29L369.16 419.92L368.93 418.55L368.73 417.17L368.55 415.78L368.4 414.39L368.28 412.99L368.18 411.59L368.11 410.18L368.07 408.77L368.06 407.35L368.08 405.93L368.12 404.52L368.19 403.11L368.28 401.71L368.41 400.31L368.56 398.92L368.74 397.53L368.94 396.15L369.17 394.78L369.43 393.42L369.71 392.06L370.02 390.71L370.36 389.36L370.72 388.03L371.11 386.7L371.52 385.39L371.96 384.08L372.43 382.78L372.92 381.49L373.43 380.21L373.97 378.95L374.54 377.69L375.13 376.44L375.74 375.21L376.38 373.98L377.05 372.77L377.74 371.57L378.45 370.38L379.19 369.21L379.95 368.05L380.73 366.9L381.54 365.77L382.37 364.65L383.23 363.54L384.11 362.45L385.01 361.38L385.93 360.32L386.88 359.27L387.85 358.24L388.84 357.23L389.85 356.24L390.88 355.27L391.93 354.32L392.99 353.4L394.06 352.5L395.15 351.62L396.25 350.77L397.37 349.94L398.51 349.13L399.65 348.34L400.81 347.58L401.99 346.85L403.17 346.14L404.37 345.45L405.58 344.78L406.81 344.15L408.04 343.53L409.29 342.94L410.54 342.38L411.81 341.84L413.09 341.32L414.38 340.83L415.68 340.37L416.98 339.93L418.3 339.52L419.62 339.13L420.96 338.77L422.3 338.43L423.65 338.12L425.01 337.84L426.37 337.58L427.75 337.35L429.13 337.15L430.51 336.97L431.9 336.82L433.3 336.7L434.7 336.6L436.11 336.53L437.52 336.49L438.94 336.48L438.95 336.48L440.37 336.49L441.78 336.53ZM437.82 351.11L436.7 351.15L435.58 351.2L434.47 351.28L433.36 351.38L432.25 351.5L431.15 351.64L430.06 351.8L428.97 351.98L427.89 352.19L426.81 352.41L425.74 352.66L424.67 352.92L423.62 353.21L422.56 353.52L421.52 353.85L420.48 354.19L419.45 354.56L418.43 354.95L417.41 355.36L416.41 355.79L415.41 356.24L414.42 356.7L413.44 357.19L412.47 357.7L411.51 358.22L410.56 358.77L409.62 359.34L408.69 359.92L407.77 360.52L406.86 361.14L405.96 361.79L405.07 362.44L404.19 363.12L403.33 363.82L402.47 364.53L401.63 365.27L400.8 366.02L399.99 366.79L399.19 367.58L398.4 368.38L397.63 369.2L396.87 370.02L396.14 370.87L395.42 371.72L394.73 372.59L394.05 373.46L393.39 374.35L392.75 375.25L392.12 376.16L391.52 377.08L390.94 378.02L390.37 378.96L389.82 379.91L389.3 380.87L388.79 381.84L388.3 382.82L387.83 383.81L387.38 384.81L386.95 385.82L386.54 386.83L386.15 387.86L385.79 388.89L385.44 389.92L385.11 390.97L384.8 392.02L384.51 393.08L384.25 394.15L384 395.22L383.77 396.3L383.57 397.38L383.39 398.47L383.22 399.57L383.08 400.67L382.96 401.77L382.87 402.88L382.79 403.99L382.73 405.11L382.7 406.23L382.69 407.36L382.7 408.48L382.73 409.6L382.79 410.72L382.86 411.83L382.96 412.94L383.08 414.05L383.22 415.15L383.38 416.24L383.56 417.33L383.77 418.42L383.99 419.49L384.24 420.56L384.5 421.63L384.79 422.69L385.1 423.74L385.42 424.79L385.77 425.83L386.14 426.86L386.53 427.88L386.94 428.89L387.36 429.9L387.81 430.9L388.28 431.89L388.77 432.87L389.28 433.84L389.8 434.8L390.35 435.75L390.91 436.69L391.5 437.63L392.1 438.55L392.72 439.46L393.36 440.36L394.02 441.25L394.7 442.12L395.4 442.99L396.11 443.84L396.85 444.68L397.6 445.51L398.37 446.33L399.16 447.13L400.58 448.5L402.04 449.82L403.53 451.07L405.07 452.26L406.63 453.4L408.23 454.48L409.86 455.49L411.52 456.45L413.21 457.35L414.92 458.19L416.65 458.97L418.41 459.68L420.19 460.34L421.98 460.94L423.8 461.47L425.62 461.95L427.46 462.36L429.32 462.71L431.18 463L433.05 463.23L434.93 463.4L436.81 463.5L438.69 463.54L440.58 463.52L442.46 463.44L444.35 463.29L446.23 463.09L448.1 462.81L449.97 462.48L451.82 462.08L453.67 461.62L455.5 461.09L457.32 460.5L459.13 459.84L460.91 459.12L462.68 458.34L464.43 457.49L466.15 456.57L467.85 455.6L469.52 454.55L469.76 454.39L470.01 454.23L470.25 454.07L470.73 453.75L470.97 453.58L471.21 453.41L471.45 453.25L471.69 453.08L471.93 452.91L472.16 452.73L472.4 452.56L472.64 452.38L472.87 452.21L473.11 452.03L473.34 451.85L473.57 451.67L473.8 451.48L474.04 451.3L474.27 451.11L474.5 450.93L474.73 450.74L474.95 450.55L475.18 450.36L475.41 450.16L475.63 449.97L475.86 449.77L476.08 449.58L476.31 449.38L476.53 449.18L476.75 448.98L476.97 448.77L477.19 448.57L477.41 448.36L477.63 448.16L477.85 447.95L478.07 447.74L478.28 447.53L478.5 447.32L478.71 447.1L478.93 446.89L479.14 446.68L479.35 446.46L479.56 446.24L479.76 446.03L479.97 445.81L480.17 445.59L480.38 445.37L480.58 445.15L480.98 444.71L481.17 444.49L481.37 444.26L481.57 444.04L481.76 443.81L481.95 443.59L482.33 443.13L482.52 442.91L482.7 442.68L482.89 442.45L483.61 441.53L483.79 441.29L483.96 441.06L484.14 440.83L484.31 440.59L484.48 440.36L484.65 440.12L484.82 439.88L484.99 439.65L485.15 439.41L485.31 439.17L485.48 438.93L485.64 438.69L485.79 438.45L485.95 438.21L486.11 437.97L487.16 436.3L488.14 434.6L489.06 432.88L489.91 431.13L490.69 429.36L491.42 427.57L492.07 425.77L492.67 423.95L493.2 422.11L493.66 420.27L494.06 418.41L494.4 416.54L494.67 414.66L494.88 412.78L495.03 410.9L495.11 409.01L495.13 407.13L495.09 405.24L494.99 403.36L494.82 401.48L494.6 399.61L494.31 397.75L493.95 395.89L493.54 394.05L493.07 392.23L492.53 390.41L491.93 388.62L491.28 386.84L490.56 385.08L489.78 383.34L488.94 381.63L488.04 379.95L487.08 378.29L486.07 376.66L484.99 375.06L483.85 373.49L482.66 371.95L481.4 370.46L480.09 369L478.71 367.58L477.91 366.79L477.1 366.02L476.27 365.27L475.43 364.53L474.57 363.82L473.71 363.12L472.83 362.44L471.94 361.78L471.04 361.14L470.13 360.52L469.21 359.92L468.28 359.33L467.34 358.77L466.39 358.22L465.43 357.7L464.46 357.19L463.48 356.7L462.49 356.23L461.49 355.78L460.48 355.36L459.47 354.95L458.45 354.56L457.42 354.19L456.38 353.84L455.33 353.51L454.28 353.21L453.22 352.92L452.16 352.65L451.09 352.41L450.01 352.18L448.93 351.98L447.84 351.8L446.74 351.64L445.64 351.49L444.54 351.38L443.43 351.28L442.32 351.2L441.2 351.15L440.08 351.11L438.95 351.1L438.94 351.1L437.82 351.11Z" id="d4vAhSqnB"></path><path d="M441.78 336.53L443.19 336.6L444.59 336.69L445.99 336.82L447.38 336.97L448.77 337.14L450.15 337.35L451.52 337.58L452.89 337.84L454.24 338.12L455.59 338.43L456.94 338.76L458.27 339.13L459.6 339.51L460.91 339.93L462.22 340.37L463.52 340.83L464.81 341.32L466.09 341.83L467.35 342.37L468.61 342.94L469.86 343.53L471.09 344.14L472.31 344.78L473.53 345.45L474.72 346.13L475.91 346.85L477.08 347.58L478.24 348.34L479.39 349.13L480.52 349.93L481.64 350.76L482.75 351.62L483.84 352.5L484.91 353.4L485.97 354.32L487.02 355.27L488.05 356.24L489.06 357.23L490.59 358.81L492.06 360.43L493.48 362.09L494.84 363.78L496.14 365.51L497.38 367.27L498.57 369.06L499.69 370.88L500.76 372.73L501.77 374.61L502.71 376.51L503.6 378.44L504.43 380.38L505.2 382.35L505.91 384.34L506.56 386.35L507.15 388.37L507.68 390.4L508.15 392.45L508.56 394.51L508.9 396.59L509.19 398.67L509.42 400.75L509.58 402.85L509.68 404.94L509.73 407.04L509.71 409.15L509.62 411.25L509.48 413.35L509.28 415.44L509.01 417.53L508.68 419.62L508.29 421.7L507.83 423.76L507.31 425.82L506.73 427.87L506.09 429.9L505.38 431.91L504.61 433.91L503.77 435.89L536.44 468.56L536.8 468.93L537.16 469.31L537.51 469.7L537.85 470.09L538.18 470.48L538.5 470.88L538.82 471.29L539.12 471.7L539.42 472.12L539.71 472.54L539.99 472.97L540.26 473.4L540.52 473.84L540.77 474.28L541.02 474.73L541.25 475.18L541.48 475.63L541.7 476.09L541.9 476.55L542.1 477.02L542.29 477.49L542.47 477.97L542.81 478.93L542.96 479.41L543.1 479.9L543.23 480.39L543.36 480.89L543.58 481.89L543.67 482.39L543.75 482.9L543.83 483.4L543.89 483.92L543.95 484.43L544 484.94L544.03 485.46L544.06 485.98L544.08 487.02L544.07 487.54L544.06 488.05L544.03 488.56L543.95 489.58L543.89 490.09L543.82 490.6L543.75 491.11L543.66 491.61L543.56 492.11L543.46 492.61L543.34 493.11L543.22 493.6L543.08 494.1L542.94 494.59L542.78 495.07L542.62 495.56L542.44 496.04L542.26 496.51L542.07 496.99L541.87 497.46L541.66 497.92L541.44 498.38L541.21 498.84L540.98 499.3L540.73 499.74L540.48 500.19L540.22 500.63L539.94 501.06L539.66 501.49L539.38 501.92L539.08 502.33L538.77 502.75L538.46 503.15L538.14 503.55L537.81 503.95L537.47 504.34L537.13 504.72L536.77 505.1L536.03 505.84L535.64 506.21L534.84 506.91L534.43 507.25L534.02 507.58L533.61 507.9L533.18 508.21L532.76 508.51L532.33 508.8L531.89 509.08L531.45 509.35L531.01 509.61L530.56 509.87L530.11 510.11L529.19 510.57L528.73 510.78L528.26 510.99L527.79 511.18L527.32 511.37L526.84 511.54L526.37 511.71L525.88 511.87L525.4 512.02L524.92 512.15L524.43 512.28L523.94 512.4L523.45 512.51L522.96 512.61L522.46 512.7L521.97 512.78L521.47 512.86L520.97 512.92L520.47 512.97L519.47 513.05L518.97 513.07L517.97 513.09L516.97 513.07L516.47 513.05L515.47 512.97L514.97 512.92L514.48 512.86L513.98 512.78L513.48 512.7L512.99 512.61L512.5 512.51L512.01 512.4L511.52 512.28L511.03 512.16L510.55 512.02L510.06 511.87L509.58 511.71L509.1 511.55L508.63 511.37L508.16 511.18L507.69 510.99L507.22 510.78L506.76 510.57L506.3 510.35L505.84 510.11L505.39 509.87L504.94 509.62L504.5 509.35L504.06 509.08L503.62 508.8L503.19 508.51L502.76 508.21L502.34 507.9L501.92 507.58L501.51 507.25L501.11 506.91L500.7 506.57L500.31 506.21L499.92 505.84L499.53 505.46L466.56 472.49L465.9 472.77L465.24 473.04L464.57 473.3L463.9 473.55L463.24 473.8L462.56 474.04L461.89 474.28L461.22 474.51L459.86 474.95L459.18 475.15L457.82 475.55L457.14 475.74L456.45 475.92L455.77 476.09L455.08 476.26L454.39 476.42L453.7 476.57L453.01 476.72L452.32 476.86L451.63 476.99L450.93 477.11L450.24 477.23L449.54 477.34L448.85 477.45L448.15 477.54L447.45 477.63L446.76 477.72L446.06 477.79L445.36 477.86L444.66 477.92L443.96 477.98L442.56 478.06L441.86 478.1L440.46 478.14L439.75 478.15L439.05 478.15L437.68 478.14L436.3 478.1L434.93 478.03L433.55 477.94L432.18 477.82L430.82 477.68L429.45 477.51L428.09 477.31L426.73 477.09L425.38 476.84L424.03 476.56L422.68 476.26L421.34 475.94L420.01 475.58L418.68 475.2L417.36 474.8L416.05 474.37L414.75 473.91L413.45 473.43L412.16 472.93L410.88 472.39L409.61 471.83L408.35 471.25L407.1 470.64L405.86 470.01L404.63 469.35L403.41 468.66L402.21 467.95L401.01 467.22L399.83 466.46L398.66 465.67L397.51 464.86L396.37 464.02L395.24 463.16L394.13 462.28L393.04 461.37L391.96 460.43L390.89 459.47L389.85 458.48L388.81 457.48L387.82 456.46L386.85 455.43L385.9 454.39L384.98 453.33L384.08 452.25L383.2 451.16L382.34 450.06L381.51 448.94L380.7 447.8L379.92 446.66L379.16 445.5L378.42 444.32L377.71 443.13L377.02 441.93L376.36 440.72L375.72 439.5L375.11 438.26L374.52 437.02L373.95 435.76L373.41 434.49L372.9 433.21L372.41 431.92L371.94 430.62L371.51 429.32L371.09 428L370.71 426.67L370.34 425.34L370.01 424L369.7 422.64L369.42 421.29L369.16 419.92L368.93 418.55L368.73 417.17L368.55 415.78L368.4 414.39L368.28 412.99L368.18 411.59L368.11 410.18L368.07 408.77L368.06 407.35L368.08 405.93L368.12 404.52L368.19 403.11L368.28 401.71L368.41 400.31L368.56 398.92L368.74 397.53L368.94 396.15L369.17 394.78L369.43 393.42L369.71 392.06L370.02 390.71L370.36 389.36L370.72 388.03L371.11 386.7L371.52 385.39L371.96 384.08L372.43 382.78L372.92 381.49L373.43 380.21L373.97 378.95L374.54 377.69L375.13 376.44L375.74 375.21L376.38 373.98L377.05 372.77L377.74 371.57L378.45 370.38L379.19 369.21L379.95 368.05L380.73 366.9L381.54 365.77L382.37 364.65L383.23 363.54L384.11 362.45L385.01 361.38L385.93 360.32L386.88 359.27L387.85 358.24L388.84 357.23L389.85 356.24L390.88 355.27L391.93 354.32L392.99 353.4L394.06 352.5L395.15 351.62L396.25 350.77L397.37 349.94L398.51 349.13L399.65 348.34L400.81 347.58L401.99 346.85L403.17 346.14L404.37 345.45L405.58 344.78L406.81 344.15L408.04 343.53L409.29 342.94L410.54 342.38L411.81 341.84L413.09 341.32L414.38 340.83L415.68 340.37L416.98 339.93L418.3 339.52L419.62 339.13L420.96 338.77L422.3 338.43L423.65 338.12L425.01 337.84L426.37 337.58L427.75 337.35L429.13 337.15L430.51 336.97L431.9 336.82L433.3 336.7L434.7 336.6L436.11 336.53L437.52 336.49L438.94 336.48L438.95 336.48L440.37 336.49L441.78 336.53ZM437.82 351.11L436.7 351.15L435.58 351.2L434.47 351.28L433.36 351.38L432.25 351.5L431.15 351.64L430.06 351.8L428.97 351.98L427.89 352.19L426.81 352.41L425.74 352.66L424.67 352.92L423.62 353.21L422.56 353.52L421.52 353.85L420.48 354.19L419.45 354.56L418.43 354.95L417.41 355.36L416.41 355.79L415.41 356.24L414.42 356.7L413.44 357.19L412.47 357.7L411.51 358.22L410.56 358.77L409.62 359.34L408.69 359.92L407.77 360.52L406.86 361.14L405.96 361.79L405.07 362.44L404.19 363.12L403.33 363.82L402.47 364.53L401.63 365.27L400.8 366.02L399.99 366.79L399.19 367.58L398.4 368.38L397.63 369.2L396.87 370.02L396.14 370.87L395.42 371.72L394.73 372.59L394.05 373.46L393.39 374.35L392.75 375.25L392.12 376.16L391.52 377.08L390.94 378.02L390.37 378.96L389.82 379.91L389.3 380.87L388.79 381.84L388.3 382.82L387.83 383.81L387.38 384.81L386.95 385.82L386.54 386.83L386.15 387.86L385.79 388.89L385.44 389.92L385.11 390.97L384.8 392.02L384.51 393.08L384.25 394.15L384 395.22L383.77 396.3L383.57 397.38L383.39 398.47L383.22 399.57L383.08 400.67L382.96 401.77L382.87 402.88L382.79 403.99L382.73 405.11L382.7 406.23L382.69 407.36L382.7 408.48L382.73 409.6L382.79 410.72L382.86 411.83L382.96 412.94L383.08 414.05L383.22 415.15L383.38 416.24L383.56 417.33L383.77 418.42L383.99 419.49L384.24 420.56L384.5 421.63L384.79 422.69L385.1 423.74L385.42 424.79L385.77 425.83L386.14 426.86L386.53 427.88L386.94 428.89L387.36 429.9L387.81 430.9L388.28 431.89L388.77 432.87L389.28 433.84L389.8 434.8L390.35 435.75L390.91 436.69L391.5 437.63L392.1 438.55L392.72 439.46L393.36 440.36L394.02 441.25L394.7 442.12L395.4 442.99L396.11 443.84L396.85 444.68L397.6 445.51L398.37 446.33L399.16 447.13L400.58 448.5L402.04 449.82L403.53 451.07L405.07 452.26L406.63 453.4L408.23 454.48L409.86 455.49L411.52 456.45L413.21 457.35L414.92 458.19L416.65 458.97L418.41 459.68L420.19 460.34L421.98 460.94L423.8 461.47L425.62 461.95L427.46 462.36L429.32 462.71L431.18 463L433.05 463.23L434.93 463.4L436.81 463.5L438.69 463.54L440.58 463.52L442.46 463.44L444.35 463.29L446.23 463.09L448.1 462.81L449.97 462.48L451.82 462.08L453.67 461.62L455.5 461.09L457.32 460.5L459.13 459.84L460.91 459.12L462.68 458.34L464.43 457.49L466.15 456.57L467.85 455.6L469.52 454.55L469.76 454.39L470.01 454.23L470.25 454.07L470.73 453.75L470.97 453.58L471.21 453.41L471.45 453.25L471.69 453.08L471.93 452.91L472.16 452.73L472.4 452.56L472.64 452.38L472.87 452.21L473.11 452.03L473.34 451.85L473.57 451.67L473.8 451.48L474.04 451.3L474.27 451.11L474.5 450.93L474.73 450.74L474.95 450.55L475.18 450.36L475.41 450.16L475.63 449.97L475.86 449.77L476.08 449.58L476.31 449.38L476.53 449.18L476.75 448.98L476.97 448.77L477.19 448.57L477.41 448.36L477.63 448.16L477.85 447.95L478.07 447.74L478.28 447.53L478.5 447.32L478.71 447.1L478.93 446.89L479.14 446.68L479.35 446.46L479.56 446.24L479.76 446.03L479.97 445.81L480.17 445.59L480.38 445.37L480.58 445.15L480.98 444.71L481.17 444.49L481.37 444.26L481.57 444.04L481.76 443.81L481.95 443.59L482.33 443.13L482.52 442.91L482.7 442.68L482.89 442.45L483.61 441.53L483.79 441.29L483.96 441.06L484.14 440.83L484.31 440.59L484.48 440.36L484.65 440.12L484.82 439.88L484.99 439.65L485.15 439.41L485.31 439.17L485.48 438.93L485.64 438.69L485.79 438.45L485.95 438.21L486.11 437.97L487.16 436.3L488.14 434.6L489.06 432.88L489.91 431.13L490.69 429.36L491.42 427.57L492.07 425.77L492.67 423.95L493.2 422.11L493.66 420.27L494.06 418.41L494.4 416.54L494.67 414.66L494.88 412.78L495.03 410.9L495.11 409.01L495.13 407.13L495.09 405.24L494.99 403.36L494.82 401.48L494.6 399.61L494.31 397.75L493.95 395.89L493.54 394.05L493.07 392.23L492.53 390.41L491.93 388.62L491.28 386.84L490.56 385.08L489.78 383.34L488.94 381.63L488.04 379.95L487.08 378.29L486.07 376.66L484.99 375.06L483.85 373.49L482.66 371.95L481.4 370.46L480.09 369L478.71 367.58L477.91 366.79L477.1 366.02L476.27 365.27L475.43 364.53L474.57 363.82L473.71 363.12L472.83 362.44L471.94 361.78L471.04 361.14L470.13 360.52L469.21 359.92L468.28 359.33L467.34 358.77L466.39 358.22L465.43 357.7L464.46 357.19L463.48 356.7L462.49 356.23L461.49 355.78L460.48 355.36L459.47 354.95L458.45 354.56L457.42 354.19L456.38 353.84L455.33 353.51L454.28 353.21L453.22 352.92L452.16 352.65L451.09 352.41L450.01 352.18L448.93 351.98L447.84 351.8L446.74 351.64L445.64 351.49L444.54 351.38L443.43 351.28L442.32 351.2L441.2 351.15L440.08 351.11L438.95 351.1L438.94 351.1L437.82 351.11Z" id="bn1fOJs1I"></path><path d="M344.78 144.26L344.72 144.44L344.67 144.62L344.61 144.79L344.51 145.15L344.46 145.32L344.36 145.68L344.32 145.86L344.27 146.04L344.23 146.22L344.15 146.58L344.11 146.76L344.07 146.94L344.04 147.12L344 147.3L343.97 147.49L343.94 147.67L343.91 147.85L343.88 148.03L343.86 148.22L343.83 148.4L343.81 148.59L343.79 148.77L343.77 148.96L343.75 149.14L343.73 149.33L343.72 149.52L343.7 149.71L343.69 149.89L343.68 150.08L343.67 150.27L343.67 150.46L343.66 150.65L343.66 150.84L343.65 151.03L343.65 219.39L343.68 220.93L343.78 222.46L343.93 223.96L344.14 225.45L344.41 226.92L344.73 228.37L345.12 229.79L345.55 231.19L346.04 232.57L346.58 233.92L347.17 235.25L347.81 236.55L348.5 237.82L349.24 239.05L350.02 240.26L350.84 241.44L351.71 242.58L352.62 243.68L353.58 244.75L354.57 245.78L355.6 246.77L356.67 247.73L357.77 248.64L358.91 249.51L360.09 250.33L361.29 251.11L362.53 251.85L363.8 252.54L365.1 253.18L366.43 253.77L367.78 254.31L369.16 254.8L370.56 255.23L371.98 255.61L373.43 255.94L374.9 256.21L376.39 256.42L377.89 256.57L379.42 256.67L380.96 256.7L449.32 256.7L449.51 256.69L449.7 256.69L449.89 256.68L450.08 256.68L450.46 256.66L450.64 256.64L450.83 256.63L451.02 256.61L451.2 256.6L451.39 256.58L451.58 256.56L451.76 256.54L451.95 256.51L452.13 256.49L452.31 256.46L452.5 256.43L452.86 256.37L453.05 256.33L453.23 256.3L453.41 256.26L453.77 256.18L453.95 256.14L454.13 256.1L454.31 256.05L454.49 256L454.67 255.96L454.85 255.91L455.02 255.85L455.38 255.75L455.56 255.69L455.73 255.63L456.09 255.51L456.26 255.45L456.44 255.38L456.44 323.7L456.01 323.6L455.58 323.51L455.15 323.43L454.72 323.34L454.29 323.26L453.86 323.18L453.43 323.1L452.57 322.96L452.13 322.89L451.7 322.82L451.27 322.75L450.83 322.69L450.4 322.63L449.96 322.57L449.53 322.52L449.09 322.46L448.65 322.41L448.22 322.36L447.78 322.32L447.34 322.27L446.9 322.23L446.47 322.19L446.03 322.15L445.59 322.12L445.15 322.09L443.83 322L443.39 321.98L442.94 321.96L442.06 321.92L441.62 321.91L441.18 321.89L440.73 321.89L439.85 321.87L438.07 321.87L437.18 321.89L436.3 321.91L435.41 321.94L434.53 321.98L433.65 322.03L432.77 322.09L431.9 322.15L431.02 322.23L430.15 322.32L429.28 322.41L428.41 322.51L427.54 322.62L426.68 322.74L425.81 322.87L424.09 323.15L423.24 323.31L422.38 323.47L421.53 323.64L420.68 323.82L419.84 324.01L418.99 324.21L418.15 324.41L417.31 324.62L416.48 324.85L415.64 325.08L414.81 325.32L413.99 325.56L413.16 325.82L412.34 326.08L411.52 326.35L410.71 326.63L409.89 326.92L409.09 327.22L408.28 327.52L407.48 327.83L406.68 328.15L405.88 328.48L405.09 328.82L405.11 328.77L405.13 328.72L405.14 328.67L405.16 328.62L405.17 328.57L405.19 328.52L405.21 328.47L405.22 328.42L405.24 328.37L405.25 328.32L405.27 328.27L405.28 328.22L405.3 328.17L405.31 328.12L405.33 328.07L405.34 328.02L405.36 327.97L405.37 327.92L405.38 327.87L405.39 327.82L405.41 327.77L405.42 327.72L405.43 327.67L405.44 327.62L405.45 327.56L405.48 327.41L405.49 327.36L405.49 327.3L405.5 327.25L405.51 327.2L405.51 327.15L405.52 327.09L405.52 326.99L405.53 326.93L405.53 326.47L405.51 326.17L405.48 325.88L405.44 325.59L405.38 325.3L405.32 325.02L405.16 324.46L405.06 324.19L404.84 323.67L404.71 323.41L404.58 323.17L404.43 322.92L404.28 322.69L404.12 322.46L403.94 322.23L403.76 322.01L403.58 321.8L403.38 321.6L403.18 321.41L402.97 321.22L402.75 321.04L402.53 320.87L402.3 320.71L402.06 320.55L401.82 320.41L401.57 320.27L401.32 320.15L401.06 320.03L400.79 319.92L400.52 319.83L400.25 319.74L399.97 319.67L399.69 319.6L399.4 319.55L399.11 319.51L398.81 319.48L398.52 319.46L398.22 319.45L233.72 319.45L233.42 319.46L233.12 319.48L232.83 319.51L232.54 319.55L232.25 319.6L231.69 319.74L231.41 319.83L231.14 319.92L230.88 320.03L230.62 320.15L230.36 320.27L230.12 320.41L229.87 320.55L229.41 320.87L229.18 321.04L228.97 321.22L228.76 321.41L228.55 321.6L228.36 321.8L228.17 322.01L227.99 322.23L227.82 322.46L227.5 322.92L227.36 323.17L227.22 323.41L226.98 323.93L226.88 324.19L226.78 324.46L226.69 324.74L226.55 325.3L226.5 325.59L226.46 325.88L226.43 326.17L226.41 326.47L226.4 326.77L226.41 327.07L226.43 327.37L226.46 327.66L226.5 327.95L226.55 328.24L226.69 328.8L226.78 329.07L226.88 329.34L226.98 329.61L227.1 329.87L227.22 330.12L227.36 330.37L227.5 330.61L227.66 330.85L227.82 331.08L227.99 331.3L228.17 331.52L228.36 331.73L228.55 331.93L228.76 332.13L228.97 332.32L229.18 332.5L229.41 332.67L229.64 332.83L229.87 332.98L230.12 333.13L230.36 333.26L230.62 333.39L230.88 333.5L231.14 333.61L231.41 333.71L231.97 333.87L232.25 333.93L232.54 333.99L232.83 334.03L233.12 334.06L233.42 334.08L395 334.08L394.56 334.35L394.11 334.62L393.23 335.18L392.79 335.45L392.36 335.74L391.92 336.02L391.49 336.31L391.06 336.59L390.63 336.88L390.2 337.18L389.77 337.47L389.34 337.77L388.92 338.07L388.5 338.38L388.07 338.68L387.65 338.99L387.24 339.3L386.82 339.62L386.4 339.93L385.99 340.25L385.58 340.58L385.17 340.9L384.76 341.23L384.35 341.56L383.95 341.89L383.55 342.23L383.14 342.57L382.75 342.91L381.95 343.61L381.56 343.96L381.16 344.31L380.38 345.03L380 345.39L379.61 345.76L379.23 346.13L378.85 346.51L378.47 346.88L378.01 347.35L377.55 347.82L377.1 348.29L376.66 348.77L376.21 349.25L375.77 349.73L375.34 350.21L374.05 351.68L373.63 352.17L373.22 352.67L372.4 353.67L372 354.18L371.6 354.68L371.2 355.19L370.81 355.71L370.42 356.22L369.28 357.78L368.91 358.3L368.55 358.83L368.18 359.36L367.83 359.89L367.47 360.43L367.12 360.96L366.78 361.5L366.43 362.04L366.1 362.59L365.76 363.13L365.43 363.68L364.79 364.78L364.47 365.34L364.16 365.9L363.86 366.46L363.55 367.02L363.25 367.58L233.65 367.58L233.35 367.59L233.05 367.61L232.75 367.64L232.46 367.68L232.18 367.73L231.89 367.8L231.61 367.87L231.07 368.05L230.81 368.16L230.29 368.4L230.04 368.54L229.8 368.68L229.56 368.84L229.33 369L229.11 369.17L228.89 369.35L228.68 369.54L228.48 369.73L228.28 369.93L228.1 370.14L227.92 370.36L227.75 370.58L227.58 370.81L227.43 371.05L227.29 371.29L227.15 371.54L227.02 371.8L226.8 372.32L226.71 372.59L226.62 372.86L226.54 373.14L226.48 373.43L226.43 373.71L226.39 374L226.36 374.3L226.34 374.6L226.33 374.9L226.34 375.2L226.36 375.49L226.39 375.79L226.43 376.08L226.48 376.37L226.54 376.65L226.62 376.93L226.71 377.2L226.8 377.47L226.91 377.74L227.02 378L227.15 378.25L227.29 378.5L227.43 378.74L227.58 378.98L227.75 379.21L227.92 379.43L228.1 379.65L228.28 379.86L228.48 380.06L228.68 380.26L228.89 380.44L229.11 380.62L229.33 380.79L229.56 380.96L229.8 381.11L230.04 381.26L230.29 381.39L230.55 381.52L230.81 381.63L231.07 381.74L231.34 381.84L231.61 381.92L231.89 382L232.18 382.06L232.46 382.11L232.75 382.16L233.05 382.19L233.65 382.21L357.18 382.21L357 382.81L356.82 383.42L356.65 384.03L356.48 384.63L356.31 385.24L356.15 385.86L355.99 386.47L355.84 387.08L355.69 387.7L355.55 388.31L355.41 388.93L355.15 390.17L355.03 390.79L354.91 391.41L354.8 392.04L354.69 392.66L354.58 393.29L354.48 393.92L354.39 394.54L354.3 395.17L354.21 395.81L354.13 396.44L354.05 397.07L353.98 397.71L353.91 398.34L353.85 398.98L353.79 399.62L353.64 401.54L353.6 402.18L353.57 402.83L353.54 403.47L353.51 404.12L353.49 404.77L353.47 405.42L353.46 406.07L353.46 406.72L353.45 407.37L353.45 407.79L353.46 408L353.46 408.63L353.47 408.84L353.47 409.26L353.48 409.47L353.49 409.68L353.49 409.89L353.5 410.1L353.5 410.31L353.54 411.15L353.54 411.37L353.55 411.58L353.56 411.79L353.57 412L353.58 412.21L353.6 412.42L353.61 412.63L353.62 412.84L353.63 413.05L353.64 413.27L353.66 413.48L353.68 413.9L353.7 414.11L353.71 414.32L353.73 414.53L353.74 414.74L353.76 414.95L353.77 415.16L353.79 415.37L353.8 415.57L353.82 415.78L233.65 415.78L233.35 415.79L233.05 415.81L232.75 415.84L232.46 415.88L232.18 415.93L231.89 416L231.61 416.07L231.34 416.16L231.07 416.25L230.81 416.36L230.29 416.6L230.04 416.74L229.8 416.88L229.56 417.04L229.33 417.2L229.11 417.37L228.89 417.55L228.68 417.74L228.48 417.93L228.28 418.13L228.1 418.34L227.92 418.56L227.75 418.78L227.58 419.01L227.43 419.25L227.29 419.49L227.15 419.74L227.02 420L226.8 420.52L226.71 420.79L226.62 421.07L226.54 421.34L226.48 421.63L226.43 421.91L226.39 422.21L226.36 422.5L226.34 422.8L226.33 423.1L226.34 423.4L226.36 423.69L226.39 423.99L226.43 424.28L226.48 424.57L226.54 424.85L226.62 425.13L226.8 425.67L226.91 425.94L227.02 426.2L227.15 426.45L227.29 426.7L227.43 426.94L227.58 427.18L227.75 427.41L227.92 427.63L228.1 427.85L228.28 428.06L228.48 428.26L228.68 428.46L228.89 428.65L229.11 428.82L229.33 429L229.56 429.16L229.8 429.31L230.04 429.46L230.29 429.59L230.55 429.72L231.07 429.94L231.34 430.04L231.61 430.12L231.89 430.2L232.18 430.26L232.46 430.31L232.75 430.36L233.05 430.39L233.35 430.41L356.6 430.41L356.9 431.46L357.22 432.5L357.55 433.54L357.89 434.57L358.24 435.6L358.61 436.62L358.99 437.64L359.38 438.65L359.78 439.66L360.2 440.66L360.63 441.66L361.07 442.65L361.53 443.64L362 444.62L362.48 445.6L362.97 446.57L363.47 447.53L363.99 448.49L364.52 449.44L365.06 450.39L365.62 451.33L366.19 452.26L366.77 453.19L367.36 454.1L367.96 455.02L368.58 455.92L369.21 456.82L369.85 457.71L370.5 458.59L371.16 459.47L371.84 460.34L372.53 461.2L373.23 462.05L373.94 462.89L374.67 463.73L375.4 464.56L376.15 465.38L376.91 466.19L377.68 466.99L378.47 467.79L379.69 468.99L380.92 470.16L382.18 471.3L383.45 472.42L384.75 473.5L386.06 474.56L387.39 475.59L388.74 476.6L390.11 477.57L391.49 478.52L392.89 479.43L394.31 480.32L395.74 481.18L397.18 482.01L398.65 482.81L400.12 483.58L401.61 484.32L403.12 485.03L404.64 485.71L406.17 486.36L407.72 486.98L409.27 487.57L410.84 488.12L412.43 488.65L414.02 489.15L415.62 489.62L417.24 490.05L418.86 490.45L420.5 490.83L422.14 491.17L423.8 491.48L425.46 491.75L427.13 492L428.81 492.21L430.49 492.39L432.19 492.54L433.89 492.65L435.6 492.74L437.31 492.79L439.03 492.8L439.89 492.8L440.31 492.79L441.6 492.76L442.02 492.74L442.45 492.72L442.88 492.7L443.31 492.68L443.73 492.66L444.59 492.6L445.01 492.57L445.44 492.54L445.87 492.5L446.29 492.46L446.72 492.42L447.14 492.38L447.57 492.34L448 492.29L448.42 492.24L448.84 492.19L449.27 492.14L449.69 492.08L450.12 492.03L451.38 491.85L451.81 491.78L452.23 491.72L453.07 491.58L453.49 491.51L453.91 491.44L454.33 491.36L454.75 491.29L455.16 491.21L455.58 491.13L456 491.05L455.84 491.83L455.66 492.61L455.45 493.37L455.22 494.13L454.95 494.87L454.67 495.6L454.36 496.32L454.02 497.02L453.67 497.72L453.29 498.39L452.88 499.06L452.46 499.7L452.01 500.34L451.55 500.95L451.06 501.55L450.55 502.14L450.03 502.7L449.48 503.25L448.92 503.78L448.34 504.29L447.74 504.77L447.12 505.24L446.49 505.69L445.85 506.12L445.18 506.52L444.51 506.91L443.82 507.27L443.11 507.6L442.39 507.92L441.66 508.2L440.92 508.47L440.16 508.7L439.4 508.92L438.62 509.1L437.83 509.26L437.04 509.39L436.23 509.49L435.42 509.57L434.59 509.61L433.76 509.63L198.17 509.63L197.24 509.61L196.31 509.55L195.4 509.46L194.49 509.33L193.6 509.16L192.72 508.97L191.86 508.73L191 508.47L190.16 508.17L189.34 507.84L188.53 507.48L187.74 507.09L186.97 506.67L186.21 506.22L185.48 505.75L184.76 505.25L184.06 504.72L183.39 504.16L182.74 503.58L182.11 502.98L181.5 502.35L180.92 501.7L180.36 501.03L179.83 500.34L179.32 499.62L178.85 498.89L178.39 498.14L177.97 497.36L177.58 496.58L177.22 495.77L176.89 494.95L176.59 494.11L176.32 493.26L176.09 492.39L175.89 491.52L175.72 490.63L175.59 489.72L175.5 488.81L175.44 487.88L175.42 486.95L175.42 166.58L175.44 165.65L175.5 164.73L175.59 163.81L175.72 162.91L175.89 162.02L176.09 161.14L176.32 160.28L176.59 159.42L176.89 158.59L177.22 157.77L177.58 156.96L177.97 156.17L178.39 155.4L178.85 154.65L179.32 153.91L179.83 153.2L180.36 152.51L180.92 151.84L181.5 151.18L182.11 150.56L182.74 149.95L183.39 149.37L184.06 148.82L184.76 148.29L185.48 147.79L186.21 147.31L186.97 146.86L187.74 146.44L188.53 146.05L189.34 145.69L190.16 145.37L191 145.07L191.86 144.8L192.72 144.57L193.6 144.37L194.49 144.21L195.4 144.08L196.31 143.99L197.24 143.93L198.17 143.91L344.9 143.91L344.84 144.09L344.78 144.26ZM233.12 271.35L232.83 271.38L232.54 271.42L232.25 271.47L231.97 271.53L231.69 271.61L231.41 271.69L231.14 271.79L230.88 271.89L230.62 272.01L230.36 272.13L230.12 272.26L229.87 272.41L229.64 272.56L229.41 272.72L229.18 272.89L228.97 273.07L228.76 273.25L228.55 273.45L228.36 273.65L228.17 273.86L227.99 274.07L227.82 274.3L227.66 274.53L227.5 274.76L227.36 275L227.22 275.25L226.98 275.77L226.88 276.03L226.78 276.31L226.69 276.58L226.62 276.86L226.55 277.15L226.5 277.44L226.46 277.73L226.43 278.03L226.41 278.33L226.4 278.64L226.41 278.94L226.43 279.24L226.46 279.53L226.5 279.82L226.55 280.11L226.69 280.67L226.78 280.95L226.88 281.22L226.98 281.48L227.1 281.74L227.22 281.99L227.5 282.49L227.66 282.72L227.82 282.95L227.99 283.18L228.17 283.39L228.55 283.81L228.76 284L228.97 284.19L229.18 284.37L229.41 284.54L229.64 284.7L229.87 284.85L230.12 285L230.36 285.13L230.62 285.26L230.88 285.38L231.14 285.48L231.41 285.58L231.69 285.67L231.97 285.74L232.25 285.8L232.54 285.86L232.83 285.9L233.12 285.93L233.42 285.95L398.52 285.95L398.81 285.93L399.11 285.9L399.4 285.86L399.69 285.8L399.97 285.74L400.25 285.67L400.52 285.58L401.06 285.38L401.32 285.26L401.82 285L402.06 284.85L402.3 284.7L402.53 284.54L402.75 284.37L402.97 284.19L403.18 284L403.38 283.81L403.58 283.6L403.76 283.39L403.94 283.18L404.12 282.95L404.28 282.72L404.43 282.49L404.58 282.24L404.84 281.74L405.06 281.22L405.16 280.95L405.24 280.67L405.32 280.39L405.38 280.11L405.44 279.82L405.48 279.53L405.51 279.24L405.53 278.94L405.53 278.33L405.51 278.03L405.48 277.73L405.44 277.44L405.32 276.86L405.24 276.58L405.16 276.31L405.06 276.03L404.84 275.51L404.71 275.25L404.58 275L404.43 274.76L404.28 274.53L404.12 274.3L403.94 274.07L403.76 273.86L403.58 273.65L403.18 273.25L402.97 273.07L402.75 272.89L402.53 272.72L402.3 272.56L401.82 272.26L401.57 272.13L401.32 272.01L401.06 271.89L400.79 271.79L400.52 271.69L400.25 271.61L399.97 271.53L399.69 271.47L399.4 271.42L399.11 271.38L398.81 271.35L398.52 271.33L233.42 271.33L233.12 271.35ZM233.42 223.13L233.12 223.15L232.83 223.18L232.54 223.22L232.25 223.27L231.69 223.41L231.41 223.5L231.14 223.6L230.88 223.7L230.62 223.82L230.36 223.94L230.12 224.08L229.87 224.22L229.64 224.38L229.41 224.54L229.18 224.71L228.97 224.89L228.76 225.08L228.55 225.27L228.17 225.69L227.99 225.9L227.82 226.13L227.66 226.36L227.5 226.59L227.36 226.84L227.22 227.08L226.98 227.6L226.88 227.86L226.78 228.13L226.69 228.41L226.55 228.97L226.5 229.26L226.46 229.55L226.43 229.84L226.41 230.14L226.4 230.44L226.41 230.74L226.43 231.04L226.46 231.33L226.5 231.62L226.55 231.91L226.69 232.47L226.78 232.74L226.88 233.01L226.98 233.28L227.1 233.54L227.22 233.79L227.36 234.04L227.5 234.28L227.66 234.52L227.82 234.75L227.99 234.98L228.17 235.19L228.36 235.4L228.55 235.6L228.76 235.8L228.97 235.99L229.18 236.17L229.41 236.34L229.64 236.5L229.87 236.65L230.12 236.8L230.36 236.93L230.62 237.06L230.88 237.18L231.14 237.28L231.41 237.38L231.97 237.54L232.25 237.6L232.54 237.66L232.83 237.7L233.12 237.73L233.42 237.75L332.1 237.75L332.4 237.73L332.69 237.7L332.99 237.66L333.27 237.6L333.56 237.54L333.83 237.46L334.11 237.38L334.38 237.28L334.64 237.18L334.9 237.06L335.16 236.93L335.41 236.8L335.65 236.65L335.89 236.5L336.12 236.34L336.34 236.17L336.56 235.99L336.77 235.8L336.97 235.6L337.16 235.4L337.35 235.19L337.53 234.98L337.7 234.75L337.86 234.52L338.02 234.28L338.16 234.04L338.3 233.79L338.42 233.54L338.54 233.28L338.65 233.01L338.83 232.47L338.97 231.91L339.02 231.62L339.06 231.33L339.09 231.04L339.11 230.74L339.12 230.44L339.11 230.14L339.09 229.84L339.06 229.55L339.02 229.26L338.97 228.97L338.83 228.41L338.74 228.13L338.65 227.86L338.54 227.6L338.3 227.08L338.16 226.84L338.02 226.59L337.86 226.36L337.7 226.13L337.53 225.9L337.35 225.69L336.97 225.27L336.77 225.08L336.56 224.89L336.34 224.71L336.12 224.54L335.89 224.38L335.65 224.22L335.41 224.08L335.16 223.94L334.64 223.7L334.38 223.6L334.11 223.5L333.83 223.41L333.56 223.34L333.27 223.27L332.99 223.22L332.69 223.18L332.4 223.15L332.1 223.13L331.8 223.12L233.72 223.12L233.42 223.13Z" id="b3vPyGuR9j"></path><path d="M344.78 144.26L344.72 144.44L344.67 144.62L344.61 144.79L344.51 145.15L344.46 145.32L344.36 145.68L344.32 145.86L344.27 146.04L344.23 146.22L344.15 146.58L344.11 146.76L344.07 146.94L344.04 147.12L344 147.3L343.97 147.49L343.94 147.67L343.91 147.85L343.88 148.03L343.86 148.22L343.83 148.4L343.81 148.59L343.79 148.77L343.77 148.96L343.75 149.14L343.73 149.33L343.72 149.52L343.7 149.71L343.69 149.89L343.68 150.08L343.67 150.27L343.67 150.46L343.66 150.65L343.66 150.84L343.65 151.03L343.65 219.39L343.68 220.93L343.78 222.46L343.93 223.96L344.14 225.45L344.41 226.92L344.73 228.37L345.12 229.79L345.55 231.19L346.04 232.57L346.58 233.92L347.17 235.25L347.81 236.55L348.5 237.82L349.24 239.05L350.02 240.26L350.84 241.44L351.71 242.58L352.62 243.68L353.58 244.75L354.57 245.78L355.6 246.77L356.67 247.73L357.77 248.64L358.91 249.51L360.09 250.33L361.29 251.11L362.53 251.85L363.8 252.54L365.1 253.18L366.43 253.77L367.78 254.31L369.16 254.8L370.56 255.23L371.98 255.61L373.43 255.94L374.9 256.21L376.39 256.42L377.89 256.57L379.42 256.67L380.96 256.7L449.32 256.7L449.51 256.69L449.7 256.69L449.89 256.68L450.08 256.68L450.46 256.66L450.64 256.64L450.83 256.63L451.02 256.61L451.2 256.6L451.39 256.58L451.58 256.56L451.76 256.54L451.95 256.51L452.13 256.49L452.31 256.46L452.5 256.43L452.86 256.37L453.05 256.33L453.23 256.3L453.41 256.26L453.77 256.18L453.95 256.14L454.13 256.1L454.31 256.05L454.49 256L454.67 255.96L454.85 255.91L455.02 255.85L455.38 255.75L455.56 255.69L455.73 255.63L456.09 255.51L456.26 255.45L456.44 255.38L456.44 323.7L456.01 323.6L455.58 323.51L455.15 323.43L454.72 323.34L454.29 323.26L453.86 323.18L453.43 323.1L452.57 322.96L452.13 322.89L451.7 322.82L451.27 322.75L450.83 322.69L450.4 322.63L449.96 322.57L449.53 322.52L449.09 322.46L448.65 322.41L448.22 322.36L447.78 322.32L447.34 322.27L446.9 322.23L446.47 322.19L446.03 322.15L445.59 322.12L445.15 322.09L443.83 322L443.39 321.98L442.94 321.96L442.06 321.92L441.62 321.91L441.18 321.89L440.73 321.89L439.85 321.87L438.07 321.87L437.18 321.89L436.3 321.91L435.41 321.94L434.53 321.98L433.65 322.03L432.77 322.09L431.9 322.15L431.02 322.23L430.15 322.32L429.28 322.41L428.41 322.51L427.54 322.62L426.68 322.74L425.81 322.87L424.09 323.15L423.24 323.31L422.38 323.47L421.53 323.64L420.68 323.82L419.84 324.01L418.99 324.21L418.15 324.41L417.31 324.62L416.48 324.85L415.64 325.08L414.81 325.32L413.99 325.56L413.16 325.82L412.34 326.08L411.52 326.35L410.71 326.63L409.89 326.92L409.09 327.22L408.28 327.52L407.48 327.83L406.68 328.15L405.88 328.48L405.09 328.82L405.11 328.77L405.13 328.72L405.14 328.67L405.16 328.62L405.17 328.57L405.19 328.52L405.21 328.47L405.22 328.42L405.24 328.37L405.25 328.32L405.27 328.27L405.28 328.22L405.3 328.17L405.31 328.12L405.33 328.07L405.34 328.02L405.36 327.97L405.37 327.92L405.38 327.87L405.39 327.82L405.41 327.77L405.42 327.72L405.43 327.67L405.44 327.62L405.45 327.56L405.48 327.41L405.49 327.36L405.49 327.3L405.5 327.25L405.51 327.2L405.51 327.15L405.52 327.09L405.52 326.99L405.53 326.93L405.53 326.47L405.51 326.17L405.48 325.88L405.44 325.59L405.38 325.3L405.32 325.02L405.16 324.46L405.06 324.19L404.84 323.67L404.71 323.41L404.58 323.17L404.43 322.92L404.28 322.69L404.12 322.46L403.94 322.23L403.76 322.01L403.58 321.8L403.38 321.6L403.18 321.41L402.97 321.22L402.75 321.04L402.53 320.87L402.3 320.71L402.06 320.55L401.82 320.41L401.57 320.27L401.32 320.15L401.06 320.03L400.79 319.92L400.52 319.83L400.25 319.74L399.97 319.67L399.69 319.6L399.4 319.55L399.11 319.51L398.81 319.48L398.52 319.46L398.22 319.45L233.72 319.45L233.42 319.46L233.12 319.48L232.83 319.51L232.54 319.55L232.25 319.6L231.69 319.74L231.41 319.83L231.14 319.92L230.88 320.03L230.62 320.15L230.36 320.27L230.12 320.41L229.87 320.55L229.41 320.87L229.18 321.04L228.97 321.22L228.76 321.41L228.55 321.6L228.36 321.8L228.17 322.01L227.99 322.23L227.82 322.46L227.5 322.92L227.36 323.17L227.22 323.41L226.98 323.93L226.88 324.19L226.78 324.46L226.69 324.74L226.55 325.3L226.5 325.59L226.46 325.88L226.43 326.17L226.41 326.47L226.4 326.77L226.41 327.07L226.43 327.37L226.46 327.66L226.5 327.95L226.55 328.24L226.69 328.8L226.78 329.07L226.88 329.34L226.98 329.61L227.1 329.87L227.22 330.12L227.36 330.37L227.5 330.61L227.66 330.85L227.82 331.08L227.99 331.3L228.17 331.52L228.36 331.73L228.55 331.93L228.76 332.13L228.97 332.32L229.18 332.5L229.41 332.67L229.64 332.83L229.87 332.98L230.12 333.13L230.36 333.26L230.62 333.39L230.88 333.5L231.14 333.61L231.41 333.71L231.97 333.87L232.25 333.93L232.54 333.99L232.83 334.03L233.12 334.06L233.42 334.08L395 334.08L394.56 334.35L394.11 334.62L393.23 335.18L392.79 335.45L392.36 335.74L391.92 336.02L391.49 336.31L391.06 336.59L390.63 336.88L390.2 337.18L389.77 337.47L389.34 337.77L388.92 338.07L388.5 338.38L388.07 338.68L387.65 338.99L387.24 339.3L386.82 339.62L386.4 339.93L385.99 340.25L385.58 340.58L385.17 340.9L384.76 341.23L384.35 341.56L383.95 341.89L383.55 342.23L383.14 342.57L382.75 342.91L381.95 343.61L381.56 343.96L381.16 344.31L380.38 345.03L380 345.39L379.61 345.76L379.23 346.13L378.85 346.51L378.47 346.88L378.01 347.35L377.55 347.82L377.1 348.29L376.66 348.77L376.21 349.25L375.77 349.73L375.34 350.21L374.05 351.68L373.63 352.17L373.22 352.67L372.4 353.67L372 354.18L371.6 354.68L371.2 355.19L370.81 355.71L370.42 356.22L369.28 357.78L368.91 358.3L368.55 358.83L368.18 359.36L367.83 359.89L367.47 360.43L367.12 360.96L366.78 361.5L366.43 362.04L366.1 362.59L365.76 363.13L365.43 363.68L364.79 364.78L364.47 365.34L364.16 365.9L363.86 366.46L363.55 367.02L363.25 367.58L233.65 367.58L233.35 367.59L233.05 367.61L232.75 367.64L232.46 367.68L232.18 367.73L231.89 367.8L231.61 367.87L231.07 368.05L230.81 368.16L230.29 368.4L230.04 368.54L229.8 368.68L229.56 368.84L229.33 369L229.11 369.17L228.89 369.35L228.68 369.54L228.48 369.73L228.28 369.93L228.1 370.14L227.92 370.36L227.75 370.58L227.58 370.81L227.43 371.05L227.29 371.29L227.15 371.54L227.02 371.8L226.8 372.32L226.71 372.59L226.62 372.86L226.54 373.14L226.48 373.43L226.43 373.71L226.39 374L226.36 374.3L226.34 374.6L226.33 374.9L226.34 375.2L226.36 375.49L226.39 375.79L226.43 376.08L226.48 376.37L226.54 376.65L226.62 376.93L226.71 377.2L226.8 377.47L226.91 377.74L227.02 378L227.15 378.25L227.29 378.5L227.43 378.74L227.58 378.98L227.75 379.21L227.92 379.43L228.1 379.65L228.28 379.86L228.48 380.06L228.68 380.26L228.89 380.44L229.11 380.62L229.33 380.79L229.56 380.96L229.8 381.11L230.04 381.26L230.29 381.39L230.55 381.52L230.81 381.63L231.07 381.74L231.34 381.84L231.61 381.92L231.89 382L232.18 382.06L232.46 382.11L232.75 382.16L233.05 382.19L233.65 382.21L357.18 382.21L357 382.81L356.82 383.42L356.65 384.03L356.48 384.63L356.31 385.24L356.15 385.86L355.99 386.47L355.84 387.08L355.69 387.7L355.55 388.31L355.41 388.93L355.15 390.17L355.03 390.79L354.91 391.41L354.8 392.04L354.69 392.66L354.58 393.29L354.48 393.92L354.39 394.54L354.3 395.17L354.21 395.81L354.13 396.44L354.05 397.07L353.98 397.71L353.91 398.34L353.85 398.98L353.79 399.62L353.64 401.54L353.6 402.18L353.57 402.83L353.54 403.47L353.51 404.12L353.49 404.77L353.47 405.42L353.46 406.07L353.46 406.72L353.45 407.37L353.45 407.79L353.46 408L353.46 408.63L353.47 408.84L353.47 409.26L353.48 409.47L353.49 409.68L353.49 409.89L353.5 410.1L353.5 410.31L353.54 411.15L353.54 411.37L353.55 411.58L353.56 411.79L353.57 412L353.58 412.21L353.6 412.42L353.61 412.63L353.62 412.84L353.63 413.05L353.64 413.27L353.66 413.48L353.68 413.9L353.7 414.11L353.71 414.32L353.73 414.53L353.74 414.74L353.76 414.95L353.77 415.16L353.79 415.37L353.8 415.57L353.82 415.78L233.65 415.78L233.35 415.79L233.05 415.81L232.75 415.84L232.46 415.88L232.18 415.93L231.89 416L231.61 416.07L231.34 416.16L231.07 416.25L230.81 416.36L230.29 416.6L230.04 416.74L229.8 416.88L229.56 417.04L229.33 417.2L229.11 417.37L228.89 417.55L228.68 417.74L228.48 417.93L228.28 418.13L228.1 418.34L227.92 418.56L227.75 418.78L227.58 419.01L227.43 419.25L227.29 419.49L227.15 419.74L227.02 420L226.8 420.52L226.71 420.79L226.62 421.07L226.54 421.34L226.48 421.63L226.43 421.91L226.39 422.21L226.36 422.5L226.34 422.8L226.33 423.1L226.34 423.4L226.36 423.69L226.39 423.99L226.43 424.28L226.48 424.57L226.54 424.85L226.62 425.13L226.8 425.67L226.91 425.94L227.02 426.2L227.15 426.45L227.29 426.7L227.43 426.94L227.58 427.18L227.75 427.41L227.92 427.63L228.1 427.85L228.28 428.06L228.48 428.26L228.68 428.46L228.89 428.65L229.11 428.82L229.33 429L229.56 429.16L229.8 429.31L230.04 429.46L230.29 429.59L230.55 429.72L231.07 429.94L231.34 430.04L231.61 430.12L231.89 430.2L232.18 430.26L232.46 430.31L232.75 430.36L233.05 430.39L233.35 430.41L356.6 430.41L356.9 431.46L357.22 432.5L357.55 433.54L357.89 434.57L358.24 435.6L358.61 436.62L358.99 437.64L359.38 438.65L359.78 439.66L360.2 440.66L360.63 441.66L361.07 442.65L361.53 443.64L362 444.62L362.48 445.6L362.97 446.57L363.47 447.53L363.99 448.49L364.52 449.44L365.06 450.39L365.62 451.33L366.19 452.26L366.77 453.19L367.36 454.1L367.96 455.02L368.58 455.92L369.21 456.82L369.85 457.71L370.5 458.59L371.16 459.47L371.84 460.34L372.53 461.2L373.23 462.05L373.94 462.89L374.67 463.73L375.4 464.56L376.15 465.38L376.91 466.19L377.68 466.99L378.47 467.79L379.69 468.99L380.92 470.16L382.18 471.3L383.45 472.42L384.75 473.5L386.06 474.56L387.39 475.59L388.74 476.6L390.11 477.57L391.49 478.52L392.89 479.43L394.31 480.32L395.74 481.18L397.18 482.01L398.65 482.81L400.12 483.58L401.61 484.32L403.12 485.03L404.64 485.71L406.17 486.36L407.72 486.98L409.27 487.57L410.84 488.12L412.43 488.65L414.02 489.15L415.62 489.62L417.24 490.05L418.86 490.45L420.5 490.83L422.14 491.17L423.8 491.48L425.46 491.75L427.13 492L428.81 492.21L430.49 492.39L432.19 492.54L433.89 492.65L435.6 492.74L437.31 492.79L439.03 492.8L439.89 492.8L440.31 492.79L441.6 492.76L442.02 492.74L442.45 492.72L442.88 492.7L443.31 492.68L443.73 492.66L444.59 492.6L445.01 492.57L445.44 492.54L445.87 492.5L446.29 492.46L446.72 492.42L447.14 492.38L447.57 492.34L448 492.29L448.42 492.24L448.84 492.19L449.27 492.14L449.69 492.08L450.12 492.03L451.38 491.85L451.81 491.78L452.23 491.72L453.07 491.58L453.49 491.51L453.91 491.44L454.33 491.36L454.75 491.29L455.16 491.21L455.58 491.13L456 491.05L455.84 491.83L455.66 492.61L455.45 493.37L455.22 494.13L454.95 494.87L454.67 495.6L454.36 496.32L454.02 497.02L453.67 497.72L453.29 498.39L452.88 499.06L452.46 499.7L452.01 500.34L451.55 500.95L451.06 501.55L450.55 502.14L450.03 502.7L449.48 503.25L448.92 503.78L448.34 504.29L447.74 504.77L447.12 505.24L446.49 505.69L445.85 506.12L445.18 506.52L444.51 506.91L443.82 507.27L443.11 507.6L442.39 507.92L441.66 508.2L440.92 508.47L440.16 508.7L439.4 508.92L438.62 509.1L437.83 509.26L437.04 509.39L436.23 509.49L435.42 509.57L434.59 509.61L433.76 509.63L198.17 509.63L197.24 509.61L196.31 509.55L195.4 509.46L194.49 509.33L193.6 509.16L192.72 508.97L191.86 508.73L191 508.47L190.16 508.17L189.34 507.84L188.53 507.48L187.74 507.09L186.97 506.67L186.21 506.22L185.48 505.75L184.76 505.25L184.06 504.72L183.39 504.16L182.74 503.58L182.11 502.98L181.5 502.35L180.92 501.7L180.36 501.03L179.83 500.34L179.32 499.62L178.85 498.89L178.39 498.14L177.97 497.36L177.58 496.58L177.22 495.77L176.89 494.95L176.59 494.11L176.32 493.26L176.09 492.39L175.89 491.52L175.72 490.63L175.59 489.72L175.5 488.81L175.44 487.88L175.42 486.95L175.42 166.58L175.44 165.65L175.5 164.73L175.59 163.81L175.72 162.91L175.89 162.02L176.09 161.14L176.32 160.28L176.59 159.42L176.89 158.59L177.22 157.77L177.58 156.96L177.97 156.17L178.39 155.4L178.85 154.65L179.32 153.91L179.83 153.2L180.36 152.51L180.92 151.84L181.5 151.18L182.11 150.56L182.74 149.95L183.39 149.37L184.06 148.82L184.76 148.29L185.48 147.79L186.21 147.31L186.97 146.86L187.74 146.44L188.53 146.05L189.34 145.69L190.16 145.37L191 145.07L191.86 144.8L192.72 144.57L193.6 144.37L194.49 144.21L195.4 144.08L196.31 143.99L197.24 143.93L198.17 143.91L344.9 143.91L344.84 144.09L344.78 144.26ZM233.12 271.35L232.83 271.38L232.54 271.42L232.25 271.47L231.97 271.53L231.69 271.61L231.41 271.69L231.14 271.79L230.88 271.89L230.62 272.01L230.36 272.13L230.12 272.26L229.87 272.41L229.64 272.56L229.41 272.72L229.18 272.89L228.97 273.07L228.76 273.25L228.55 273.45L228.36 273.65L228.17 273.86L227.99 274.07L227.82 274.3L227.66 274.53L227.5 274.76L227.36 275L227.22 275.25L226.98 275.77L226.88 276.03L226.78 276.31L226.69 276.58L226.62 276.86L226.55 277.15L226.5 277.44L226.46 277.73L226.43 278.03L226.41 278.33L226.4 278.64L226.41 278.94L226.43 279.24L226.46 279.53L226.5 279.82L226.55 280.11L226.69 280.67L226.78 280.95L226.88 281.22L226.98 281.48L227.1 281.74L227.22 281.99L227.5 282.49L227.66 282.72L227.82 282.95L227.99 283.18L228.17 283.39L228.55 283.81L228.76 284L228.97 284.19L229.18 284.37L229.41 284.54L229.64 284.7L229.87 284.85L230.12 285L230.36 285.13L230.62 285.26L230.88 285.38L231.14 285.48L231.41 285.58L231.69 285.67L231.97 285.74L232.25 285.8L232.54 285.86L232.83 285.9L233.12 285.93L233.42 285.95L398.52 285.95L398.81 285.93L399.11 285.9L399.4 285.86L399.69 285.8L399.97 285.74L400.25 285.67L400.52 285.58L401.06 285.38L401.32 285.26L401.82 285L402.06 284.85L402.3 284.7L402.53 284.54L402.75 284.37L402.97 284.19L403.18 284L403.38 283.81L403.58 283.6L403.76 283.39L403.94 283.18L404.12 282.95L404.28 282.72L404.43 282.49L404.58 282.24L404.84 281.74L405.06 281.22L405.16 280.95L405.24 280.67L405.32 280.39L405.38 280.11L405.44 279.82L405.48 279.53L405.51 279.24L405.53 278.94L405.53 278.33L405.51 278.03L405.48 277.73L405.44 277.44L405.32 276.86L405.24 276.58L405.16 276.31L405.06 276.03L404.84 275.51L404.71 275.25L404.58 275L404.43 274.76L404.28 274.53L404.12 274.3L403.94 274.07L403.76 273.86L403.58 273.65L403.18 273.25L402.97 273.07L402.75 272.89L402.53 272.72L402.3 272.56L401.82 272.26L401.57 272.13L401.32 272.01L401.06 271.89L400.79 271.79L400.52 271.69L400.25 271.61L399.97 271.53L399.69 271.47L399.4 271.42L399.11 271.38L398.81 271.35L398.52 271.33L233.42 271.33L233.12 271.35ZM233.42 223.13L233.12 223.15L232.83 223.18L232.54 223.22L232.25 223.27L231.69 223.41L231.41 223.5L231.14 223.6L230.88 223.7L230.62 223.82L230.36 223.94L230.12 224.08L229.87 224.22L229.64 224.38L229.41 224.54L229.18 224.71L228.97 224.89L228.76 225.08L228.55 225.27L228.17 225.69L227.99 225.9L227.82 226.13L227.66 226.36L227.5 226.59L227.36 226.84L227.22 227.08L226.98 227.6L226.88 227.86L226.78 228.13L226.69 228.41L226.55 228.97L226.5 229.26L226.46 229.55L226.43 229.84L226.41 230.14L226.4 230.44L226.41 230.74L226.43 231.04L226.46 231.33L226.5 231.62L226.55 231.91L226.69 232.47L226.78 232.74L226.88 233.01L226.98 233.28L227.1 233.54L227.22 233.79L227.36 234.04L227.5 234.28L227.66 234.52L227.82 234.75L227.99 234.98L228.17 235.19L228.36 235.4L228.55 235.6L228.76 235.8L228.97 235.99L229.18 236.17L229.41 236.34L229.64 236.5L229.87 236.65L230.12 236.8L230.36 236.93L230.62 237.06L230.88 237.18L231.14 237.28L231.41 237.38L231.97 237.54L232.25 237.6L232.54 237.66L232.83 237.7L233.12 237.73L233.42 237.75L332.1 237.75L332.4 237.73L332.69 237.7L332.99 237.66L333.27 237.6L333.56 237.54L333.83 237.46L334.11 237.38L334.38 237.28L334.64 237.18L334.9 237.06L335.16 236.93L335.41 236.8L335.65 236.65L335.89 236.5L336.12 236.34L336.34 236.17L336.56 235.99L336.77 235.8L336.97 235.6L337.16 235.4L337.35 235.19L337.53 234.98L337.7 234.75L337.86 234.52L338.02 234.28L338.16 234.04L338.3 233.79L338.42 233.54L338.54 233.28L338.65 233.01L338.83 232.47L338.97 231.91L339.02 231.62L339.06 231.33L339.09 231.04L339.11 230.74L339.12 230.44L339.11 230.14L339.09 229.84L339.06 229.55L339.02 229.26L338.97 228.97L338.83 228.41L338.74 228.13L338.65 227.86L338.54 227.6L338.3 227.08L338.16 226.84L338.02 226.59L337.86 226.36L337.7 226.13L337.53 225.9L337.35 225.69L336.97 225.27L336.77 225.08L336.56 224.89L336.34 224.71L336.12 224.54L335.89 224.38L335.65 224.22L335.41 224.08L335.16 223.94L334.64 223.7L334.38 223.6L334.11 223.5L333.83 223.41L333.56 223.34L333.27 223.27L332.99 223.22L332.69 223.18L332.4 223.15L332.1 223.13L331.8 223.12L233.72 223.12L233.42 223.13Z" id="aus7qvT8U"></path><path d="M455.85 237.61C456.95 234.83 456.37 231.68 454.24 229.63C445.89 221.28 379.07 154.46 370.72 146.1C368.67 143.98 365.52 143.33 362.74 144.5C360.04 145.59 358.28 148.3 358.28 151.23C358.28 158.04 358.28 212.58 358.28 219.39C358.28 231.9 368.45 242.07 380.96 242.07C394.59 242.07 442.31 242.07 449.12 242.07C452.05 242.07 454.68 240.31 455.85 237.61Z" id="f1dyQGXj6E"></path><path d="M455.85 237.61C456.95 234.83 456.37 231.68 454.24 229.63C445.89 221.28 379.07 154.46 370.72 146.1C368.67 143.98 365.52 143.33 362.74 144.5C360.04 145.59 358.28 148.3 358.28 151.23C358.28 158.04 358.28 212.58 358.28 219.39C358.28 231.9 368.45 242.07 380.96 242.07C394.59 242.07 442.31 242.07 449.12 242.07C452.05 242.07 454.68 240.31 455.85 237.61Z" id="c1vbBOSN6H"></path></defs><g><g><g><use xlink:href="#d4vAhSqnB" opacity="1" fill="#000000" fill-opacity="1"></use><g><use xlink:href="#d4vAhSqnB" opacity="1" fill-opacity="0" stroke="#000000" stroke-width="1" stroke-opacity="0"></use></g></g><g><use xlink:href="#bn1fOJs1I" opacity="1" fill="#000000" fill-opacity="0"></use><g><use xlink:href="#bn1fOJs1I" opacity="1" fill-opacity="0" stroke="#000000" stroke-width="1" stroke-opacity="0"></use></g></g><g><use xlink:href="#b3vPyGuR9j" opacity="1" fill="#000000" fill-opacity="1"></use><g><use xlink:href="#b3vPyGuR9j" opacity="1" fill-opacity="0" stroke="#000000" stroke-width="1" stroke-opacity="0"></use></g></g><g><use xlink:href="#aus7qvT8U" opacity="1" fill="#000000" fill-opacity="0"></use><g><use xlink:href="#aus7qvT8U" opacity="1" fill-opacity="0" stroke="#000000" stroke-width="1" stroke-opacity="0"></use></g></g><g><use xlink:href="#f1dyQGXj6E" opacity="1" fill="#000000" fill-opacity="1"></use><g><use xlink:href="#f1dyQGXj6E" opacity="1" fill-opacity="0" stroke="#000000" stroke-width="1" stroke-opacity="0"></use></g></g><g><use xlink:href="#c1vbBOSN6H" opacity="1" fill="#000000" fill-opacity="0"></use><g><use xlink:href="#c1vbBOSN6H" opacity="1" fill-opacity="0" stroke="#000000" stroke-width="1" stroke-opacity="0"></use></g></g></g></g></svg>