<?xml version="1.0" encoding="UTF-8" standalone="no"?>
<!DOCTYPE svg PUBLIC "-//W3C//DTD SVG 1.1//EN" "http://www.w3.org/Graphics/SVG/1.1/DTD/svg11.dtd">
<svg version="1.1" xmlns="http://www.w3.org/2000/svg" xmlns:xlink="http://www.w3.org/1999/xlink" preserveAspectRatio="xMidYMid meet" viewBox="0 0 640 640" width="640" height="640"><defs><path d="M402.03 264.03L403.44 264.1L404.84 264.19L406.24 264.32L407.63 264.47L409.02 264.64L410.4 264.85L411.77 265.08L413.14 265.34L414.49 265.62L415.84 265.93L417.19 266.26L418.52 266.63L419.85 267.01L421.16 267.43L422.47 267.87L423.77 268.33L425.06 268.82L426.34 269.33L427.6 269.87L428.86 270.44L430.11 271.03L431.34 271.64L432.56 272.28L433.78 272.95L434.97 273.63L436.16 274.35L437.33 275.08L438.49 275.84L439.64 276.63L440.77 277.43L441.89 278.26L443 279.12L444.09 280L445.16 280.9L446.22 281.82L447.27 282.77L448.3 283.74L449.31 284.73L450.84 286.31L452.31 287.93L453.73 289.59L455.09 291.28L456.39 293.01L457.63 294.77L458.82 296.56L459.94 298.38L461.01 300.23L462.02 302.11L462.96 304.01L463.85 305.94L464.68 307.88L465.45 309.85L466.16 311.84L466.81 313.85L467.4 315.87L467.93 317.9L468.4 319.95L468.81 322.01L469.15 324.09L469.44 326.17L469.67 328.25L469.83 330.35L469.93 332.44L469.98 334.54L469.96 336.65L469.87 338.75L469.73 340.85L469.53 342.94L469.26 345.03L468.93 347.12L468.54 349.2L468.08 351.26L467.56 353.32L466.98 355.37L466.34 357.4L465.63 359.41L464.86 361.41L464.02 363.39L496.69 396.06L497.05 396.43L497.41 396.81L497.76 397.2L498.1 397.59L498.43 397.98L498.75 398.38L499.07 398.79L499.37 399.2L499.67 399.62L499.96 400.04L500.24 400.47L500.51 400.9L500.77 401.34L501.02 401.78L501.27 402.23L501.5 402.68L501.73 403.13L501.95 403.59L502.15 404.05L502.35 404.52L502.54 404.99L502.72 405.47L502.89 405.95L503.06 406.43L503.21 406.91L503.35 407.4L503.48 407.89L503.61 408.39L503.72 408.89L503.83 409.39L503.92 409.89L504 410.4L504.08 410.9L504.14 411.42L504.2 411.93L504.25 412.44L504.28 412.96L504.31 413.48L504.32 414L504.33 414.52L504.32 415.04L504.31 415.55L504.28 416.06L504.24 416.57L504.2 417.08L504.14 417.59L504.07 418.1L504 418.61L503.91 419.11L503.81 419.61L503.71 420.11L503.59 420.61L503.47 421.1L503.33 421.6L503.19 422.09L503.03 422.57L502.87 423.06L502.69 423.54L502.51 424.01L502.32 424.49L502.12 424.96L501.91 425.42L501.69 425.88L501.46 426.34L501.23 426.8L500.98 427.24L500.73 427.69L500.47 428.13L500.19 428.56L499.91 428.99L499.63 429.42L499.33 429.83L499.02 430.25L498.71 430.65L498.39 431.05L498.06 431.45L497.72 431.84L497.38 432.22L497.02 432.6L496.66 432.96L496.28 433.34L495.89 433.71L495.49 434.06L495.09 434.41L494.68 434.75L494.27 435.08L493.86 435.4L493.43 435.71L493.01 436.01L492.58 436.3L492.14 436.58L491.7 436.85L491.26 437.11L490.81 437.37L490.36 437.61L489.9 437.84L489.44 438.07L488.98 438.28L488.51 438.49L488.04 438.68L487.57 438.87L487.09 439.04L486.62 439.21L486.13 439.37L485.65 439.52L485.17 439.65L484.68 439.78L484.19 439.9L483.7 440.01L483.21 440.11L482.71 440.2L482.22 440.28L481.72 440.36L481.22 440.42L480.72 440.47L480.22 440.51L479.72 440.55L479.22 440.57L478.72 440.58L478.22 440.59L477.72 440.58L477.22 440.57L476.72 440.55L476.22 440.51L475.72 440.47L475.22 440.42L474.73 440.36L474.23 440.28L473.73 440.2L473.24 440.11L472.75 440.01L472.26 439.9L471.77 439.78L471.28 439.66L470.8 439.52L470.31 439.37L469.83 439.21L469.35 439.05L468.88 438.87L468.41 438.68L467.94 438.49L467.47 438.28L467.01 438.07L466.55 437.85L466.09 437.61L465.64 437.37L465.19 437.12L464.75 436.85L464.31 436.58L463.87 436.3L463.44 436.01L463.01 435.71L462.59 435.4L462.17 435.08L461.76 434.75L461.36 434.41L460.95 434.07L460.56 433.71L460.17 433.34L459.78 432.96L426.81 399.99L426.15 400.27L425.49 400.54L424.82 400.8L424.15 401.05L423.49 401.3L422.81 401.54L422.14 401.78L421.47 402.01L420.79 402.23L420.11 402.45L419.43 402.65L418.75 402.85L418.07 403.05L417.39 403.24L416.7 403.42L416.02 403.59L415.33 403.76L414.64 403.92L413.95 404.07L413.26 404.22L412.57 404.36L411.88 404.49L411.18 404.61L410.49 404.73L409.79 404.84L409.1 404.95L408.4 405.04L407.7 405.13L407.01 405.22L406.31 405.29L405.61 405.36L404.91 405.42L404.21 405.48L403.51 405.52L402.81 405.56L402.11 405.6L401.41 405.62L400.71 405.64L400 405.65L399.3 405.65L397.93 405.64L396.55 405.6L395.18 405.53L393.8 405.44L392.43 405.32L391.07 405.18L389.7 405.01L388.34 404.81L386.98 404.59L385.63 404.34L384.28 404.06L382.93 403.76L381.59 403.44L380.26 403.08L378.93 402.7L377.61 402.3L376.3 401.87L375 401.41L373.7 400.93L372.41 400.43L371.13 399.89L369.86 399.33L368.6 398.75L367.35 398.14L366.11 397.51L364.88 396.85L363.66 396.16L362.46 395.45L361.26 394.72L360.08 393.96L358.91 393.17L357.76 392.36L356.62 391.52L355.49 390.66L354.38 389.78L353.29 388.87L352.21 387.93L351.14 386.97L350.1 385.98L349.06 384.98L348.07 383.96L347.1 382.93L346.15 381.89L345.23 380.83L344.33 379.75L343.45 378.66L342.59 377.56L341.76 376.44L340.95 375.3L340.17 374.16L339.41 373L338.67 371.82L337.96 370.63L337.27 369.43L336.61 368.22L335.97 367L335.36 365.76L334.77 364.52L334.2 363.26L333.66 361.99L333.15 360.71L332.66 359.42L332.19 358.12L331.76 356.82L331.34 355.5L330.96 354.17L330.59 352.84L330.26 351.5L329.95 350.14L329.67 348.79L329.41 347.42L329.18 346.05L328.98 344.67L328.8 343.28L328.65 341.89L328.53 340.49L328.43 339.09L328.36 337.68L328.32 336.27L328.31 334.85L328.33 333.43L328.37 332.02L328.44 330.61L328.53 329.21L328.66 327.81L328.81 326.42L328.99 325.03L329.19 323.65L329.42 322.28L329.68 320.92L329.96 319.56L330.27 318.21L330.61 316.86L330.97 315.53L331.36 314.2L331.77 312.89L332.21 311.58L332.68 310.28L333.17 308.99L333.68 307.71L334.22 306.45L334.79 305.19L335.38 303.94L335.99 302.71L336.63 301.48L337.3 300.27L337.99 299.07L338.7 297.88L339.44 296.71L340.2 295.55L340.98 294.4L341.79 293.27L342.62 292.15L343.48 291.04L344.36 289.95L345.26 288.88L346.18 287.82L347.13 286.77L348.1 285.74L349.09 284.73L350.1 283.74L351.13 282.77L352.18 281.82L353.24 280.9L354.31 280L355.4 279.12L356.5 278.27L357.62 277.44L358.76 276.63L359.9 275.84L361.06 275.08L362.24 274.35L363.42 273.64L364.62 272.95L365.83 272.28L367.06 271.65L368.29 271.03L369.54 270.44L370.79 269.88L372.06 269.34L373.34 268.82L374.63 268.33L375.93 267.87L377.23 267.43L378.55 267.02L379.87 266.63L381.21 266.27L382.55 265.93L383.9 265.62L385.26 265.34L386.62 265.08L388 264.85L389.38 264.65L390.76 264.47L392.15 264.32L393.55 264.2L394.95 264.1L396.36 264.03L397.77 263.99L399.19 263.98L399.2 263.98L400.62 263.99L402.03 264.03ZM398.07 278.61L396.95 278.65L395.83 278.7L394.72 278.78L393.61 278.88L392.5 279L391.4 279.14L390.31 279.3L389.22 279.48L388.14 279.69L387.06 279.91L385.99 280.16L384.92 280.42L383.87 280.71L382.81 281.02L381.77 281.35L380.73 281.69L379.7 282.06L378.68 282.45L377.66 282.86L376.66 283.29L375.66 283.74L374.67 284.2L373.69 284.69L372.72 285.2L371.76 285.72L370.81 286.27L369.87 286.84L368.94 287.42L368.02 288.02L367.11 288.64L366.21 289.29L365.32 289.94L364.44 290.62L363.58 291.32L362.72 292.03L361.88 292.77L361.05 293.52L360.24 294.29L359.44 295.08L358.65 295.88L357.88 296.7L357.12 297.52L356.39 298.37L355.67 299.22L354.98 300.09L354.3 300.96L353.64 301.85L353 302.75L352.37 303.66L351.77 304.58L351.19 305.52L350.62 306.46L350.07 307.41L349.55 308.37L349.04 309.34L348.55 310.32L348.08 311.31L347.63 312.31L347.2 313.32L346.79 314.33L346.4 315.36L346.04 316.39L345.69 317.42L345.36 318.47L345.05 319.52L344.76 320.58L344.5 321.65L344.25 322.72L344.02 323.8L343.82 324.88L343.64 325.97L343.47 327.07L343.33 328.17L343.21 329.27L343.12 330.38L343.04 331.49L342.98 332.61L342.95 333.73L342.94 334.86L342.95 335.98L342.98 337.1L343.04 338.22L343.11 339.33L343.21 340.44L343.33 341.55L343.47 342.65L343.63 343.74L343.81 344.83L344.02 345.92L344.24 346.99L344.49 348.06L344.75 349.13L345.04 350.19L345.35 351.24L345.67 352.29L346.02 353.33L346.39 354.36L346.78 355.38L347.19 356.39L347.61 357.4L348.06 358.4L348.53 359.39L349.02 360.37L349.53 361.34L350.05 362.3L350.6 363.25L351.16 364.19L351.75 365.13L352.35 366.05L352.97 366.96L353.61 367.86L354.27 368.75L354.95 369.62L355.65 370.49L356.36 371.34L357.1 372.18L357.85 373.01L358.62 373.83L359.41 374.63L360.83 376L362.29 377.32L363.78 378.57L365.32 379.76L366.88 380.9L368.48 381.98L370.11 382.99L371.77 383.95L373.46 384.85L375.17 385.69L376.9 386.47L378.66 387.18L380.44 387.84L382.23 388.44L384.05 388.97L385.87 389.45L387.71 389.86L389.57 390.21L391.43 390.5L393.3 390.73L395.18 390.9L397.06 391L398.94 391.04L400.83 391.02L402.71 390.94L404.6 390.79L406.48 390.59L408.35 390.31L410.22 389.98L412.07 389.58L413.92 389.12L415.75 388.59L417.57 388L419.38 387.34L421.16 386.62L422.93 385.84L424.68 384.99L426.4 384.07L428.1 383.1L429.77 382.05L430.01 381.89L430.26 381.73L430.5 381.57L430.74 381.41L430.98 381.25L431.22 381.08L431.46 380.91L431.7 380.75L431.94 380.58L432.18 380.41L432.41 380.23L432.65 380.06L432.89 379.88L433.12 379.71L433.36 379.53L433.59 379.35L433.82 379.17L434.05 378.98L434.29 378.8L434.52 378.61L434.75 378.43L434.98 378.24L435.2 378.05L435.43 377.86L435.66 377.66L435.88 377.47L436.11 377.27L436.33 377.08L436.56 376.88L436.78 376.68L437 376.48L437.22 376.27L437.44 376.07L437.66 375.86L437.88 375.66L438.1 375.45L438.32 375.24L438.53 375.03L438.75 374.82L438.96 374.6L439.18 374.39L439.39 374.18L439.6 373.96L439.81 373.74L440.01 373.53L440.22 373.31L440.42 373.09L440.63 372.87L440.83 372.65L441.03 372.43L441.23 372.21L441.42 371.99L441.62 371.76L441.82 371.54L442.01 371.31L442.2 371.09L442.39 370.86L442.58 370.63L442.77 370.41L442.95 370.18L443.14 369.95L443.32 369.72L443.5 369.49L443.68 369.26L443.86 369.03L444.04 368.79L444.21 368.56L444.39 368.33L444.56 368.09L444.73 367.86L444.9 367.62L445.07 367.38L445.24 367.15L445.4 366.91L445.56 366.67L445.73 366.43L445.89 366.19L446.04 365.95L446.2 365.71L446.36 365.47L447.41 363.8L448.39 362.1L449.31 360.38L450.16 358.63L450.94 356.86L451.67 355.07L452.32 353.27L452.92 351.45L453.45 349.61L453.91 347.77L454.31 345.91L454.65 344.04L454.92 342.16L455.13 340.28L455.28 338.4L455.36 336.51L455.38 334.63L455.34 332.74L455.24 330.86L455.07 328.98L454.85 327.11L454.56 325.25L454.2 323.39L453.79 321.55L453.32 319.73L452.78 317.91L452.18 316.12L451.53 314.34L450.81 312.58L450.03 310.84L449.19 309.13L448.29 307.45L447.33 305.79L446.32 304.16L445.24 302.56L444.1 300.99L442.91 299.45L441.65 297.96L440.34 296.5L438.96 295.08L438.16 294.29L437.35 293.52L436.52 292.77L435.68 292.03L434.82 291.32L433.96 290.62L433.08 289.94L432.19 289.28L431.29 288.64L430.38 288.02L429.46 287.42L428.53 286.83L427.59 286.27L426.64 285.72L425.68 285.2L424.71 284.69L423.73 284.2L422.74 283.73L421.74 283.28L420.73 282.86L419.72 282.45L418.7 282.06L417.67 281.69L416.63 281.34L415.58 281.01L414.53 280.71L413.47 280.42L412.41 280.15L411.34 279.91L410.26 279.68L409.18 279.48L408.09 279.3L406.99 279.14L405.89 278.99L404.79 278.88L403.68 278.78L402.57 278.7L401.45 278.65L400.33 278.61L399.2 278.6L399.19 278.6L398.07 278.61Z" id="b6UXl4DaqV"></path><path d="M305.03 71.76L304.97 71.94L304.92 72.12L304.86 72.29L304.81 72.47L304.76 72.65L304.71 72.82L304.66 73L304.61 73.18L304.57 73.36L304.52 73.54L304.48 73.72L304.44 73.9L304.4 74.08L304.36 74.26L304.32 74.44L304.29 74.62L304.25 74.8L304.22 74.99L304.19 75.17L304.16 75.35L304.13 75.53L304.11 75.72L304.08 75.9L304.06 76.09L304.04 76.27L304.02 76.46L304 76.64L303.98 76.83L303.97 77.02L303.95 77.21L303.94 77.39L303.93 77.58L303.92 77.77L303.92 77.96L303.91 78.15L303.91 78.34L303.9 78.53L303.9 78.73L303.9 146.89L303.93 148.43L304.03 149.96L304.18 151.46L304.39 152.95L304.66 154.42L304.98 155.87L305.37 157.29L305.8 158.69L306.29 160.07L306.83 161.42L307.42 162.75L308.06 164.05L308.75 165.32L309.49 166.55L310.27 167.76L311.09 168.94L311.96 170.08L312.87 171.18L313.83 172.25L314.82 173.28L315.85 174.27L316.92 175.23L318.02 176.14L319.16 177.01L320.34 177.83L321.54 178.61L322.78 179.35L324.05 180.04L325.35 180.68L326.68 181.27L328.03 181.81L329.41 182.3L330.81 182.73L332.23 183.11L333.68 183.44L335.15 183.71L336.64 183.92L338.14 184.07L339.67 184.17L341.21 184.2L409.37 184.2L409.57 184.2L409.76 184.19L409.95 184.19L410.14 184.18L410.33 184.18L410.52 184.17L410.71 184.16L410.89 184.14L411.08 184.13L411.27 184.11L411.45 184.1L411.64 184.08L411.83 184.06L412.01 184.04L412.2 184.01L412.38 183.99L412.56 183.96L412.75 183.93L412.93 183.9L413.11 183.87L413.3 183.83L413.48 183.8L413.66 183.76L413.84 183.72L414.02 183.68L414.2 183.64L414.38 183.6L414.56 183.55L414.74 183.5L414.92 183.46L415.1 183.41L415.27 183.35L415.45 183.3L415.63 183.25L415.81 183.19L415.98 183.13L416.16 183.07L416.34 183.01L416.51 182.95L416.69 182.88L416.69 251.2L416.26 251.1L415.83 251.01L415.4 250.93L414.97 250.84L414.54 250.76L414.11 250.68L413.68 250.6L413.25 250.53L412.82 250.46L412.38 250.39L411.95 250.32L411.52 250.25L411.08 250.19L410.65 250.13L410.21 250.07L409.78 250.02L409.34 249.96L408.9 249.91L408.47 249.86L408.03 249.82L407.59 249.77L407.15 249.73L406.72 249.69L406.28 249.65L405.84 249.62L405.4 249.59L404.96 249.56L404.52 249.53L404.08 249.5L403.64 249.48L403.19 249.46L402.75 249.44L402.31 249.42L401.87 249.41L401.43 249.39L400.98 249.39L400.54 249.38L400.1 249.37L399.65 249.37L399.21 249.37L398.32 249.37L397.43 249.39L396.55 249.41L395.66 249.44L394.78 249.48L393.9 249.53L393.02 249.59L392.15 249.65L391.27 249.73L390.4 249.82L389.53 249.91L388.66 250.01L387.79 250.12L386.93 250.24L386.06 250.37L385.2 250.51L384.34 250.65L383.49 250.81L382.63 250.97L381.78 251.14L380.93 251.32L380.09 251.51L379.24 251.71L378.4 251.91L377.56 252.12L376.73 252.35L375.89 252.58L375.06 252.82L374.24 253.06L373.41 253.32L372.59 253.58L371.77 253.85L370.96 254.13L370.14 254.42L369.34 254.72L368.53 255.02L367.73 255.33L366.93 255.65L366.13 255.98L365.34 256.32L365.36 256.27L365.38 256.22L365.39 256.17L365.41 256.12L365.42 256.07L365.44 256.02L365.46 255.97L365.47 255.92L365.49 255.87L365.5 255.82L365.52 255.77L365.53 255.72L365.55 255.67L365.56 255.62L365.58 255.57L365.59 255.52L365.61 255.47L365.62 255.42L365.63 255.37L365.64 255.32L365.66 255.27L365.67 255.22L365.68 255.17L365.69 255.12L365.7 255.06L365.71 255.01L365.72 254.96L365.73 254.91L365.74 254.86L365.74 254.8L365.75 254.75L365.76 254.7L365.76 254.65L365.77 254.59L365.77 254.54L365.77 254.49L365.78 254.43L365.78 254.38L365.78 254.32L365.78 254.27L365.78 253.97L365.76 253.67L365.73 253.38L365.69 253.09L365.63 252.8L365.57 252.52L365.49 252.24L365.41 251.96L365.31 251.69L365.2 251.43L365.09 251.17L364.96 250.91L364.83 250.67L364.68 250.42L364.53 250.19L364.37 249.96L364.19 249.73L364.01 249.51L363.83 249.3L363.63 249.1L363.43 248.91L363.22 248.72L363 248.54L362.78 248.37L362.55 248.21L362.31 248.05L362.07 247.91L361.82 247.77L361.57 247.65L361.31 247.53L361.04 247.42L360.77 247.33L360.5 247.24L360.22 247.17L359.94 247.1L359.65 247.05L359.36 247.01L359.06 246.98L358.77 246.96L358.47 246.95L193.97 246.95L193.67 246.96L193.37 246.98L193.08 247.01L192.79 247.05L192.5 247.1L192.22 247.17L191.94 247.24L191.66 247.33L191.39 247.42L191.13 247.53L190.87 247.65L190.61 247.77L190.37 247.91L190.12 248.05L189.89 248.21L189.66 248.37L189.43 248.54L189.22 248.72L189.01 248.91L188.8 249.1L188.61 249.3L188.42 249.51L188.24 249.73L188.07 249.96L187.91 250.19L187.75 250.42L187.61 250.67L187.47 250.91L187.35 251.17L187.23 251.43L187.13 251.69L187.03 251.96L186.94 252.24L186.87 252.52L186.8 252.8L186.75 253.09L186.71 253.38L186.68 253.67L186.66 253.97L186.65 254.27L186.66 254.57L186.68 254.87L186.71 255.16L186.75 255.45L186.8 255.74L186.87 256.02L186.94 256.3L187.03 256.57L187.13 256.84L187.23 257.11L187.35 257.37L187.47 257.62L187.61 257.87L187.75 258.11L187.91 258.35L188.07 258.58L188.24 258.8L188.42 259.02L188.61 259.23L188.8 259.43L189.01 259.63L189.22 259.82L189.43 260L189.66 260.17L189.89 260.33L190.12 260.48L190.37 260.63L190.61 260.76L190.87 260.89L191.13 261L191.39 261.11L191.66 261.21L191.94 261.29L192.22 261.37L192.5 261.43L192.79 261.49L193.08 261.53L193.37 261.56L193.67 261.58L193.97 261.58L355.25 261.58L354.81 261.85L354.36 262.12L353.92 262.4L353.48 262.68L353.04 262.95L352.61 263.24L352.17 263.52L351.74 263.81L351.31 264.09L350.88 264.38L350.45 264.68L350.02 264.97L349.59 265.27L349.17 265.57L348.75 265.88L348.32 266.18L347.9 266.49L347.49 266.8L347.07 267.12L346.65 267.43L346.24 267.75L345.83 268.08L345.42 268.4L345.01 268.73L344.6 269.06L344.2 269.39L343.8 269.73L343.39 270.07L343 270.41L342.6 270.76L342.2 271.11L341.81 271.46L341.41 271.81L341.02 272.17L340.63 272.53L340.25 272.89L339.86 273.26L339.48 273.63L339.1 274.01L338.72 274.38L338.26 274.85L337.8 275.32L337.35 275.79L336.91 276.27L336.46 276.75L336.02 277.23L335.59 277.71L335.16 278.2L334.73 278.69L334.3 279.18L333.88 279.67L333.47 280.17L333.06 280.67L332.65 281.17L332.25 281.68L331.85 282.18L331.45 282.69L331.06 283.21L330.67 283.72L330.29 284.24L329.91 284.76L329.53 285.28L329.16 285.8L328.8 286.33L328.43 286.86L328.08 287.39L327.72 287.93L327.37 288.46L327.03 289L326.68 289.54L326.35 290.09L326.01 290.63L325.68 291.18L325.36 291.73L325.04 292.28L324.72 292.84L324.41 293.4L324.11 293.96L323.8 294.52L323.5 295.08L193.9 295.08L193.6 295.09L193.3 295.11L193 295.14L192.71 295.18L192.43 295.23L192.14 295.3L191.86 295.37L191.59 295.46L191.32 295.55L191.06 295.66L190.8 295.78L190.54 295.9L190.29 296.04L190.05 296.18L189.81 296.34L189.58 296.5L189.36 296.67L189.14 296.85L188.93 297.04L188.73 297.23L188.53 297.43L188.35 297.64L188.17 297.86L188 298.08L187.83 298.31L187.68 298.55L187.54 298.79L187.4 299.04L187.27 299.3L187.16 299.56L187.05 299.82L186.96 300.09L186.87 300.36L186.79 300.64L186.73 300.93L186.68 301.21L186.64 301.5L186.61 301.8L186.59 302.1L186.58 302.4L186.59 302.7L186.61 302.99L186.64 303.29L186.68 303.58L186.73 303.87L186.79 304.15L186.87 304.43L186.96 304.7L187.05 304.97L187.16 305.24L187.27 305.5L187.4 305.75L187.54 306L187.68 306.24L187.83 306.48L188 306.71L188.17 306.93L188.35 307.15L188.53 307.36L188.73 307.56L188.93 307.76L189.14 307.94L189.36 308.12L189.58 308.29L189.81 308.46L190.05 308.61L190.29 308.76L190.54 308.89L190.8 309.02L191.06 309.13L191.32 309.24L191.59 309.34L191.86 309.42L192.14 309.5L192.43 309.56L192.71 309.61L193 309.66L193.3 309.69L193.6 309.7L193.9 309.71L317.43 309.71L317.25 310.31L317.07 310.92L316.9 311.53L316.73 312.13L316.56 312.74L316.4 313.36L316.24 313.97L316.09 314.58L315.94 315.2L315.8 315.81L315.66 316.43L315.53 317.05L315.4 317.67L315.28 318.29L315.16 318.91L315.05 319.54L314.94 320.16L314.83 320.79L314.73 321.42L314.64 322.04L314.55 322.67L314.46 323.31L314.38 323.94L314.3 324.57L314.23 325.21L314.16 325.84L314.1 326.48L314.04 327.12L313.99 327.76L313.94 328.4L313.89 329.04L313.85 329.68L313.82 330.33L313.79 330.97L313.76 331.62L313.74 332.27L313.72 332.92L313.71 333.57L313.71 334.22L313.7 334.87L313.7 335.08L313.7 335.29L313.71 335.5L313.71 335.71L313.71 335.92L313.71 336.13L313.72 336.34L313.72 336.55L313.72 336.76L313.73 336.97L313.74 337.18L313.74 337.39L313.75 337.6L313.75 337.81L313.76 338.02L313.77 338.23L313.78 338.44L313.79 338.65L313.79 338.87L313.8 339.08L313.81 339.29L313.82 339.5L313.83 339.71L313.85 339.92L313.86 340.13L313.87 340.34L313.88 340.55L313.89 340.77L313.91 340.98L313.92 341.19L313.93 341.4L313.95 341.61L313.96 341.82L313.98 342.03L313.99 342.24L314.01 342.45L314.02 342.66L314.04 342.87L314.05 343.07L314.07 343.28L193.9 343.28L193.6 343.29L193.3 343.31L193 343.34L192.71 343.38L192.43 343.43L192.14 343.5L191.86 343.57L191.59 343.66L191.32 343.75L191.06 343.86L190.8 343.98L190.54 344.1L190.29 344.24L190.05 344.38L189.81 344.54L189.58 344.7L189.36 344.87L189.14 345.05L188.93 345.24L188.73 345.43L188.53 345.63L188.35 345.84L188.17 346.06L188 346.28L187.83 346.51L187.68 346.75L187.54 346.99L187.4 347.24L187.27 347.5L187.16 347.76L187.05 348.02L186.96 348.29L186.87 348.57L186.79 348.84L186.73 349.13L186.68 349.41L186.64 349.71L186.61 350L186.59 350.3L186.58 350.6L186.59 350.9L186.61 351.19L186.64 351.49L186.68 351.78L186.73 352.07L186.79 352.35L186.87 352.63L186.96 352.9L187.05 353.17L187.16 353.44L187.27 353.7L187.4 353.95L187.54 354.2L187.68 354.44L187.83 354.68L188 354.91L188.17 355.13L188.35 355.35L188.53 355.56L188.73 355.76L188.93 355.96L189.14 356.15L189.36 356.32L189.58 356.5L189.81 356.66L190.05 356.81L190.29 356.96L190.54 357.09L190.8 357.22L191.06 357.33L191.32 357.44L191.59 357.54L191.86 357.62L192.14 357.7L192.43 357.76L192.71 357.81L193 357.86L193.3 357.89L193.6 357.91L193.9 357.91L316.85 357.91L317.15 358.96L317.47 360L317.8 361.04L318.14 362.07L318.49 363.1L318.86 364.12L319.24 365.14L319.63 366.15L320.03 367.16L320.45 368.16L320.88 369.16L321.32 370.15L321.78 371.14L322.25 372.12L322.73 373.1L323.22 374.07L323.72 375.03L324.24 375.99L324.77 376.94L325.31 377.89L325.87 378.83L326.44 379.76L327.02 380.69L327.61 381.6L328.21 382.52L328.83 383.42L329.46 384.32L330.1 385.21L330.75 386.09L331.41 386.97L332.09 387.84L332.78 388.7L333.48 389.55L334.19 390.39L334.92 391.23L335.65 392.06L336.4 392.88L337.16 393.69L337.93 394.49L338.72 395.29L339.94 396.49L341.17 397.66L342.43 398.8L343.7 399.92L345 401L346.31 402.06L347.64 403.09L348.99 404.1L350.36 405.07L351.74 406.02L353.14 406.93L354.56 407.82L355.99 408.68L357.43 409.51L358.9 410.31L360.37 411.08L361.86 411.82L363.37 412.53L364.89 413.21L366.42 413.86L367.97 414.48L369.52 415.07L371.09 415.62L372.68 416.15L374.27 416.65L375.87 417.12L377.49 417.55L379.11 417.95L380.75 418.33L382.39 418.67L384.05 418.98L385.71 419.25L387.38 419.5L389.06 419.71L390.74 419.89L392.44 420.04L394.14 420.15L395.85 420.24L397.56 420.29L399.28 420.3L399.71 420.3L400.14 420.3L400.56 420.29L400.99 420.28L401.42 420.27L401.85 420.26L402.27 420.24L402.7 420.22L403.13 420.2L403.56 420.18L403.98 420.16L404.41 420.13L404.84 420.1L405.26 420.07L405.69 420.04L406.12 420L406.54 419.96L406.97 419.92L407.39 419.88L407.82 419.84L408.25 419.79L408.67 419.74L409.09 419.69L409.52 419.64L409.94 419.58L410.37 419.53L410.79 419.47L411.21 419.41L411.63 419.35L412.06 419.28L412.48 419.22L412.9 419.15L413.32 419.08L413.74 419.01L414.16 418.94L414.58 418.86L415 418.79L415.41 418.71L415.83 418.63L416.25 418.55L416.09 419.33L415.91 420.11L415.7 420.87L415.47 421.63L415.2 422.37L414.92 423.1L414.61 423.82L414.27 424.52L413.92 425.22L413.54 425.89L413.13 426.56L412.71 427.2L412.26 427.84L411.8 428.45L411.31 429.05L410.8 429.64L410.28 430.2L409.73 430.75L409.17 431.28L408.59 431.79L407.99 432.27L407.37 432.74L406.74 433.19L406.1 433.62L405.43 434.02L404.76 434.41L404.07 434.77L403.36 435.1L402.64 435.42L401.91 435.7L401.17 435.97L400.41 436.2L399.65 436.42L398.87 436.6L398.08 436.76L397.29 436.89L396.48 436.99L395.67 437.07L394.84 437.11L394.01 437.13L158.42 437.13L157.49 437.11L156.56 437.05L155.65 436.96L154.74 436.83L153.85 436.66L152.97 436.47L152.11 436.23L151.25 435.97L150.41 435.67L149.59 435.34L148.78 434.98L147.99 434.59L147.22 434.17L146.46 433.72L145.73 433.25L145.01 432.75L144.31 432.22L143.64 431.66L142.99 431.08L142.36 430.48L141.75 429.85L141.17 429.2L140.61 428.53L140.08 427.84L139.57 427.12L139.1 426.39L138.64 425.64L138.22 424.86L137.83 424.08L137.47 423.27L137.14 422.45L136.84 421.61L136.57 420.76L136.34 419.89L136.14 419.02L135.97 418.13L135.84 417.22L135.75 416.31L135.69 415.38L135.67 414.45L135.67 94.08L135.69 93.15L135.75 92.23L135.84 91.31L135.97 90.41L136.14 89.52L136.34 88.64L136.57 87.78L136.84 86.92L137.14 86.09L137.47 85.27L137.83 84.46L138.22 83.67L138.64 82.9L139.1 82.15L139.57 81.41L140.08 80.7L140.61 80.01L141.17 79.34L141.75 78.68L142.36 78.06L142.99 77.45L143.64 76.87L144.31 76.32L145.01 75.79L145.73 75.29L146.46 74.81L147.22 74.36L147.99 73.94L148.78 73.55L149.59 73.19L150.41 72.87L151.25 72.57L152.11 72.3L152.97 72.07L153.85 71.87L154.74 71.71L155.65 71.58L156.56 71.49L157.49 71.43L158.42 71.41L305.15 71.41L305.09 71.59L305.03 71.76ZM193.67 198.83L193.37 198.85L193.08 198.88L192.79 198.92L192.5 198.97L192.22 199.03L191.94 199.11L191.66 199.19L191.39 199.29L191.13 199.39L190.87 199.51L190.61 199.63L190.37 199.76L190.12 199.91L189.89 200.06L189.66 200.22L189.43 200.39L189.22 200.57L189.01 200.75L188.8 200.95L188.61 201.15L188.42 201.36L188.24 201.57L188.07 201.8L187.91 202.03L187.75 202.26L187.61 202.5L187.47 202.75L187.35 203.01L187.23 203.27L187.13 203.53L187.03 203.81L186.94 204.08L186.87 204.36L186.8 204.65L186.75 204.94L186.71 205.23L186.68 205.53L186.66 205.83L186.65 206.14L186.66 206.44L186.68 206.74L186.71 207.03L186.75 207.32L186.8 207.61L186.87 207.89L186.94 208.17L187.03 208.45L187.13 208.72L187.23 208.98L187.35 209.24L187.47 209.49L187.61 209.74L187.75 209.99L187.91 210.22L188.07 210.45L188.24 210.68L188.42 210.89L188.61 211.1L188.8 211.31L189.01 211.5L189.22 211.69L189.43 211.87L189.66 212.04L189.89 212.2L190.12 212.35L190.37 212.5L190.61 212.63L190.87 212.76L191.13 212.88L191.39 212.98L191.66 213.08L191.94 213.17L192.22 213.24L192.5 213.3L192.79 213.36L193.08 213.4L193.37 213.43L193.67 213.45L193.97 213.45L358.47 213.45L358.77 213.45L359.06 213.43L359.36 213.4L359.65 213.36L359.94 213.3L360.22 213.24L360.5 213.17L360.77 213.08L361.04 212.98L361.31 212.88L361.57 212.76L361.82 212.63L362.07 212.5L362.31 212.35L362.55 212.2L362.78 212.04L363 211.87L363.22 211.69L363.43 211.5L363.63 211.31L363.83 211.1L364.01 210.89L364.19 210.68L364.37 210.45L364.53 210.22L364.68 209.99L364.83 209.74L364.96 209.49L365.09 209.24L365.2 208.98L365.31 208.72L365.41 208.45L365.49 208.17L365.57 207.89L365.63 207.61L365.69 207.32L365.73 207.03L365.76 206.74L365.78 206.44L365.78 206.14L365.78 205.83L365.76 205.53L365.73 205.23L365.69 204.94L365.63 204.65L365.57 204.36L365.49 204.08L365.41 203.81L365.31 203.53L365.2 203.27L365.09 203.01L364.96 202.75L364.83 202.5L364.68 202.26L364.53 202.03L364.37 201.8L364.19 201.57L364.01 201.36L363.83 201.15L363.63 200.95L363.43 200.75L363.22 200.57L363 200.39L362.78 200.22L362.55 200.06L362.31 199.91L362.07 199.76L361.82 199.63L361.57 199.51L361.31 199.39L361.04 199.29L360.77 199.19L360.5 199.11L360.22 199.03L359.94 198.97L359.65 198.92L359.36 198.88L359.06 198.85L358.77 198.83L358.47 198.83L193.97 198.83L193.67 198.83ZM193.67 150.63L193.37 150.65L193.08 150.68L192.79 150.72L192.5 150.77L192.22 150.84L191.94 150.91L191.66 151L191.39 151.1L191.13 151.2L190.87 151.32L190.61 151.44L190.37 151.58L190.12 151.72L189.89 151.88L189.66 152.04L189.43 152.21L189.22 152.39L189.01 152.58L188.8 152.77L188.61 152.98L188.42 153.19L188.24 153.4L188.07 153.63L187.91 153.86L187.75 154.09L187.61 154.34L187.47 154.58L187.35 154.84L187.23 155.1L187.13 155.36L187.03 155.63L186.94 155.91L186.87 156.19L186.8 156.47L186.75 156.76L186.71 157.05L186.68 157.34L186.66 157.64L186.65 157.94L186.66 158.24L186.68 158.54L186.71 158.83L186.75 159.12L186.8 159.41L186.87 159.69L186.94 159.97L187.03 160.24L187.13 160.51L187.23 160.78L187.35 161.04L187.47 161.29L187.61 161.54L187.75 161.78L187.91 162.02L188.07 162.25L188.24 162.48L188.42 162.69L188.61 162.9L188.8 163.1L189.01 163.3L189.22 163.49L189.43 163.67L189.66 163.84L189.89 164L190.12 164.15L190.37 164.3L190.61 164.43L190.87 164.56L191.13 164.68L191.39 164.78L191.66 164.88L191.94 164.96L192.22 165.04L192.5 165.1L192.79 165.16L193.08 165.2L193.37 165.23L193.67 165.25L193.97 165.25L292.05 165.25L292.35 165.25L292.65 165.23L292.94 165.2L293.24 165.16L293.52 165.1L293.81 165.04L294.08 164.96L294.36 164.88L294.63 164.78L294.89 164.68L295.15 164.56L295.41 164.43L295.66 164.3L295.9 164.15L296.14 164L296.37 163.84L296.59 163.67L296.81 163.49L297.02 163.3L297.22 163.1L297.41 162.9L297.6 162.69L297.78 162.48L297.95 162.25L298.11 162.02L298.27 161.78L298.41 161.54L298.55 161.29L298.67 161.04L298.79 160.78L298.9 160.51L298.99 160.24L299.08 159.97L299.15 159.69L299.22 159.41L299.27 159.12L299.31 158.83L299.34 158.54L299.36 158.24L299.37 157.94L299.36 157.64L299.34 157.34L299.31 157.05L299.27 156.76L299.22 156.47L299.15 156.19L299.08 155.91L298.99 155.63L298.9 155.36L298.79 155.1L298.67 154.84L298.55 154.58L298.41 154.34L298.27 154.09L298.11 153.86L297.95 153.63L297.78 153.4L297.6 153.19L297.41 152.98L297.22 152.77L297.02 152.58L296.81 152.39L296.59 152.21L296.37 152.04L296.14 151.88L295.9 151.72L295.66 151.58L295.41 151.44L295.15 151.32L294.89 151.2L294.63 151.1L294.36 151L294.08 150.91L293.81 150.84L293.52 150.77L293.24 150.72L292.94 150.68L292.65 150.65L292.35 150.63L292.05 150.62L193.97 150.62L193.67 150.63Z" id="f3uczLMdj"></path><path d="M409.37 169.57C412.3 169.57 414.93 167.81 416.1 165.11C417.2 162.33 416.62 159.18 414.49 157.13C406.14 148.78 339.32 81.96 330.97 73.6C328.92 71.48 325.77 70.83 322.99 72C320.29 73.09 318.53 75.8 318.53 78.73C318.53 85.54 318.53 140.08 318.53 146.89C318.53 159.4 328.7 169.57 341.21 169.57C354.84 169.57 402.56 169.57 409.37 169.57Z" id="bmYQtrdCU"></path></defs><g><g><g><use xlink:href="#b6UXl4DaqV" opacity="1" fill="#000000" fill-opacity="1"></use><g><use xlink:href="#b6UXl4DaqV" opacity="1" fill-opacity="0" stroke="#000000" stroke-width="1" stroke-opacity="0"></use></g></g><g><use xlink:href="#f3uczLMdj" opacity="1" fill="#000000" fill-opacity="1"></use><g><use xlink:href="#f3uczLMdj" opacity="1" fill-opacity="0" stroke="#000000" stroke-width="1" stroke-opacity="0"></use></g></g><g><use xlink:href="#bmYQtrdCU" opacity="1" fill="#000000" fill-opacity="1"></use><g><use xlink:href="#bmYQtrdCU" opacity="1" fill-opacity="0" stroke="#000000" stroke-width="1" stroke-opacity="0"></use></g></g></g></g></svg>