<?xml version="1.0" encoding="UTF-8" standalone="no"?>
<!DOCTYPE svg PUBLIC "-//W3C//DTD SVG 1.1//EN" "http://www.w3.org/Graphics/SVG/1.1/DTD/svg11.dtd">
<svg version="1.1" xmlns="http://www.w3.org/2000/svg" xmlns:xlink="http://www.w3.org/1999/xlink" preserveAspectRatio="xMidYMid meet" viewBox="0 0 640 640" width="640" height="640"><defs><path d="M320 640C143.3 640 0 496.7 0 320C0 320 0 320 0 320C0 143.3 143.3 0 320 0C320 0 320 0 320 0C496.7 0 640 143.3 640 320C640 320 640 320 640 320C640 496.7 496.7 640 320 640C320 640 320 640 320 640Z" id="b6KQXRkUl"></path><path d="M403.2 392.13L486.4 392.13L498.88 295.55L403.2 295.55C403.2 258.53 403.2 237.97 403.2 233.86C403.2 205.89 410.94 186.82 451.07 186.82C454.48 186.82 471.53 186.82 502.21 186.82C502.21 135.01 502.21 106.24 502.21 100.48C493.38 99.33 462.98 96.7 427.65 96.7C353.92 96.7 303.42 141.7 303.42 224.38C303.42 229.13 303.42 252.88 303.42 295.62L220.03 295.62L220.03 392.19L303.42 392.19L303.42 640L403.2 640L403.2 392.13Z" id="e2vaZn19ck"></path></defs><g><g><g><use xlink:href="#b6KQXRkUl" opacity="1" fill="#707070" fill-opacity="1"></use><g><use xlink:href="#b6KQXRkUl" opacity="1" fill-opacity="0" stroke="#000000" stroke-width="1" stroke-opacity="0"></use></g></g><g><use xlink:href="#e2vaZn19ck" opacity="1" fill="#ffffff" fill-opacity="1"></use><g><use xlink:href="#e2vaZn19ck" opacity="1" fill-opacity="0" stroke="#000000" stroke-width="1" stroke-opacity="0"></use></g></g></g></g></svg>