<?xml version="1.0" encoding="UTF-8" standalone="no"?>
<!DOCTYPE svg PUBLIC "-//W3C//DTD SVG 1.1//EN" "http://www.w3.org/Graphics/SVG/1.1/DTD/svg11.dtd">
<svg version="1.1" xmlns="http://www.w3.org/2000/svg" xmlns:xlink="http://www.w3.org/1999/xlink" preserveAspectRatio="xMidYMid meet" viewBox="0 0 640 640" width="640" height="640"><defs><path d="M419.9 170.45L422.12 170.68L424.32 171L426.49 171.4L428.63 171.88L430.74 172.44L432.81 173.09L434.85 173.82L436.85 174.62L438.81 175.49L440.73 176.44L442.61 177.46L444.44 178.56L446.23 179.71L447.97 180.94L449.66 182.23L451.3 183.58L452.88 184.99L454.41 186.46L455.88 187.99L457.29 189.57L458.64 191.21L459.93 192.9L461.16 194.64L462.31 196.42L463.4 198.26L464.43 200.13L465.38 202.05L466.25 204.02L467.05 206.02L467.78 208.05L468.43 210.13L468.99 212.23L469.47 214.37L469.87 216.54L470.19 218.74L470.42 220.97L470.55 223.22L470.6 225.49L470.6 416.24L470.55 418.51L470.42 420.76L470.19 422.99L469.87 425.18L469.47 427.35L468.99 429.49L468.42 431.6L467.78 433.67L467.05 435.71L466.25 437.71L465.37 439.68L464.42 441.6L463.4 443.47L462.31 445.31L461.15 447.09L459.93 448.83L458.64 450.52L457.29 452.16L455.88 453.74L454.4 455.27L452.88 456.74L451.29 458.15L449.66 459.5L447.97 460.79L446.23 462.02L444.44 463.18L442.61 464.27L440.73 465.29L438.81 466.24L436.85 467.12L434.85 467.92L432.81 468.64L430.74 469.29L428.63 469.85L426.49 470.34L424.32 470.74L422.12 471.05L419.9 471.28L417.65 471.42L415.37 471.46L224.63 471.46L222.35 471.42L220.1 471.28L217.88 471.05L215.68 470.74L213.51 470.34L211.37 469.85L209.26 469.29L207.19 468.64L205.15 467.92L203.15 467.11L201.19 466.24L199.27 465.29L197.39 464.27L195.56 463.17L193.77 462.02L192.04 460.79L190.35 459.5L188.71 458.15L187.13 456.74L185.6 455.27L184.13 453.74L182.72 452.15L181.37 450.52L180.08 448.83L178.85 447.09L177.69 445.3L176.6 443.47L175.58 441.59L174.63 439.67L173.75 437.71L172.95 435.71L172.23 433.67L171.58 431.6L171.02 429.49L170.53 427.35L170.13 425.18L169.82 422.98L169.59 420.76L169.45 418.51L169.41 416.24L169.41 225.49L169.45 223.22L169.59 220.97L169.82 218.74L170.13 216.54L170.53 214.37L171.02 212.23L171.58 210.13L172.23 208.05L172.95 206.02L173.75 204.02L174.63 202.05L175.58 200.13L176.6 198.26L177.69 196.42L178.85 194.64L180.08 192.9L181.37 191.21L182.72 189.57L184.13 187.99L185.6 186.46L187.13 184.99L188.71 183.58L190.35 182.23L192.04 180.94L193.77 179.71L195.56 178.56L197.39 177.46L199.27 176.44L201.19 175.49L203.15 174.62L205.15 173.82L207.19 173.09L209.26 172.44L211.37 171.88L213.51 171.4L215.68 171L217.88 170.68L220.1 170.45L222.35 170.32L224.63 170.27L415.37 170.27L417.65 170.32L419.9 170.45ZM311.88 222.05L307.89 222.45L303.94 223.02L300.04 223.73L296.2 224.6L292.42 225.62L288.7 226.78L285.04 228.08L281.45 229.52L277.92 231.09L274.48 232.8L271.1 234.63L267.81 236.59L264.61 238.67L261.48 240.87L258.45 243.19L255.51 245.61L252.67 248.15L249.93 250.79L247.29 253.53L244.75 256.38L242.32 259.31L240.01 262.35L237.81 265.47L235.73 268.68L233.77 271.97L231.94 275.34L230.23 278.79L228.66 282.31L227.22 285.9L225.92 289.56L224.76 293.28L223.74 297.07L222.87 300.91L222.15 304.8L221.59 308.75L221.18 312.74L220.94 316.78L220.85 320.86L220.94 324.94L221.18 328.98L221.59 332.98L222.15 336.93L222.87 340.82L223.74 344.66L224.76 348.45L225.92 352.17L227.22 355.83L228.66 359.42L230.23 362.94L231.94 366.39L233.77 369.76L235.73 373.05L237.81 376.26L240.01 379.38L242.32 382.42L244.75 385.36L247.29 388.2L249.93 390.94L252.67 393.58L255.51 396.12L258.45 398.55L261.48 400.86L264.61 403.06L267.81 405.14L271.1 407.1L274.48 408.93L277.92 410.64L281.45 412.21L285.04 413.65L288.7 414.95L292.42 416.11L296.2 417.13L300.04 418L303.94 418.72L307.89 419.28L311.88 419.69L315.92 419.93L320 420.02L324.08 419.93L328.12 419.69L332.11 419.28L336.06 418.72L339.96 418L343.8 417.13L347.58 416.11L351.3 414.95L354.96 413.65L358.56 412.21L362.08 410.64L365.53 408.93L368.9 407.1L372.19 405.14L375.4 403.06L378.52 400.86L381.55 398.54L384.49 396.12L387.33 393.58L390.08 390.94L392.72 388.2L395.25 385.35L397.68 382.41L400 379.38L402.2 376.26L404.28 373.05L406.23 369.76L408.07 366.39L409.77 362.94L411.35 359.42L412.79 355.83L414.09 352.17L415.25 348.44L416.27 344.66L417.14 340.82L417.85 336.92L418.42 332.98L418.82 328.98L419.07 324.94L419.15 320.86L419.07 316.78L418.82 312.74L418.42 308.75L417.85 304.8L417.14 300.91L416.27 297.07L415.25 293.28L414.09 289.56L412.79 285.9L411.35 282.31L409.78 278.79L408.07 275.34L406.24 271.97L404.28 268.68L402.2 265.47L400 262.35L397.68 259.31L395.26 256.38L392.72 253.53L390.08 250.79L387.34 248.15L384.49 245.61L381.55 243.19L378.52 240.87L375.4 238.67L372.19 236.59L368.9 234.63L365.53 232.8L362.08 231.09L358.56 229.52L354.97 228.08L351.31 226.78L347.58 225.62L343.8 224.6L339.96 223.73L336.06 223.02L332.12 222.45L328.12 222.05L324.08 221.8L320 221.72L315.92 221.8L311.88 222.05ZM419.7 195.45L418.41 195.63L417.15 195.88L415.9 196.2L414.69 196.58L413.51 197.02L412.35 197.53L411.23 198.1L410.15 198.72L409.1 199.4L408.09 200.13L407.12 200.91L406.2 201.74L405.32 202.62L404.49 203.55L403.71 204.51L402.98 205.52L402.3 206.57L401.67 207.65L401.11 208.77L400.6 209.93L400.15 211.11L399.77 212.32L399.45 213.56L399.2 214.83L399.02 216.12L398.91 217.43L398.88 218.76L398.91 220.09L399.02 221.4L399.2 222.68L399.45 223.95L399.77 225.19L400.15 226.4L400.6 227.59L401.11 228.74L401.67 229.86L402.3 230.95L402.98 231.99L403.71 233L404.49 233.97L405.32 234.89L406.2 235.77L407.12 236.6L408.09 237.38L409.1 238.12L410.15 238.79L411.23 239.42L412.35 239.98L413.51 240.49L414.69 240.94L415.9 241.32L417.15 241.64L418.41 241.89L419.7 242.07L421.01 242.18L422.34 242.22L423.67 242.18L424.98 242.07L426.27 241.89L427.53 241.64L428.77 241.32L429.99 240.94L431.17 240.49L432.32 239.98L433.44 239.42L434.53 238.79L435.58 238.12L436.58 237.38L437.55 236.6L438.48 235.77L439.35 234.89L440.19 233.97L440.97 233L441.7 231.99L442.38 230.95L443 229.86L443.57 228.74L444.07 227.59L444.52 226.4L444.9 225.19L445.22 223.95L445.47 222.68L445.65 221.4L445.76 220.09L445.8 218.76L445.76 217.43L445.65 216.12L445.47 214.83L445.22 213.56L444.9 212.32L444.52 211.11L444.07 209.93L443.57 208.77L443 207.65L442.38 206.57L441.7 205.52L440.97 204.51L440.19 203.55L439.35 202.62L438.48 201.74L437.55 200.91L436.58 200.13L435.58 199.4L434.53 198.72L433.44 198.1L432.32 197.53L431.17 197.02L429.99 196.58L428.77 196.2L427.53 195.88L426.27 195.63L424.98 195.45L423.67 195.34L422.34 195.3L421.01 195.34L419.7 195.45Z" id="d2Ler6aVV2"></path><path d="M262.74 320.86C262.74 352.43 288.44 378.12 320 378.12C351.57 378.12 377.25 352.43 377.25 320.86C377.25 289.3 351.57 263.61 320 263.61C288.44 263.61 262.74 289.3 262.74 320.86Z" id="b1VjOej9xc"></path><path d="M346.24 1.06L359.15 2.37L371.9 4.19L384.49 6.5L396.9 9.3L409.12 12.57L421.14 16.31L432.96 20.51L444.56 25.15L455.92 30.22L467.06 35.72L477.94 41.63L488.56 47.95L498.91 54.65L508.98 61.74L518.77 69.21L528.25 77.03L537.42 85.21L546.27 93.73L554.79 102.58L562.97 111.75L570.79 121.23L578.26 131.02L585.35 141.09L592.05 151.44L598.37 162.06L604.28 172.94L609.78 184.08L614.85 195.44L619.49 207.04L623.69 218.86L627.43 230.88L630.7 243.1L633.5 255.51L635.81 268.1L637.63 280.85L638.94 293.76L639.73 306.81L640 320L639.73 333.19L638.94 346.24L637.63 359.15L635.81 371.9L633.5 384.49L630.7 396.9L627.43 409.12L623.69 421.14L619.49 432.96L614.85 444.56L609.78 455.92L604.28 467.06L598.37 477.94L592.05 488.56L585.35 498.91L578.26 508.98L570.79 518.77L562.97 528.25L554.79 537.42L546.27 546.27L537.42 554.79L528.25 562.97L518.77 570.79L508.98 578.26L498.91 585.35L488.56 592.05L477.94 598.37L467.06 604.28L455.92 609.78L444.56 614.85L432.96 619.49L421.14 623.69L409.12 627.43L396.9 630.7L384.49 633.5L371.9 635.81L359.15 637.63L346.24 638.94L333.19 639.73L320 640L306.81 639.73L293.76 638.94L280.85 637.63L268.1 635.81L255.51 633.5L243.1 630.7L230.88 627.43L218.86 623.69L207.04 619.49L195.44 614.85L184.08 609.78L172.94 604.28L162.06 598.37L151.44 592.05L141.09 585.35L131.02 578.26L121.23 570.79L111.75 562.97L102.58 554.79L93.73 546.27L85.21 537.42L77.03 528.25L69.21 518.77L61.74 508.98L54.65 498.91L47.95 488.56L41.63 477.94L35.72 467.06L30.22 455.92L25.15 444.56L20.51 432.96L16.31 421.14L12.57 409.12L9.3 396.9L6.5 384.49L4.19 371.9L2.37 359.15L1.06 346.24L0.27 333.19L0 320L0.27 306.81L1.06 293.76L2.37 280.85L4.19 268.1L6.5 255.51L9.3 243.1L12.57 230.88L16.31 218.86L20.51 207.04L25.15 195.44L30.22 184.08L35.72 172.94L41.63 162.06L47.95 151.44L54.65 141.09L61.74 131.02L69.21 121.23L77.03 111.75L85.21 102.58L93.73 93.73L102.58 85.21L111.75 77.03L121.23 69.21L131.02 61.74L141.09 54.65L151.44 47.95L162.06 41.63L172.94 35.72L184.08 30.22L195.44 25.15L207.04 20.51L218.86 16.31L230.88 12.57L243.1 9.3L255.51 6.5L268.1 4.19L280.85 2.37L293.76 1.06L306.81 0.27L320 0L333.19 0.27L346.24 1.06ZM220.63 127.59L216.67 127.83L212.76 128.23L208.89 128.78L205.08 129.49L201.32 130.34L197.61 131.33L193.96 132.47L190.38 133.74L186.86 135.15L183.41 136.7L180.03 138.37L176.73 140.16L173.51 142.08L170.37 144.12L167.31 146.27L164.34 148.54L161.46 150.92L158.67 153.4L155.99 155.99L153.4 158.67L150.92 161.46L148.54 164.34L146.27 167.31L144.12 170.37L142.08 173.51L140.16 176.73L138.37 180.03L136.7 183.41L135.15 186.86L133.74 190.38L132.47 193.96L131.33 197.61L130.34 201.32L129.49 205.08L128.78 208.89L128.23 212.76L127.83 216.67L127.59 220.63L127.51 224.63L127.51 415.37L127.59 419.37L127.83 423.33L128.23 427.24L128.78 431.11L129.49 434.92L130.34 438.69L131.33 442.39L132.47 446.04L133.74 449.62L135.15 453.14L136.7 456.59L138.37 459.97L140.16 463.27L142.08 466.5L144.12 469.64L146.27 472.69L148.54 475.66L150.92 478.54L153.4 481.33L155.99 484.02L158.67 486.6L161.46 489.09L164.34 491.46L167.31 493.73L170.37 495.88L173.51 497.92L176.73 499.84L180.03 501.63L183.41 503.3L186.86 504.85L190.38 506.26L193.96 507.53L197.61 508.67L201.32 509.66L205.08 510.51L208.89 511.22L212.76 511.77L216.67 512.17L220.63 512.41L224.63 512.49L415.37 512.49L418.05 512.43L420.71 512.25L423.35 511.94L425.99 511.52L428.61 510.97L431.22 510.3L433.81 509.52L436.4 508.6L438.97 507.57L441.53 506.42L444.07 505.14L446.61 503.75L449.13 502.23L451.64 500.59L454.14 498.83L456.62 496.95L459.09 494.95L461.55 492.82L464 490.58L466.43 488.21L468.85 485.72L471.26 483.11L473.66 480.38L476.04 477.53L478.41 474.55L480.77 471.46L483.12 468.24L485.45 464.9L487.78 461.44L490.08 457.86L492.38 454.16L494.67 450.34L496.94 446.39L499.2 442.32L501.44 438.14L503.68 433.83L505.9 429.4L508.11 424.84L510.3 420.17L512.49 415.37L512.49 224.63L512.41 220.63L512.17 216.67L511.77 212.76L511.22 208.89L510.51 205.08L509.66 201.32L508.67 197.61L507.53 193.96L506.26 190.38L504.85 186.86L503.3 183.41L501.63 180.03L499.84 176.73L497.92 173.51L495.88 170.37L493.73 167.31L491.46 164.34L489.09 161.46L486.6 158.67L484.02 155.99L481.33 153.4L478.54 150.92L475.66 148.54L472.69 146.27L469.64 144.12L466.5 142.08L463.27 140.16L459.97 138.37L456.59 136.7L453.14 135.15L449.62 133.74L446.04 132.47L442.39 131.33L438.69 130.34L434.92 129.49L431.11 128.78L427.24 128.23L423.33 127.83L419.37 127.59L415.37 127.51L224.63 127.51L220.63 127.59Z" id="a13YRv8o6y"></path></defs><g><g><g><use xlink:href="#d2Ler6aVV2" opacity="1" fill="#acaeaf" fill-opacity="1"></use><g><use xlink:href="#d2Ler6aVV2" opacity="1" fill-opacity="0" stroke="#000000" stroke-width="1" stroke-opacity="0"></use></g></g><g><use xlink:href="#b1VjOej9xc" opacity="1" fill="#acaeaf" fill-opacity="1"></use><g><use xlink:href="#b1VjOej9xc" opacity="1" fill-opacity="0" stroke="#000000" stroke-width="1" stroke-opacity="0"></use></g></g><g><use xlink:href="#a13YRv8o6y" opacity="1" fill="#acaeaf" fill-opacity="1"></use><g><use xlink:href="#a13YRv8o6y" opacity="1" fill-opacity="0" stroke="#000000" stroke-width="1" stroke-opacity="0"></use></g></g></g></g></svg>