<?xml version="1.0" encoding="UTF-8" standalone="no"?>
<!DOCTYPE svg PUBLIC "-//W3C//DTD SVG 1.1//EN" "http://www.w3.org/Graphics/SVG/1.1/DTD/svg11.dtd">
<svg version="1.1" xmlns="http://www.w3.org/2000/svg" xmlns:xlink="http://www.w3.org/1999/xlink" preserveAspectRatio="xMidYMid meet" viewBox="0 0 640 640" width="640" height="640"><defs><path d="M0 320C0 320 0 320 0 320C0 143.3 143.3 0 320 0C320 0 320 0 320 0C496.7 0 640 143.3 640 320C640 320 640 320 640 320C640 496.7 496.7 640 320 640C320 640 320 640 320 640C143.3 640 0 496.7 0 320Z" id="biqJq6Oa"></path><path d="M2.29 320C2.29 320 2.29 320 2.29 320C2.29 143.3 145.59 0 322.29 0C322.29 0 322.29 0 322.29 0C498.99 0 642.29 143.3 642.29 320C642.29 320 642.29 320 642.29 320C642.29 496.7 498.99 640 322.29 640C322.29 640 322.29 640 322.29 640C145.59 640 2.29 496.7 2.29 320Z" id="b1CAgE7ffS"></path><path d="M117.89 247.94L202.94 247.94L202.94 521.66L117.89 521.66L117.89 247.94Z" id="bsy9zBYwG"></path><path d="M117.89 247.94L202.94 247.94L202.94 521.66L117.89 521.66L117.89 247.94Z" id="a4QXQA0TP"></path><path d="M337.92 285.25C338.61 285.25 339 285.25 339.07 285.25C350.4 263.74 378.11 241.02 419.58 241.02C505.73 241.02 521.66 297.73 521.66 371.39C521.66 381.41 521.66 431.48 521.66 521.6C513.16 521.6 445.12 521.6 436.61 521.6C436.61 441.77 436.61 397.41 436.61 388.54C436.61 356.74 436.03 315.97 392.38 315.97C348.1 315.97 341.31 350.53 341.31 386.24C341.31 395.27 341.31 440.41 341.31 521.66C335.64 521.66 307.31 521.66 256.32 521.66L256.32 247.87L337.92 247.87C337.92 270.3 337.92 282.76 337.92 285.25Z" id="e2KTCeXqOT"></path><path d="M337.92 285.25C338.61 285.25 339 285.25 339.07 285.25C350.4 263.74 378.11 241.02 419.58 241.02C505.73 241.02 521.66 297.73 521.66 371.39C521.66 381.41 521.66 431.48 521.66 521.6C513.16 521.6 445.12 521.6 436.61 521.6C436.61 441.77 436.61 397.41 436.61 388.54C436.61 356.74 436.03 315.97 392.38 315.97C348.1 315.97 341.31 350.53 341.31 386.24C341.31 395.27 341.31 440.41 341.31 521.66C335.64 521.66 307.31 521.66 256.32 521.66L256.32 247.87L337.92 247.87C337.92 270.3 337.92 282.76 337.92 285.25Z" id="c6lHl98IW"></path><path d="M160.42 213.09C136.94 213.09 117.89 193.97 117.89 170.42C117.89 146.87 136.94 127.75 160.42 127.75C183.89 127.75 202.94 146.87 202.94 170.42C202.94 193.97 183.89 213.09 160.42 213.09Z" id="a2Xgzc90W6"></path></defs><g><g><g><use xlink:href="#biqJq6Oa" opacity="1" fill="#4999bc" fill-opacity="1"></use><g><use xlink:href="#biqJq6Oa" opacity="1" fill-opacity="0" stroke="#000000" stroke-width="1" stroke-opacity="0"></use></g></g><g><use xlink:href="#b1CAgE7ffS" opacity="1" fill="#4999bc" fill-opacity="0"></use><g><use xlink:href="#b1CAgE7ffS" opacity="1" fill-opacity="0" stroke="#000000" stroke-width="1" stroke-opacity="0"></use></g></g><g><use xlink:href="#bsy9zBYwG" opacity="1" fill="#ffffff" fill-opacity="1"></use><g><use xlink:href="#bsy9zBYwG" opacity="1" fill-opacity="0" stroke="#000000" stroke-width="1" stroke-opacity="0"></use></g></g><g><use xlink:href="#a4QXQA0TP" opacity="1" fill="#000000" fill-opacity="0"></use><g><use xlink:href="#a4QXQA0TP" opacity="1" fill-opacity="0" stroke="#000000" stroke-width="1" stroke-opacity="0"></use></g></g><g><use xlink:href="#e2KTCeXqOT" opacity="1" fill="#ffffff" fill-opacity="1"></use><g><use xlink:href="#e2KTCeXqOT" opacity="1" fill-opacity="0" stroke="#000000" stroke-width="1" stroke-opacity="0"></use></g></g><g><use xlink:href="#c6lHl98IW" opacity="1" fill="#000000" fill-opacity="0"></use><g><use xlink:href="#c6lHl98IW" opacity="1" fill-opacity="0" stroke="#000000" stroke-width="1" stroke-opacity="0"></use></g></g><g><use xlink:href="#a2Xgzc90W6" opacity="1" fill="#ffffff" fill-opacity="1"></use><g><use xlink:href="#a2Xgzc90W6" opacity="1" fill-opacity="0" stroke="#000000" stroke-width="1" stroke-opacity="0"></use></g></g></g></g></svg>