<?xml version="1.0" encoding="UTF-8" standalone="no"?>
<!DOCTYPE svg PUBLIC "-//W3C//DTD SVG 1.1//EN" "http://www.w3.org/Graphics/SVG/1.1/DTD/svg11.dtd">
<svg version="1.1" xmlns="http://www.w3.org/2000/svg" xmlns:xlink="http://www.w3.org/1999/xlink" preserveAspectRatio="xMidYMid meet" viewBox="0 0 640 640" width="640" height="640"><defs><path d="M320 0C496.7 0 640 143.3 640 320C640 320 640 320 640 320C640 496.7 496.7 640 320 640C320 640 320 640 320 640C143.3 640 0 496.7 0 320C0 320 0 320 0 320C0 143.3 143.3 0 320 0C320 0 320 0 320 0Z" id="gbOliDLNG"></path><path d="M245.76 482.56C396.67 482.56 479.3 357.5 479.3 249.02C479.3 245.5 479.3 241.92 479.04 238.4C495.1 226.75 508.99 212.42 520 195.9C505.02 202.56 489.15 206.91 472.9 208.83C490.05 198.59 502.85 182.46 508.99 163.46C492.86 172.99 475.26 179.78 456.9 183.36C425.79 150.34 373.82 148.74 340.8 179.78C319.49 199.81 310.46 229.7 317.06 258.18C251.07 254.85 189.57 223.68 147.9 172.42C126.14 209.92 137.22 257.86 173.31 281.98C160.26 281.6 147.46 278.08 136.06 271.74C136.06 272.06 136.06 272.45 136.06 272.77C136.06 311.81 163.58 345.47 201.92 353.22C189.82 356.48 177.15 356.99 164.86 354.62C175.62 388.03 206.4 410.94 241.54 411.65C212.48 434.5 176.58 446.91 139.65 446.85C133.12 446.85 126.59 446.46 120.13 445.63C157.5 469.76 201.22 482.56 245.76 482.56" id="d5T8nMxuLZ"></path></defs><g><g><g><use xlink:href="#gbOliDLNG" opacity="1" fill="#707070" fill-opacity="1"></use><g><use xlink:href="#gbOliDLNG" opacity="1" fill-opacity="0" stroke="#000000" stroke-width="1" stroke-opacity="0"></use></g></g><g><use xlink:href="#d5T8nMxuLZ" opacity="1" fill="#ffffff" fill-opacity="1"></use><g><use xlink:href="#d5T8nMxuLZ" opacity="1" fill-opacity="0" stroke="#000000" stroke-width="1" stroke-opacity="0"></use></g></g></g></g></svg>